<svg width="25" height="25" viewBox="0 0 25 25" fill="none" xmlns="http://www.w3.org/2000/svg">
<g id="Frame 343">
<path id="Line 1 (Stroke)" fill-rule="evenodd" clip-rule="evenodd" d="M11.3967 18.3201C11.3967 18.5962 11.1729 18.8201 10.8967 18.8201H5.89673C5.62059 18.8201 5.39673 18.5962 5.39673 18.3201C5.39673 18.0439 5.62059 17.8201 5.89673 17.8201H10.8967C11.1729 17.8201 11.3967 18.0439 11.3967 18.3201ZM20.3967 12.3201C20.3967 12.5962 20.1729 12.8201 19.8967 12.8201L5.89673 12.8201C5.62059 12.8201 5.39673 12.5962 5.39673 12.3201C5.39673 12.044 5.62059 11.8201 5.89673 11.8201L19.8967 11.8201C20.1729 11.8201 20.3967 12.044 20.3967 12.3201ZM20.3967 6.32007C20.3967 6.59621 20.1729 6.82007 19.8967 6.82007L5.89673 6.82007C5.62059 6.82007 5.39673 6.59621 5.39673 6.32007C5.39673 6.04393 5.62059 5.82007 5.89673 5.82007L19.8967 5.82007C20.1729 5.82007 20.3967 6.04393 20.3967 6.32007Z" fill="black"/>
<path id="Vector 229 (Stroke)" fill-rule="evenodd" clip-rule="evenodd" d="M13.3967 18.3201C13.3967 18.0439 13.6206 17.8201 13.8967 17.8201H19.8967C20.1729 17.8201 20.3967 18.0439 20.3967 18.3201C20.3967 18.5962 20.1729 18.8201 19.8967 18.8201H13.8967C13.6206 18.8201 13.3967 18.5962 13.3967 18.3201Z" fill="black"/>
<path id="Vector 230 (Stroke)" fill-rule="evenodd" clip-rule="evenodd" d="M16.8967 21.8201C16.6206 21.8201 16.3967 21.5962 16.3967 21.3201V15.3201C16.3967 15.0439 16.6206 14.8201 16.8967 14.8201C17.1729 14.8201 17.3967 15.0439 17.3967 15.3201V21.3201C17.3967 21.5962 17.1729 21.8201 16.8967 21.8201Z" fill="black"/>
</g>
</svg>
