<svg width="237" height="229" viewBox="0 0 237 229" fill="none" xmlns="http://www.w3.org/2000/svg">
<path d="M114.956 4.23941C155.171 4.23941 187.772 27.8103 187.772 56.8859C187.772 57.9458 187.724 58.9948 187.637 60.033C189.167 61.6985 190.665 63.4289 192.114 65.235C192.709 62.4339 193.012 59.5626 193.012 56.6426C193.017 25.4689 158.069 0 114.956 0C71.8428 0 36.9001 25.4689 36.9001 56.6372C36.9001 58.2486 36.9975 59.8384 37.1813 61.4119C38.8036 59.5842 40.469 57.8376 42.1561 56.1722C42.6807 27.421 75.0711 4.234 114.962 4.234L114.956 4.23941Z" fill="#8F3DC9"/>
<path d="M161.498 26.5505C156.339 22.4031 149.125 21.8785 143.491 25.3501C138.24 28.5891 132.476 33.445 127.507 38.0359C120.418 44.5951 109.495 44.5951 102.405 38.0359C97.4414 33.445 91.6771 28.5891 86.4211 25.3501C80.7866 21.8785 73.5731 22.4031 68.4145 26.5505C51.738 39.9609 8.46792 81.1329 17.7146 141.258C21.3592 164.937 40.031 183.89 61.6822 192.499C78.0072 198.987 95.7002 200.047 113.08 200.031C128.015 200.02 142.837 199.885 157.377 196.046C175.714 191.206 192.504 180.9 202.891 164.759C207.45 157.68 210.905 149.607 212.192 141.253C221.444 81.1275 178.174 39.9555 161.492 26.5451L161.498 26.5505Z" fill="#DBB2F4"/>
<path d="M148.39 139.662C158.048 126.144 174.47 120.915 187.123 126.56C183.517 97.2468 152.581 72.3889 114.956 72.3889C77.3314 72.3889 46.374 97.263 42.7834 126.593C55.4476 120.899 71.9132 126.117 81.5924 139.662C90.6769 152.381 90.8824 168.376 83.0146 178.677C92.4235 181.527 103 183.024 114.232 183.024C125.463 183.024 136.905 181.418 146.73 178.369C139.106 168.062 139.392 152.256 148.385 139.668L148.39 139.662Z" fill="#FFF5F6"/>
<path d="M81.5977 139.663C71.9184 126.117 55.4529 120.893 42.7887 126.593C42.5562 128.475 42.4373 130.367 42.4373 132.281C42.4373 155.112 58.8758 171.361 83.0199 178.677C90.8822 168.381 90.6821 152.381 81.5977 139.663Z" fill="#FFE9FE"/>
<path d="M187.48 132.276C187.48 130.356 187.361 128.448 187.123 126.555C174.465 120.915 158.048 126.139 148.39 139.657C139.398 152.251 139.106 168.057 146.736 178.358C170.761 170.901 187.48 154.787 187.48 132.271V132.276Z" fill="#FFE9FE"/>
<path d="M104.198 114.49C104.527 111.134 102.549 108.193 99.779 107.921C97.009 107.649 94.4962 110.149 94.1666 113.504C93.837 116.86 95.8154 119.801 98.5854 120.073C101.355 120.345 103.868 117.845 104.198 114.49Z" fill="#3A1221"/>
<path d="M131.951 120.061C134.721 119.789 136.699 116.849 136.37 113.493C136.04 110.137 133.527 107.638 130.757 107.91C127.987 108.182 126.009 111.123 126.338 114.478C126.668 117.834 129.181 120.333 131.951 120.061Z" fill="#3A1221"/>
<path d="M115.594 121.926C116.583 121.926 117.384 121.357 117.384 120.656C117.384 119.954 116.583 119.385 115.594 119.385C114.606 119.385 113.804 119.954 113.804 120.656C113.804 121.357 114.606 121.926 115.594 121.926Z" fill="#3A1221"/>
<path d="M115.594 145.292C90.3848 144.832 99.1719 129.388 99.1719 129.388C100.827 129.524 102.779 129.54 104.925 129.269C110.711 128.534 111.495 126.512 115.919 126.512C120.634 126.512 121.586 128.804 127.523 129.41C129.502 129.616 131.286 129.551 132.79 129.388C139.133 146.519 115.594 145.292 115.594 145.292Z" fill="#7C3844"/>
<path d="M115.778 135.91C108.732 135.91 102.476 137.056 98.5391 138.825C100.215 142.134 104.774 145.092 115.589 145.292C115.589 145.292 129.215 146 132.936 138.792C128.994 137.04 122.775 135.91 115.772 135.91H115.778Z" fill="#FFB0BF"/>
<path d="M115.594 145.292C90.3848 144.832 99.1719 129.388 99.1719 129.388C100.827 129.524 102.779 129.54 104.925 129.269C110.711 128.534 111.495 126.512 115.919 126.512C120.634 126.512 121.586 128.804 127.523 129.41C129.502 129.616 131.286 129.551 132.79 129.388C139.133 146.519 115.594 145.292 115.594 145.292Z" stroke="#391020" stroke-width="1.08148" stroke-linecap="round" stroke-linejoin="round"/>
<path d="M172.128 217.881C173.441 223.118 167.931 226.643 156.971 227.527C146.018 228.407 136.997 226.681 136.52 220.749C136.089 215.37 137.936 208.145 148.894 207.266C159.847 206.386 170.545 211.579 172.127 217.886L172.128 217.881Z" fill="#8F3DC9"/>
<path d="M57.8541 219.643C56.9673 224.964 62.7424 228.041 73.7303 228.041C84.7181 228.041 93.57 225.597 93.57 219.643C93.57 214.247 91.1475 207.196 80.1597 207.196C69.1718 207.196 58.9194 213.23 57.8541 219.643Z" fill="#8F3DC9"/>
<path d="M11.6526 189.816C17.4761 189.816 22.1971 184.689 22.1971 178.363C22.1971 172.038 17.4761 166.91 11.6526 166.91C5.82906 166.91 1.10815 172.038 1.10815 178.363C1.10815 184.689 5.82906 189.816 11.6526 189.816Z" fill="#8F3DC9"/>
<path d="M18.4719 27.5239L24.3281 44.1679" stroke="#8F3DC9" stroke-width="1.62222" stroke-miterlimit="10"/>
<path d="M16.0815 27.9833C19.6503 27.9833 22.5433 25.0902 22.5433 21.5214C22.5433 17.9526 19.6503 15.0596 16.0815 15.0596C12.5127 15.0596 9.61963 17.9526 9.61963 21.5214C9.61963 25.0902 12.5127 27.9833 16.0815 27.9833Z" fill="#D9B3F4"/>
<path d="M55.496 44.6435C38.3816 37.1055 17.4928 46.92 8.84091 66.5651C0.189053 86.2102 7.05105 108.245 24.1655 115.783C29.2917 118.044 40.4634 103.947 49.1153 84.3014C57.7671 64.6563 60.6222 46.9038 55.496 44.6435Z" fill="#8F3DC9"/>
<path d="M49.278 42.8482C32.5421 35.4779 12.1183 45.0761 3.66111 64.2832C-4.79608 83.4903 1.9091 105.039 18.645 112.409C23.6577 114.615 34.5807 100.837 43.0379 81.6302C51.495 62.4231 54.2907 45.0599 49.278 42.8536V42.8482Z" fill="#F6E9FF"/>
<path d="M2.79581 76.0824L11.2368 66.5599C11.3666 66.4139 11.5991 66.5545 11.5342 66.733L7.46782 78.0723C7.06226 79.2079 7.65167 80.4624 8.78722 80.868L8.82508 80.8788C9.96063 81.2843 11.2151 80.6949 11.6207 79.5594L19.4344 57.7675C19.8454 56.6265 19.2506 55.3774 18.115 54.9719L18.0663 54.9557C17.1633 54.6312 16.2062 54.9557 15.6384 55.6694C15.633 55.6694 15.606 55.6694 15.606 55.6694L14.93 56.4697L1.94685 70.9508C1.76841 71.1454 1.44396 71.0265 1.43315 70.7669V70.6588C0.854554 72.8109 0.448999 74.9631 0.227295 77.1044C1.18441 77.1855 2.14152 76.8286 2.79581 76.0878V76.0824Z" fill="#D9B3F4"/>
<path d="M210.71 27.5239L204.86 44.1679" stroke="#8F3DC9" stroke-width="1.62222" stroke-miterlimit="10"/>
<path d="M213.101 27.9833C216.669 27.9833 219.562 25.0902 219.562 21.5214C219.562 17.9526 216.669 15.0596 213.101 15.0596C209.532 15.0596 206.639 17.9526 206.639 21.5214C206.639 25.0902 209.532 27.9833 213.101 27.9833Z" fill="#D9B3F4"/>
<path d="M173.691 44.6435C190.806 37.1055 211.695 46.92 220.347 66.5651C228.998 86.2102 222.136 108.245 205.022 115.783C199.896 118.044 188.724 103.947 180.072 84.3014C171.42 64.6563 168.565 46.9038 173.691 44.6435Z" fill="#8F3DC9"/>
<path d="M179.91 42.8482C196.646 35.4779 217.07 45.0761 225.527 64.2832C233.984 83.4903 227.279 105.039 210.543 112.409C205.53 114.615 194.607 100.837 186.15 81.6302C177.693 62.4231 174.897 45.0599 179.91 42.8536V42.8482Z" fill="#F6E9FF"/>
<path d="M226.386 76.0824L217.946 66.5599C217.816 66.4139 217.583 66.5545 217.648 66.733L221.714 78.0723C222.12 79.2079 221.531 80.4624 220.395 80.868L220.357 80.8788C219.222 81.2843 217.967 80.6949 217.562 79.5594L209.748 57.7675C209.337 56.6265 209.932 55.3774 211.067 54.9719L211.116 54.9557C212.019 54.6312 212.976 54.9557 213.544 55.6694C213.549 55.6694 213.576 55.6694 213.576 55.6694L214.252 56.4697L227.235 70.9508C227.414 71.1454 227.738 71.0265 227.749 70.7669V70.6588C228.328 72.8109 228.733 74.9631 228.955 77.1044C227.998 77.1855 227.041 76.8286 226.386 76.0878V76.0824Z" fill="#D9B3F4"/>
<path d="M232.549 174.421C234.534 168.415 231.661 162.065 226.132 160.238C220.602 158.41 214.511 161.797 212.526 167.803C210.541 173.808 213.414 180.159 218.943 181.986C224.473 183.814 230.564 180.427 232.549 174.421Z" fill="#8F3DC9"/>
<path d="M125.009 129.167L126.052 132.325C126.323 133.136 127.409 133.276 127.874 132.563L129.74 129.702L125.014 129.167H125.009Z" fill="white"/>
<path d="M135.461 128.956C134.725 129.113 133.822 129.275 132.79 129.388C131.286 129.551 129.502 129.616 127.523 129.41C121.585 128.804 120.634 126.512 115.918 126.512C111.495 126.512 110.711 128.534 104.925 129.269C102.778 129.54 100.826 129.524 99.1717 129.388C97.9713 129.286 96.9222 129.123 96.0679 128.956" stroke="#391020" stroke-width="1.08148" stroke-linecap="round" stroke-linejoin="round"/>
</svg>
