<svg width="270" height="234" viewBox="0 0 270 234" fill="none" xmlns="http://www.w3.org/2000/svg">
<path d="M133.578 4.33049C174.71 4.33049 208.054 28.4386 208.054 58.1768C208.054 59.2608 208.004 60.3338 207.916 61.3957C209.481 63.0991 211.013 64.8689 212.495 66.7162C213.104 63.8513 213.413 60.9145 213.413 57.928C213.413 26.0493 177.669 0 133.578 0C89.4882 0 53.7437 26.0493 53.7437 57.928C53.7437 59.5761 53.8432 61.2021 54.0313 62.8115C55.6904 60.9422 57.3939 59.1558 59.1194 57.4523C59.6559 28.0459 92.7845 4.33049 133.584 4.33049H133.578Z" fill="#8F3DC9"/>
<path d="M181.181 27.1556C175.905 22.9136 168.527 22.3771 162.764 25.9278C157.393 29.2406 151.498 34.2071 146.415 38.9026C139.165 45.6113 127.993 45.6113 120.742 38.9026C115.665 34.2071 109.769 29.2406 104.393 25.9278C98.6304 22.3771 91.2525 22.9136 85.9763 27.1556C68.9198 40.8716 24.6636 82.9819 34.121 144.477C37.8486 168.696 56.946 188.081 79.0907 196.885C95.7877 203.522 113.884 204.606 131.659 204.59C146.935 204.579 162.095 204.44 176.966 200.514C195.721 195.564 212.893 185.022 223.518 168.513C228.18 161.274 231.714 153.016 233.031 144.472C242.494 82.9763 198.237 40.866 181.175 27.15L181.181 27.1556Z" fill="#DBB2F4"/>
<path d="M167.774 142.84C177.652 129.013 194.449 123.665 207.39 129.439C203.701 99.4576 172.06 74.0332 133.578 74.0332C95.096 74.0332 63.4331 99.4742 59.7607 129.472C72.7135 123.649 89.5543 128.986 99.4542 142.84C108.746 155.848 108.956 172.208 100.909 182.744C110.532 185.658 121.35 187.19 132.837 187.19C144.324 187.19 156.027 185.548 166.076 182.428C158.278 171.887 158.571 155.721 167.769 142.845L167.774 142.84Z" fill="#FFF5F6"/>
<path d="M99.4543 142.839C89.5545 128.985 72.7136 123.642 59.7609 129.471C59.5231 131.396 59.4014 133.332 59.4014 135.29C59.4014 158.64 76.2145 175.26 100.909 182.743C108.95 172.212 108.746 155.847 99.4543 142.839Z" fill="#FFE9FE"/>
<path d="M207.756 135.284C207.756 133.321 207.634 131.369 207.391 129.433C194.444 123.664 177.653 129.007 167.775 142.834C158.577 155.715 158.279 171.881 166.082 182.417C190.655 174.79 207.756 158.308 207.756 135.279V135.284Z" fill="#FFE9FE"/>
<path d="M122.611 117.098C122.948 113.666 120.925 110.658 118.092 110.38C115.259 110.102 112.689 112.658 112.352 116.09C112.014 119.522 114.038 122.53 116.871 122.809C119.704 123.087 122.274 120.53 122.611 117.098Z" fill="#3A1221"/>
<path d="M150.952 122.753C153.785 122.474 155.808 119.467 155.471 116.035C155.134 112.603 152.564 110.046 149.731 110.324C146.898 110.603 144.874 113.61 145.211 117.042C145.549 120.474 148.119 123.031 150.952 122.753Z" fill="#3A1221"/>
<path d="M134.226 124.699C135.237 124.699 136.056 124.117 136.056 123.399C136.056 122.682 135.237 122.1 134.226 122.1C133.215 122.1 132.395 122.682 132.395 123.399C132.395 124.117 133.215 124.699 134.226 124.699Z" fill="#3A1221"/>
<path d="M134.226 148.598C108.442 148.127 117.429 132.332 117.429 132.332C119.121 132.47 121.118 132.487 123.314 132.21C129.231 131.458 130.033 129.39 134.557 129.39C139.38 129.39 140.354 131.735 146.426 132.354C148.45 132.564 150.276 132.498 151.813 132.332C158.301 149.853 134.226 148.598 134.226 148.598Z" fill="#7C3844"/>
<path d="M134.419 139.002C127.212 139.002 120.813 140.174 116.787 141.983C118.502 145.368 123.164 148.393 134.225 148.598C134.225 148.598 148.162 149.322 151.968 141.95C147.936 140.158 141.575 139.002 134.413 139.002H134.419Z" fill="#FFB0BF"/>
<path d="M66.4032 43.8191C49.2858 36.2808 28.3966 46.0977 19.7467 65.7426C11.0967 85.3874 17.9547 107.427 35.0721 114.965C40.199 117.222 51.3709 103.13 60.0208 83.4849C68.6707 63.84 71.5301 46.0811 66.4032 43.8246V43.8191Z" fill="#F6E9FF"/>
<path d="M49.5902 62.5399C63.8241 62.5399 75.3629 60.7224 75.3629 58.4804C75.3629 56.2384 63.8241 54.4209 49.5902 54.4209C35.3562 54.4209 23.8174 56.2384 23.8174 58.4804C23.8174 60.7224 35.3562 62.5399 49.5902 62.5399Z" fill="#D4B3FF"/>
<path d="M49.5902 62.5409C35.3543 62.5409 23.8174 60.7213 23.8174 58.4814C23.8174 58.4648 23.8229 58.4482 23.8229 58.4316C22.2688 60.6826 20.8917 63.1216 19.7413 65.7432C11.0914 85.388 17.9494 107.428 35.0667 114.966C40.1936 117.222 51.3655 103.13 60.0154 83.4855C63.5274 75.5047 66.0881 67.8393 67.5427 61.3961C62.9025 62.104 56.5698 62.5464 49.5902 62.5464V62.5409Z" fill="#BE94FF"/>
<path d="M34.895 28.1455L40.8847 45.1688" stroke="#391020" stroke-width="1.65919" stroke-miterlimit="10"/>
<path d="M32.4509 28.6147C36.101 28.6147 39.06 25.6557 39.06 22.0056C39.06 18.3555 36.101 15.3965 32.4509 15.3965C28.8008 15.3965 25.8418 18.3555 25.8418 22.0056C25.8418 25.6557 28.8008 28.6147 32.4509 28.6147Z" fill="#CC9EE8"/>
<path d="M72.7583 45.6553C70.4465 44.6377 68.0683 43.9408 65.6625 43.5205C65.9058 43.6201 66.1547 43.7141 66.398 43.8192C71.5249 46.0757 68.6656 63.8346 60.0156 83.4794C51.3657 103.124 40.1938 117.222 35.0669 114.96C34.8236 114.855 34.5913 114.733 34.3535 114.617C36.2837 116.11 38.4075 117.393 40.7193 118.411C45.9623 120.723 57.3886 106.304 66.2376 86.2116C75.0866 66.1187 78.0069 47.9616 72.7638 45.6498L72.7583 45.6553Z" fill="#8F3DC9"/>
<g style="mix-blend-mode:multiply">
<path d="M18.8619 77.8104L27.4952 68.0709C27.628 67.9216 27.8658 68.0654 27.7994 68.2479L23.6404 79.8457C23.2256 81.0071 23.8284 82.2902 24.9898 82.705L25.0286 82.7161C26.19 83.1309 27.4731 82.528 27.8879 81.3666L35.8797 59.0781C36.3 57.9111 35.6916 56.6336 34.5302 56.2188L34.4805 56.2022C33.5568 55.8703 32.5779 56.2022 31.9972 56.9322C31.9917 56.9322 31.964 56.9322 31.964 56.9322L31.2727 57.7508L17.9936 72.5618C17.8111 72.7609 17.4792 72.6392 17.4682 72.3738V72.2632C16.8764 74.4644 16.4616 76.6656 16.2349 78.8557C17.2138 78.9387 18.1927 78.5736 18.8619 77.8159V77.8104Z" fill="#D9B3F4"/>
</g>
<path d="M200.007 43.8191C217.125 36.2808 238.014 46.0977 246.664 65.7426C255.314 85.3874 248.456 107.427 231.338 114.965C226.211 117.222 215.04 103.13 206.39 83.4849C197.74 63.84 194.88 46.0811 200.007 43.8246V43.8191Z" fill="#F6E9FF"/>
<path d="M216.82 62.5399C231.054 62.5399 242.593 60.7224 242.593 58.4804C242.593 56.2384 231.054 54.4209 216.82 54.4209C202.586 54.4209 191.047 56.2384 191.047 58.4804C191.047 60.7224 202.586 62.5399 216.82 62.5399Z" fill="#D4B3FF"/>
<path d="M216.82 62.5409C231.056 62.5409 242.593 60.7213 242.593 58.4814C242.593 58.4648 242.587 58.4482 242.587 58.4316C244.142 60.6826 245.519 63.1216 246.669 65.7432C255.319 85.388 248.461 107.428 231.344 114.966C226.217 117.222 215.045 103.13 206.395 83.4855C202.883 75.5047 200.322 67.8393 198.868 61.3961C203.508 62.104 209.84 62.5464 216.82 62.5464V62.5409Z" fill="#BE94FF"/>
<path d="M231.515 28.1455L225.525 45.1688" stroke="#391020" stroke-width="1.65919" stroke-miterlimit="10"/>
<path d="M233.96 28.6147C237.61 28.6147 240.569 25.6557 240.569 22.0056C240.569 18.3555 237.61 15.3965 233.96 15.3965C230.31 15.3965 227.351 18.3555 227.351 22.0056C227.351 25.6557 230.31 28.6147 233.96 28.6147Z" fill="#CC9EE8"/>
<path d="M193.652 45.6553C195.964 44.6377 198.342 43.9408 200.748 43.5205C200.505 43.6201 200.256 43.7141 200.013 43.8192C194.886 46.0757 197.745 63.8346 206.395 83.4794C215.045 103.124 226.217 117.222 231.344 114.96C231.587 114.855 231.819 114.733 232.057 114.617C230.127 116.11 228.003 117.393 225.691 118.411C220.448 120.723 209.022 106.304 200.173 86.2116C191.324 66.1187 188.404 47.9616 193.647 45.6498L193.652 45.6553Z" fill="#8F3DC9"/>
<g style="mix-blend-mode:multiply">
<path d="M247.548 77.8104L238.915 68.0709C238.782 67.9216 238.545 68.0654 238.611 68.2479L242.77 79.8457C243.185 81.0071 242.582 82.2902 241.42 82.705L241.382 82.7161C240.22 83.1309 238.937 82.528 238.522 81.3666L230.531 59.0781C230.11 57.9111 230.719 56.6336 231.88 56.2188L231.93 56.2022C232.854 55.8703 233.832 56.2022 234.413 56.9322C234.419 56.9322 234.446 56.9322 234.446 56.9322L235.138 57.7508L248.417 72.5618C248.599 72.7609 248.931 72.6392 248.942 72.3738V72.2632C249.534 74.4644 249.949 76.6656 250.176 78.8557C249.197 78.9387 248.218 78.5736 247.548 77.8159V77.8104Z" fill="#D9B3F4"/>
</g>
<path d="M143.86 132.105L144.927 135.335C145.204 136.165 146.315 136.309 146.791 135.579L148.699 132.653L143.865 132.105H143.86Z" fill="white"/>
<path d="M154.545 131.89C153.793 132.05 152.869 132.216 151.813 132.332C150.275 132.498 148.45 132.564 146.426 132.354C140.354 131.735 139.38 129.39 134.557 129.39C130.033 129.39 129.231 131.458 123.314 132.21C121.118 132.487 119.121 132.47 117.429 132.332C116.201 132.227 115.128 132.061 114.254 131.89" stroke="#391020" stroke-width="1.10613" stroke-linecap="round" stroke-linejoin="round"/>
<path d="M78.0895 224.65C77.1825 230.092 83.0892 233.239 94.3275 233.239C105.566 233.239 114.619 230.739 114.619 224.65C114.619 219.13 112.142 211.918 100.903 211.918C89.6652 211.918 79.1791 218.09 78.0895 224.65Z" fill="#8F3DC9"/>
<path d="M188.874 224.65C189.781 230.092 183.874 233.239 172.636 233.239C161.397 233.239 152.344 230.739 152.344 224.65C152.344 219.13 154.822 211.918 166.06 211.918C177.298 211.918 187.784 218.09 188.874 224.65Z" fill="#8F3DC9"/>
<path d="M27.462 199.28C33.4183 199.28 38.2468 194.036 38.2468 187.566C38.2468 181.097 33.4183 175.853 27.462 175.853C21.5057 175.853 16.6772 181.097 16.6772 187.566C16.6772 194.036 21.5057 199.28 27.462 199.28Z" fill="#8F3DC9"/>
<path d="M249.896 191.069C251.926 184.926 248.987 178.431 243.332 176.562C237.677 174.693 231.446 178.157 229.416 184.3C227.386 190.442 230.324 196.937 235.98 198.806C241.635 200.676 247.865 197.211 249.896 191.069Z" fill="#8F3DC9"/>
</svg>
