<svg width="270" height="234" viewBox="0 0 270 234" fill="none" xmlns="http://www.w3.org/2000/svg">
<path d="M133.582 4.33049C174.713 4.33049 208.058 28.4386 208.058 58.1768C208.058 59.2608 208.008 60.3338 207.919 61.3957C209.484 63.0991 211.016 64.8689 212.499 66.7162C213.107 63.8513 213.417 60.9145 213.417 57.928C213.417 26.0493 177.672 0 133.582 0C89.4916 0 53.7471 26.0493 53.7471 57.928C53.7471 59.5761 53.8466 61.2021 54.0346 62.8115C55.6938 60.9422 57.3973 59.1558 59.1228 57.4523C59.6593 28.0459 92.7879 4.33049 133.587 4.33049H133.582Z" fill="#8F3DC9"/>
<path d="M181.179 27.1556C175.903 22.9136 168.525 22.3771 162.762 25.9278C157.392 29.2406 151.496 34.2071 146.413 38.9026C139.163 45.6113 127.991 45.6113 120.74 38.9026C115.663 34.2071 109.767 29.2406 104.391 25.9278C98.6285 22.3771 91.2506 22.9136 85.9743 27.1556C68.9178 40.8716 24.6616 82.9819 34.119 144.477C37.8467 168.696 56.944 188.081 79.0887 196.885C95.7857 203.522 113.882 204.606 131.657 204.59C146.933 204.579 162.093 204.44 176.964 200.514C195.719 195.564 212.892 185.022 223.516 168.513C228.178 161.274 231.712 153.016 233.029 144.472C242.492 82.9763 198.235 40.866 181.173 27.15L181.179 27.1556Z" fill="#DBB2F4"/>
<path d="M167.772 142.84C177.65 129.013 194.447 123.665 207.388 129.439C203.699 99.4576 172.058 74.0332 133.576 74.0332C95.094 74.0332 63.4311 99.4742 59.7588 129.472C72.7116 123.649 89.5523 128.986 99.4522 142.84C108.744 155.848 108.954 172.208 100.907 182.744C110.53 185.658 121.348 187.19 132.835 187.19C144.322 187.19 156.025 185.548 166.074 182.428C158.276 171.887 158.569 155.721 167.767 142.845L167.772 142.84Z" fill="#FFF5F6"/>
<path d="M99.4577 142.839C89.5578 128.985 72.7171 123.642 59.7643 129.471C59.5265 131.396 59.4048 133.332 59.4048 135.29C59.4048 158.64 76.2179 175.26 100.912 182.743C108.954 172.212 108.749 155.847 99.4577 142.839Z" fill="#FFE9FE"/>
<path d="M207.753 135.284C207.753 133.321 207.631 131.369 207.388 129.433C194.441 123.664 177.65 129.007 167.772 142.834C158.574 155.715 158.276 171.881 166.079 182.417C190.652 174.79 207.753 158.308 207.753 135.279V135.284Z" fill="#FFE9FE"/>
<path d="M66.4008 43.8191C49.2834 36.2808 28.3942 46.0977 19.7442 65.7426C11.0943 85.3874 17.9523 107.427 35.0696 114.965C40.1966 117.222 51.3684 103.13 60.0184 83.4849C68.6683 63.84 71.5277 46.0811 66.4008 43.8246V43.8191Z" fill="#F6E9FF"/>
<path d="M41.7728 87.2128C27.5701 87.2128 16.0498 85.4043 16 83.1699C15.9834 96.7587 22.681 109.114 34.3452 114.623C36.2754 116.116 38.3991 117.399 40.7109 118.417C45.954 120.729 57.3803 106.31 66.2293 86.2173C66.5999 85.3711 66.9593 84.536 67.3078 83.6953C65.6265 85.6808 54.8362 87.2128 41.7673 87.2128H41.7728Z" fill="#BE94FF"/>
<path d="M41.7728 87.2127C56.0067 87.2127 67.5456 85.3952 67.5456 83.1532C67.5456 80.9112 56.0067 79.0938 41.7728 79.0938C27.5389 79.0938 16 80.9112 16 83.1532C16 85.3952 27.5389 87.2127 41.7728 87.2127Z" fill="#D4B3FF"/>
<path d="M34.8926 28.1455L40.8823 45.1688" stroke="#391020" stroke-width="1.65919" stroke-miterlimit="10"/>
<path d="M32.4485 28.6147C36.0986 28.6147 39.0576 25.6557 39.0576 22.0056C39.0576 18.3555 36.0986 15.3965 32.4485 15.3965C28.7984 15.3965 25.8394 18.3555 25.8394 22.0056C25.8394 25.6557 28.7984 28.6147 32.4485 28.6147Z" fill="#CC9EE8"/>
<path d="M72.7612 45.6553C70.4494 44.6377 68.0712 43.9408 65.6654 43.5205C65.9088 43.6201 66.1576 43.7141 66.401 43.8192C71.5279 46.0757 68.6685 63.8346 60.0186 83.4794C51.3687 103.124 40.1968 117.222 35.0699 114.96C34.8265 114.855 34.5943 114.733 34.3564 114.617C36.2866 116.11 38.4104 117.393 40.7222 118.411C45.9652 120.723 57.3916 106.304 66.2406 86.2116C75.0896 66.1187 78.0098 47.9616 72.7667 45.6498L72.7612 45.6553Z" fill="#8F3DC9"/>
<g style="mix-blend-mode:multiply">
<path d="M18.8595 77.8104L27.4928 68.0709C27.6255 67.9216 27.8634 68.0654 27.797 68.2479L23.638 79.8457C23.2232 81.0071 23.826 82.2902 24.9874 82.705L25.0262 82.7161C26.1876 83.1309 27.4707 82.528 27.8855 81.3666L35.8773 59.0781C36.2976 57.9111 35.6892 56.6336 34.5278 56.2188L34.478 56.2022C33.5544 55.8703 32.5755 56.2022 31.9948 56.9322C31.9892 56.9322 31.9616 56.9322 31.9616 56.9322L31.2702 57.7508L17.9912 72.5618C17.8087 72.7609 17.4768 72.6392 17.4657 72.3738V72.2632C16.874 74.4644 16.4592 76.6656 16.2324 78.8557C17.2113 78.9387 18.1903 78.5736 18.8595 77.8159V77.8104Z" fill="#D9B3F4"/>
</g>
<path d="M200.01 43.8191C217.128 36.2808 238.017 46.0977 246.667 65.7426C255.317 85.3874 248.459 107.427 231.341 114.965C226.214 117.222 215.043 103.13 206.393 83.4849C197.743 63.84 194.883 46.0811 200.01 43.8246V43.8191Z" fill="#F6E9FF"/>
<path d="M224.633 87.2128C238.835 87.2128 250.356 85.4043 250.405 83.1699C250.422 96.7587 243.724 109.114 232.06 114.623C230.13 116.116 228.006 117.399 225.694 118.417C220.451 120.729 209.025 106.31 200.176 86.2173C199.806 85.3711 199.446 84.536 199.098 83.6953C200.779 85.6808 211.569 87.2128 224.638 87.2128H224.633Z" fill="#BE94FF"/>
<path d="M224.633 87.2127C238.867 87.2127 250.405 85.3952 250.405 83.1532C250.405 80.9112 238.867 79.0938 224.633 79.0938C210.399 79.0938 198.86 80.9112 198.86 83.1532C198.86 85.3952 210.399 87.2127 224.633 87.2127Z" fill="#D4B3FF"/>
<path d="M231.512 28.1455L225.528 45.1688" stroke="#391020" stroke-width="1.65919" stroke-miterlimit="10"/>
<path d="M233.957 28.6147C237.607 28.6147 240.566 25.6557 240.566 22.0056C240.566 18.3555 237.607 15.3965 233.957 15.3965C230.307 15.3965 227.348 18.3555 227.348 22.0056C227.348 25.6557 230.307 28.6147 233.957 28.6147Z" fill="#CC9EE8"/>
<path d="M193.65 45.6553C195.961 44.6377 198.34 43.9408 200.745 43.5205C200.502 43.6201 200.253 43.7141 200.01 43.8192C194.883 46.0757 197.742 63.8346 206.392 83.4794C215.042 103.124 226.214 117.222 231.341 114.96C231.584 114.855 231.817 114.733 232.054 114.617C230.124 116.11 228 117.393 225.689 118.411C220.446 120.723 209.019 106.304 200.17 86.2116C191.321 66.1187 188.401 47.9616 193.644 45.6498L193.65 45.6553Z" fill="#8F3DC9"/>
<g style="mix-blend-mode:multiply">
<path d="M247.546 77.8104L238.913 68.0709C238.78 67.9216 238.543 68.0654 238.609 68.2479L242.768 79.8457C243.183 81.0071 242.58 82.2902 241.419 82.705L241.38 82.7161C240.218 83.1309 238.935 82.528 238.52 81.3666L230.529 59.0781C230.108 57.9111 230.717 56.6336 231.878 56.2188L231.928 56.2022C232.852 55.8703 233.83 56.2022 234.411 56.9322C234.417 56.9322 234.444 56.9322 234.444 56.9322L235.136 57.7508L248.415 72.5618C248.597 72.7609 248.929 72.6392 248.94 72.3738V72.2632C249.532 74.4644 249.947 76.6656 250.174 78.8557C249.195 78.9387 248.216 78.5736 247.546 77.8159V77.8104Z" fill="#D9B3F4"/>
</g>
<path d="M127.753 113.174C128.09 109.742 126.067 106.735 123.233 106.456C120.4 106.178 117.83 108.735 117.493 112.167C117.156 115.599 119.18 118.606 122.013 118.885C124.846 119.163 127.416 116.606 127.753 113.174Z" fill="#3A1221"/>
<path d="M156.12 118.845C158.953 118.567 160.977 115.559 160.64 112.127C160.303 108.695 157.733 106.139 154.899 106.417C152.066 106.695 150.043 109.703 150.38 113.135C150.717 116.567 153.287 119.124 156.12 118.845Z" fill="#3A1221"/>
<path d="M139.394 120.773C140.405 120.773 141.225 120.191 141.225 119.474C141.225 118.756 140.405 118.174 139.394 118.174C138.383 118.174 137.563 118.756 137.563 119.474C137.563 120.191 138.383 120.773 139.394 120.773Z" fill="#3A1221"/>
<path d="M148.631 126.126L150.345 129.063C150.787 129.815 151.905 129.727 152.214 128.914L153.47 125.656L148.625 126.132L148.631 126.126Z" fill="white"/>
<path d="M119.423 126.059C120.175 125.899 121.099 125.733 122.155 125.617C123.693 125.451 125.518 125.385 127.542 125.595C133.614 126.214 134.588 128.559 139.411 128.559C143.935 128.559 144.737 126.491 150.654 125.739C152.85 125.462 154.847 125.479 156.539 125.617C157.767 125.722 158.84 125.888 159.714 126.059" stroke="#391020" stroke-width="1.10613" stroke-linecap="round" stroke-linejoin="round"/>
<path d="M78.0929 221.374C77.1859 226.816 83.0927 229.963 94.3309 229.963C105.569 229.963 114.623 227.463 114.623 221.374C114.623 215.855 112.145 208.643 100.907 208.643C89.6686 208.643 79.1825 214.815 78.0929 221.374Z" fill="#8F3DC9"/>
<path d="M188.872 224.65C189.779 230.092 183.872 233.239 172.634 233.239C161.395 233.239 152.342 230.739 152.342 224.65C152.342 219.13 154.82 211.918 166.058 211.918C177.296 211.918 187.782 218.09 188.872 224.65Z" fill="#8F3DC9"/>
<path d="M241.042 195.707C244.632 190.324 243.525 183.282 238.569 179.977C233.614 176.673 226.687 178.357 223.098 183.739C219.508 189.121 220.615 196.163 225.571 199.468C230.526 202.773 237.453 201.089 241.042 195.707Z" fill="#8F3DC9"/>
<path d="M114.728 149.758C113.533 149.957 112.526 150.2 111.769 150.411C111.619 150.449 111.476 150.372 111.431 150.222C111.077 149.017 109.982 146.003 107.129 144.62C106.465 144.299 104.286 143.215 102.787 144.244C102.317 144.565 101.93 145.046 101.67 145.709C100.995 147.463 101.36 149.763 102.239 151.384C102.715 152.258 103.34 152.993 104.048 153.629C104.358 153.906 104.407 154.37 104.17 154.708C103.893 155.1 103.633 155.51 103.401 155.941C100.309 161.621 102.04 168.534 107.272 171.383C112.858 174.425 119.827 171.261 122.343 166.256C124.157 162.644 123.223 158.933 122.714 157.418C122.642 157.202 122.841 156.997 123.057 157.064C124.34 157.451 127.465 158.203 129.24 157.009C129.528 156.815 130.125 156.411 130.385 155.665C130.711 154.735 130.313 153.845 130.158 153.491C128.997 150.864 124.323 149.891 123.35 149.686C119.805 148.945 116.802 149.415 114.728 149.763V149.758Z" fill="#8F3DC9"/>
</svg>
