<svg width="270" height="234" viewBox="0 0 270 234" fill="none" xmlns="http://www.w3.org/2000/svg">
<g clip-path="url(#clip0_1020_2481)">
<path d="M133.573 4.33049C174.705 4.33049 208.049 28.4386 208.049 58.1768C208.049 59.2608 207.999 60.3338 207.911 61.3957C209.476 63.0991 211.008 64.8689 212.49 66.7162C213.098 63.8513 213.408 60.9145 213.408 57.928C213.408 26.0493 177.663 0 133.573 0C89.4828 0 53.7383 26.0493 53.7383 57.928C53.7383 59.5761 53.8378 61.2021 54.0259 62.8115C55.6851 60.9422 57.3885 59.1558 59.1141 57.4523C59.6505 28.0459 92.7791 4.33049 133.579 4.33049H133.573Z" fill="#8F3DC9"/>
<path d="M181.175 27.1556C175.899 22.9136 168.521 22.3771 162.758 25.9278C157.388 29.2406 151.492 34.2071 146.409 38.9026C139.159 45.6113 127.987 45.6113 120.736 38.9026C115.659 34.2071 109.763 29.2406 104.387 25.9278C98.6246 22.3771 91.2467 22.9136 85.9704 27.1556C68.9139 40.8716 24.6577 82.9819 34.1151 144.477C37.8428 168.696 56.9401 188.081 79.0848 196.885C95.7818 203.522 113.878 204.606 131.654 204.59C146.929 204.579 162.089 204.44 176.961 200.514C195.715 195.564 212.888 185.022 223.512 168.513C228.174 161.274 231.708 153.016 233.025 144.472C242.488 82.9763 198.231 40.866 181.169 27.15L181.175 27.1556Z" fill="#DBB2F4"/>
<path d="M167.769 142.84C177.647 129.013 194.444 123.665 207.385 129.439C203.696 99.4576 172.056 74.0332 133.573 74.0332C95.0911 74.0332 63.4282 99.4742 59.7559 129.472C72.7086 123.649 89.5494 128.986 99.4493 142.84C108.741 155.848 108.951 172.208 100.904 182.744C110.527 185.658 121.345 187.19 132.832 187.19C144.319 187.19 156.022 185.548 166.071 182.428C158.273 171.887 158.566 155.721 167.764 142.845L167.769 142.84Z" fill="#FFF5F6"/>
<path d="M99.4543 142.839C89.5544 128.985 72.7136 123.642 59.7609 129.471C59.523 131.396 59.4014 133.332 59.4014 135.29C59.4014 158.64 76.2145 175.26 100.909 182.743C108.95 172.212 108.746 155.847 99.4543 142.839Z" fill="#FFE9FE"/>
<path d="M207.75 135.284C207.75 133.321 207.628 131.369 207.385 129.433C194.438 123.664 177.647 129.007 167.769 142.834C158.571 155.715 158.273 171.881 166.077 182.417C190.649 174.79 207.75 158.308 207.75 135.279V135.284Z" fill="#FFE9FE"/>
<path d="M122.567 117.097C122.905 113.665 120.881 110.658 118.048 110.379C115.215 110.101 112.645 112.658 112.308 116.09C111.971 119.522 113.994 122.529 116.827 122.808C119.66 123.086 122.23 120.529 122.567 117.097Z" fill="#3A1221"/>
<path d="M150.953 122.79C153.786 122.511 155.81 119.504 155.473 116.072C155.136 112.64 152.566 110.083 149.732 110.361C146.899 110.64 144.876 113.647 145.213 117.079C145.55 120.511 148.12 123.068 150.953 122.79Z" fill="#3A1221"/>
<path d="M134.225 124.699C135.236 124.699 136.056 124.117 136.056 123.399C136.056 122.682 135.236 122.1 134.225 122.1C133.214 122.1 132.395 122.682 132.395 123.399C132.395 124.117 133.214 124.699 134.225 124.699Z" fill="#3A1221"/>
<path d="M191.407 203.295C194.006 208.167 189.41 213.029 178.753 216.618C168.101 220.202 158.721 220.722 156.779 214.954C155.021 209.722 155.065 202.095 165.722 198.511C176.374 194.927 188.276 197.432 191.407 203.301V203.295Z" fill="#8F3DC9"/>
<path d="M77.7189 224.65C76.8119 230.092 82.7186 233.239 93.9569 233.239C105.195 233.239 114.249 230.739 114.249 224.65C114.249 219.13 111.771 211.918 100.533 211.918C89.2946 211.918 78.8085 218.09 77.7189 224.65Z" fill="#8F3DC9"/>
<path d="M27.9156 194.137C33.8719 194.137 38.7004 188.892 38.7004 182.423C38.7004 175.953 33.8719 170.709 27.9156 170.709C21.9594 170.709 17.1309 175.953 17.1309 182.423C17.1309 188.892 21.9594 194.137 27.9156 194.137Z" fill="#8F3DC9"/>
<path opacity="0.3" d="M266.511 144.393C268.542 138.25 265.603 131.756 259.948 129.886C254.292 128.017 248.062 131.481 246.032 137.624C244.001 143.767 246.94 150.261 252.595 152.131C258.251 154 264.481 150.536 266.511 144.393Z" fill="#8F3DC9"/>
<path opacity="0.3" d="M267.753 117.46C269.783 111.318 266.844 104.823 261.189 102.954C255.534 101.085 249.303 104.549 247.273 110.691C245.243 116.834 248.181 123.329 253.837 125.198C259.492 127.067 265.722 123.603 267.753 117.46Z" fill="#8F3DC9"/>
<path d="M34.8896 28.1455L40.8793 45.1688" stroke="#391020" stroke-width="1.65919" stroke-miterlimit="10"/>
<path d="M32.4451 28.6147C36.0952 28.6147 39.0542 25.6557 39.0542 22.0056C39.0542 18.3555 36.0952 15.3965 32.4451 15.3965C28.7949 15.3965 25.8359 18.3555 25.8359 22.0056C25.8359 25.6557 28.7949 28.6147 32.4451 28.6147Z" fill="#CC9EE8"/>
<path d="M72.7583 45.6554C55.2539 37.9457 33.889 47.9838 25.04 68.0767C16.1909 88.1695 23.2093 110.707 40.7138 118.417C45.9568 120.728 57.3832 106.31 66.2322 86.2172C75.0812 66.1243 78.0014 47.9672 72.7583 45.6554Z" fill="#8F3DC9"/>
<path d="M66.3978 43.8191C49.2805 36.2808 28.3912 46.0977 19.7413 65.7426C11.0914 85.3874 17.9494 107.427 35.0667 114.965C40.1936 117.222 51.3655 103.13 60.0154 83.4849C68.6654 63.84 71.5247 46.0811 66.3978 43.8246V43.8191Z" fill="#F6E9FF"/>
<g style="mix-blend-mode:multiply">
<path d="M18.8565 77.8104L27.4899 68.0709C27.6226 67.9216 27.8604 68.0654 27.7941 68.2479L23.635 79.8457C23.2202 81.0071 23.8231 82.2902 24.9845 82.705L25.0232 82.7161C26.1846 83.1309 27.4678 82.528 27.8826 81.3666L35.8743 59.0781C36.2947 57.9111 35.6863 56.6336 34.5249 56.2188L34.4751 56.2022C33.5515 55.8703 32.5725 56.2022 31.9918 56.9322C31.9863 56.9322 31.9586 56.9322 31.9586 56.9322L31.2673 57.7508L17.9882 72.5618C17.8057 72.7609 17.4739 72.6392 17.4628 72.3738V72.2632C16.871 74.4644 16.4562 76.6656 16.2295 78.8557C17.2084 78.9387 18.1873 78.5736 18.8565 77.8159V77.8104Z" fill="#D9B3F4"/>
</g>
<path d="M231.51 28.1455L225.525 45.1688" stroke="#391020" stroke-width="1.65919" stroke-miterlimit="10"/>
<path d="M233.954 28.6147C237.604 28.6147 240.563 25.6557 240.563 22.0056C240.563 18.3555 237.604 15.3965 233.954 15.3965C230.304 15.3965 227.345 18.3555 227.345 22.0056C227.345 25.6557 230.304 28.6147 233.954 28.6147Z" fill="#CC9EE8"/>
<path d="M193.647 45.6554C211.151 37.9457 232.516 47.9838 241.365 68.0767C250.214 88.1695 243.196 110.707 225.692 118.417C220.448 120.728 209.022 106.31 200.173 86.2172C191.324 66.1243 188.404 47.9672 193.647 45.6554Z" fill="#8F3DC9"/>
<path d="M200.007 43.8191C217.125 36.2808 238.014 46.0977 246.664 65.7426C255.314 85.3874 248.456 107.427 231.338 114.965C226.211 117.222 215.04 103.13 206.39 83.4849C197.74 63.84 194.88 46.0811 200.007 43.8246V43.8191Z" fill="#F6E9FF"/>
<g style="mix-blend-mode:multiply">
<path d="M247.543 77.8104L238.909 68.0709C238.776 67.9216 238.539 68.0654 238.605 68.2479L242.764 79.8457C243.179 81.0071 242.576 82.2902 241.415 82.705L241.376 82.7161C240.214 83.1309 238.931 82.528 238.517 81.3666L230.525 59.0781C230.104 57.9111 230.713 56.6336 231.874 56.2188L231.924 56.2022C232.848 55.8703 233.827 56.2022 234.407 56.9322C234.413 56.9322 234.44 56.9322 234.44 56.9322L235.132 57.7508L248.411 72.5618C248.593 72.7609 248.925 72.6392 248.936 72.3738V72.2632C249.528 74.4644 249.943 76.6656 250.17 78.8557C249.191 78.9387 248.212 78.5736 247.543 77.8159V77.8104Z" fill="#D9B3F4"/>
</g>
<path d="M269.632 130.801C271.662 124.659 268.723 118.164 263.068 116.295C257.412 114.425 251.182 117.89 249.152 124.032C247.121 130.175 250.06 136.67 255.715 138.539C261.371 140.408 267.601 136.944 269.632 130.801Z" fill="#8F3DC9"/>
<path d="M143.854 132.105L144.922 135.335C145.198 136.165 146.31 136.309 146.786 135.579L148.694 132.653L143.86 132.105H143.854Z" fill="white"/>
<path d="M154.545 131.89C153.793 132.05 152.869 132.216 151.813 132.332C150.275 132.498 148.45 132.564 146.426 132.354C140.354 131.735 139.38 129.39 134.557 129.39C130.033 129.39 129.231 131.458 123.314 132.21C121.118 132.487 119.121 132.47 117.429 132.332C116.201 132.227 115.128 132.061 114.254 131.89" stroke="#391020" stroke-width="1.10613" stroke-linecap="round" stroke-linejoin="round"/>
</g>
<defs>
<clipPath id="clip0_1020_2481">
<rect width="270" height="234" fill="white"/>
</clipPath>
</defs>
</svg>
