<svg width="250" height="229" viewBox="0 0 250 229" fill="none" xmlns="http://www.w3.org/2000/svg">
<g clip-path="url(#clip0_583_8407)">
<path d="M115.659 4.7189C155.874 4.7189 188.475 28.2898 188.475 57.3654C188.475 58.4253 188.426 59.4743 188.34 60.5125C189.87 62.178 191.368 63.9084 192.817 65.7145C193.412 62.9134 193.715 60.0421 193.715 57.1221C193.72 25.9484 158.772 0.479492 115.659 0.479492C72.5455 0.479492 37.6028 25.9484 37.6028 57.1167C37.6028 58.7281 37.7001 60.3179 37.884 61.8914C39.5062 60.0637 41.1717 58.3171 42.8588 56.6516C43.3833 27.9005 75.7737 4.71349 115.664 4.71349L115.659 4.7189Z" fill="#8F3DC9"/>
<path d="M162.2 27.03C157.042 22.8826 149.828 22.358 144.194 25.8296C138.943 29.0686 133.179 33.9245 128.209 38.5154C121.12 45.0746 110.197 45.0746 103.108 38.5154C98.1441 33.9245 92.3798 29.0686 87.1238 25.8296C81.4893 22.358 74.2758 22.8826 69.1171 27.03C52.4406 40.4404 9.17056 81.6124 18.4172 141.737C22.0618 165.416 40.7336 184.369 62.3849 192.978C78.7098 199.467 96.4029 200.527 113.782 200.511C128.718 200.5 143.539 200.365 158.08 196.525C176.416 191.686 193.206 181.379 203.594 165.238C208.152 158.16 211.608 150.086 212.895 141.732C222.147 81.607 178.877 40.435 162.195 27.0246L162.2 27.03Z" fill="#DBB2F4"/>
<path d="M149.093 140.142C158.75 126.623 175.173 121.394 187.826 127.04C184.219 97.7263 153.284 72.8684 115.659 72.8684C78.034 72.8684 47.0766 97.7425 43.4861 127.072C56.1502 121.378 72.6158 126.596 82.2951 140.142C91.3795 152.86 91.585 168.855 83.7172 179.156C93.1261 182.006 103.703 183.504 114.934 183.504C126.165 183.504 137.607 181.898 147.433 178.848C139.808 168.542 140.095 152.736 149.087 140.147L149.093 140.142Z" fill="#FFF5F6"/>
<path d="M82.3003 140.142C72.6211 126.596 56.1555 121.373 43.4914 127.072C43.2589 128.954 43.1399 130.847 43.1399 132.761C43.1399 155.591 59.5784 171.84 83.7225 179.156C91.5849 168.861 91.3848 152.86 82.3003 140.142Z" fill="#FFE9FE"/>
<path d="M188.183 132.755C188.183 130.836 188.064 128.927 187.826 127.034C175.167 121.394 158.75 126.618 149.093 140.137C140.1 152.73 139.808 168.536 147.438 178.837C171.463 171.381 188.183 155.267 188.183 132.75V132.755Z" fill="#FFE9FE"/>
<path d="M104.9 114.969C105.23 111.614 103.252 108.673 100.482 108.401C97.7116 108.129 95.1989 110.628 94.8693 113.984C94.5397 117.339 96.518 120.28 99.288 120.552C102.058 120.824 104.571 118.325 104.9 114.969Z" fill="#3A1221"/>
<path d="M132.653 120.541C135.424 120.269 137.402 117.328 137.072 113.972C136.743 110.617 134.23 108.117 131.46 108.389C128.69 108.662 126.712 111.602 127.041 114.958C127.371 118.313 129.883 120.813 132.653 120.541Z" fill="#3A1221"/>
<path d="M116.297 122.406C117.285 122.406 118.087 121.837 118.087 121.135C118.087 120.433 117.285 119.864 116.297 119.864C115.308 119.864 114.507 120.433 114.507 121.135C114.507 121.837 115.308 122.406 116.297 122.406Z" fill="#3A1221"/>
<path d="M116.297 145.771C91.0875 145.312 99.8745 129.868 99.8745 129.868C101.529 130.003 103.481 130.019 105.628 129.749C111.414 129.014 112.198 126.991 116.621 126.991C121.336 126.991 122.288 129.284 128.226 129.89C130.205 130.095 131.989 130.03 133.492 129.868C139.835 146.999 116.297 145.771 116.297 145.771Z" fill="#7C3844"/>
<path d="M116.481 136.389C109.435 136.389 103.178 137.536 99.2417 139.304C100.918 142.613 105.476 145.571 116.291 145.771C116.291 145.771 129.918 146.48 133.638 139.272C129.696 137.52 123.478 136.389 116.475 136.389H116.481Z" fill="#FFB0BF"/>
<path d="M116.297 145.771C91.0875 145.312 99.8745 129.868 99.8745 129.868C101.529 130.003 103.481 130.019 105.628 129.749C111.414 129.014 112.198 126.991 116.621 126.991C121.336 126.991 122.288 129.284 128.226 129.89C130.205 130.095 131.989 130.03 133.492 129.868C139.835 146.999 116.297 145.771 116.297 145.771Z" stroke="#391020" stroke-width="1.08148" stroke-linecap="round" stroke-linejoin="round"/>
<path d="M172.831 218.36C174.144 223.598 168.634 227.122 157.674 228.006C146.721 228.886 137.7 227.16 137.223 221.229C136.792 215.849 138.638 208.624 149.596 207.746C160.549 206.866 171.248 212.058 172.829 218.365L172.831 218.36Z" fill="#8F3DC9"/>
<path d="M58.5567 220.123C57.6699 225.444 63.445 228.521 74.4329 228.521C85.4208 228.521 94.2727 226.076 94.2727 220.123C94.2727 214.726 91.8502 207.675 80.8623 207.675C69.8745 207.675 59.622 213.71 58.5567 220.123Z" fill="#8F3DC9"/>
<path d="M12.3552 190.296C18.1788 190.296 22.8997 185.168 22.8997 178.843C22.8997 172.518 18.1788 167.39 12.3552 167.39C6.5317 167.39 1.81079 172.518 1.81079 178.843C1.81079 185.168 6.5317 190.296 12.3552 190.296Z" fill="#8F3DC9"/>
<path d="M19.1746 28.0034L25.0308 44.6474" stroke="#8F3DC9" stroke-width="1.62222" stroke-miterlimit="10"/>
<path d="M16.7841 28.4628C20.3529 28.4628 23.246 25.5697 23.246 22.0009C23.246 18.4321 20.3529 15.5391 16.7841 15.5391C13.2153 15.5391 10.3223 18.4321 10.3223 22.0009C10.3223 25.5697 13.2153 28.4628 16.7841 28.4628Z" fill="#D9B3F4"/>
<path d="M56.1987 45.123C39.0842 37.585 18.1954 47.3995 9.54354 67.0446C0.891689 86.6897 7.75369 108.725 24.8681 116.263C29.9944 118.523 41.1661 104.426 49.8179 84.7809C58.4698 65.1358 61.3249 47.3832 56.1987 45.123Z" fill="#8F3DC9"/>
<path d="M49.9806 43.3277C33.2447 35.9574 12.8209 45.5556 4.36374 64.7627C-4.09344 83.9698 2.61174 105.518 19.3477 112.889C24.3603 115.095 35.2833 101.317 43.7405 82.1097C52.1977 62.9025 54.9933 45.5393 49.9806 43.3331V43.3277Z" fill="#F6E9FF"/>
<path d="M3.49845 76.5619L11.9394 67.0394C12.0692 66.8934 12.3017 67.034 12.2368 67.2125L8.17045 78.5518C7.7649 79.6874 8.3543 80.9419 9.48986 81.3475L9.52771 81.3583C10.6633 81.7638 11.9178 81.1744 12.3233 80.0389L20.137 58.247C20.548 57.106 19.9532 55.8569 18.8176 55.4514L18.769 55.4351C17.8659 55.1107 16.9088 55.4351 16.341 56.1489C16.3356 56.1489 16.3086 56.1489 16.3086 56.1489L15.6327 56.9492L2.64949 71.4303C2.47104 71.6249 2.1466 71.506 2.13578 71.2464V71.1383C1.55719 73.2904 1.15164 75.4426 0.929932 77.5839C1.88704 77.665 2.84415 77.3081 3.49845 76.5673V76.5619Z" fill="#D9B3F4"/>
<path d="M211.413 28.0034L205.562 44.6474" stroke="#8F3DC9" stroke-width="1.62222" stroke-miterlimit="10"/>
<path d="M213.803 28.4628C217.372 28.4628 220.265 25.5697 220.265 22.0009C220.265 18.4321 217.372 15.5391 213.803 15.5391C210.234 15.5391 207.341 18.4321 207.341 22.0009C207.341 25.5697 210.234 28.4628 213.803 28.4628Z" fill="#D9B3F4"/>
<path d="M174.394 45.123C191.509 37.585 212.397 47.3995 221.049 67.0446C229.701 86.6897 222.839 108.725 205.725 116.263C200.598 118.523 189.427 104.426 180.775 84.7809C172.123 65.1358 169.268 47.3832 174.394 45.123Z" fill="#8F3DC9"/>
<path d="M180.613 43.3277C197.349 35.9574 217.772 45.5556 226.23 64.7627C234.687 83.9698 227.982 105.518 211.246 112.889C206.233 115.095 195.31 101.317 186.853 82.1097C178.396 62.9025 175.6 45.5393 180.613 43.3331V43.3277Z" fill="#F6E9FF"/>
<path d="M227.089 76.5619L218.648 67.0394C218.518 66.8934 218.286 67.034 218.351 67.2125L222.417 78.5518C222.823 79.6874 222.233 80.9419 221.098 81.3475L221.06 81.3583C219.924 81.7638 218.67 81.1744 218.264 80.0389L210.451 58.247C210.04 57.106 210.634 55.8569 211.77 55.4514L211.819 55.4351C212.722 55.1107 213.679 55.4351 214.247 56.1489C214.252 56.1489 214.279 56.1489 214.279 56.1489L214.955 56.9492L227.938 71.4303C228.117 71.6249 228.441 71.506 228.452 71.2464V71.1383C229.03 73.2904 229.436 75.4426 229.658 77.5839C228.701 77.665 227.743 77.3081 227.089 76.5673V76.5619Z" fill="#D9B3F4"/>
<path d="M233.252 174.9C235.237 168.895 232.364 162.545 226.834 160.717C221.305 158.889 215.214 162.276 213.228 168.282C211.243 174.288 214.117 180.638 219.646 182.466C225.175 184.293 231.267 180.906 233.252 174.9Z" fill="#8F3DC9"/>
<path d="M125.711 129.646L126.755 132.804C127.025 133.615 128.112 133.756 128.577 133.042L130.443 130.182L125.717 129.646H125.711Z" fill="white"/>
<path d="M136.163 129.435C135.428 129.592 134.525 129.754 133.492 129.868C131.989 130.03 130.205 130.095 128.225 129.89C122.288 129.284 121.336 126.991 116.621 126.991C112.198 126.991 111.414 129.014 105.628 129.749C103.481 130.019 101.529 130.003 99.8744 129.868C98.6739 129.765 97.6249 129.603 96.7705 129.435" stroke="#391020" stroke-width="1.08148" stroke-linecap="round" stroke-linejoin="round"/>
</g>
<defs>
<clipPath id="clip0_583_8407">
<rect width="248.595" height="228.041" fill="white" transform="translate(0.702637 0.479492)"/>
</clipPath>
</defs>
</svg>
