<svg width="270" height="234" viewBox="0 0 270 234" fill="none" xmlns="http://www.w3.org/2000/svg">
<path d="M133.333 4.33049C174.464 4.33049 207.809 28.4386 207.809 58.1768C207.809 59.2608 207.759 60.3338 207.67 61.3957C209.235 63.0991 210.767 64.8689 212.25 66.7162C212.858 63.8513 213.168 60.9145 213.168 57.928C213.168 26.0493 177.423 0 133.333 0C89.2426 0 53.498 26.0493 53.498 57.928C53.498 59.5761 53.5976 61.2021 53.7857 62.8115C55.4448 60.9422 57.1483 59.1558 58.8739 57.4523C59.4104 28.0459 92.5389 4.33049 133.338 4.33049H133.333Z" fill="#8F3DC9"/>
<path d="M180.93 27.1556C175.654 22.9136 168.276 22.3771 162.513 25.9278C157.142 29.2406 151.247 34.2071 146.164 38.9026C138.914 45.6113 127.742 45.6113 120.491 38.9026C115.414 34.2071 109.518 29.2406 104.142 25.9278C98.3795 22.3771 91.0016 22.9136 85.7253 27.1556C68.6688 40.8716 24.4126 82.9819 33.87 144.477C37.5977 168.696 56.695 188.081 78.8397 196.885C95.5367 203.522 113.633 204.606 131.408 204.59C146.684 204.579 161.844 204.44 176.715 200.514C195.47 195.564 212.642 185.022 223.267 168.513C227.929 161.274 231.463 153.016 232.78 144.472C242.243 82.9763 197.986 40.866 180.924 27.15L180.93 27.1556Z" fill="#DBB2F4"/>
<path d="M167.523 142.84C177.401 129.013 194.198 123.665 207.139 129.439C203.45 99.4576 171.81 74.0332 133.327 74.0332C94.8451 74.0332 63.1821 99.4742 59.5098 129.472C72.4625 123.649 89.3033 128.986 99.2032 142.84C108.495 155.848 108.705 172.208 100.658 182.744C110.281 185.658 121.099 187.19 132.586 187.19C144.073 187.19 155.776 185.548 165.825 182.428C158.027 171.887 158.32 155.721 167.518 142.845L167.523 142.84Z" fill="#FFF5F6"/>
<path d="M99.2092 142.839C89.3093 128.985 72.4685 123.642 59.5158 129.471C59.2779 131.396 59.1562 133.332 59.1562 135.29C59.1562 158.64 75.9694 175.26 100.664 182.743C108.705 172.212 108.501 155.847 99.2092 142.839Z" fill="#FFE9FE"/>
<path d="M207.504 135.284C207.504 133.321 207.382 131.369 207.139 129.433C194.192 123.664 177.401 129.007 167.523 142.834C158.325 155.715 158.027 171.881 165.83 182.417C190.403 174.79 207.504 158.308 207.504 135.279V135.284Z" fill="#FFE9FE"/>
<path d="M122.379 117.101C122.716 113.669 120.693 110.661 117.859 110.383C115.026 110.105 112.456 112.661 112.119 116.093C111.782 119.525 113.806 122.533 116.639 122.812C119.472 123.09 122.042 120.533 122.379 117.101Z" fill="#3A1221"/>
<path d="M150.704 122.733C153.537 122.455 155.561 119.447 155.224 116.015C154.887 112.583 152.317 110.026 149.483 110.305C146.65 110.583 144.627 113.591 144.964 117.023C145.301 120.455 147.871 123.011 150.704 122.733Z" fill="#3A1221"/>
<path d="M133.98 124.699C134.991 124.699 135.811 124.117 135.811 123.399C135.811 122.682 134.991 122.1 133.98 122.1C132.969 122.1 132.149 122.682 132.149 123.399C132.149 124.117 132.969 124.699 133.98 124.699Z" fill="#3A1221"/>
<path d="M133.98 148.598C108.196 148.127 117.183 132.332 117.183 132.332C118.876 132.47 120.872 132.487 123.068 132.21C128.986 131.458 129.788 129.39 134.312 129.39C139.135 129.39 140.108 131.735 146.181 132.354C148.205 132.564 150.03 132.498 151.567 132.332C158.055 149.853 133.98 148.598 133.98 148.598Z" fill="#7C3844"/>
<path d="M134.168 139.002C126.961 139.002 120.562 140.174 116.536 141.983C118.251 145.368 122.913 148.393 133.974 148.598C133.974 148.598 147.912 149.322 151.717 141.95C147.685 140.158 141.325 139.002 134.162 139.002H134.168Z" fill="#FFB0BF"/>
<path d="M77.9377 224.65C77.0307 230.092 82.9374 233.239 94.1756 233.239C105.414 233.239 114.468 230.739 114.468 224.65C114.468 219.13 111.99 211.918 100.752 211.918C89.5133 211.918 79.0272 218.09 77.9377 224.65Z" fill="#8F3DC9"/>
<path d="M188.722 224.65C189.629 230.092 183.723 233.239 172.484 233.239C161.246 233.239 152.192 230.739 152.192 224.65C152.192 219.13 154.67 211.918 165.908 211.918C177.147 211.918 187.633 218.09 188.722 224.65Z" fill="#8F3DC9"/>
<path d="M10.7848 144.283C16.741 144.283 21.5695 139.039 21.5695 132.569C21.5695 126.1 16.741 120.855 10.7848 120.855C4.8285 120.855 0 126.1 0 132.569C0 139.039 4.8285 144.283 10.7848 144.283Z" fill="#8F3DC9"/>
<path d="M66.1522 43.8191C49.0349 36.2808 28.1456 46.0977 19.4957 65.7426C10.8458 85.3874 17.7037 107.427 34.8211 114.965C39.948 117.222 51.12 103.13 59.7699 83.4849C68.4198 63.84 71.2791 46.0811 66.1522 43.8246V43.8191Z" fill="#BE94FF"/>
<path d="M34.6445 28.1455L40.6342 45.1688" stroke="#BE94FF" stroke-width="1.65919" stroke-miterlimit="10"/>
<path d="M32.1994 28.6147C35.8495 28.6147 38.8086 25.6557 38.8086 22.0056C38.8086 18.3555 35.8495 15.3965 32.1994 15.3965C28.5493 15.3965 25.5903 18.3555 25.5903 22.0056C25.5903 25.6557 28.5493 28.6147 32.1994 28.6147Z" fill="#8F3DC9"/>
<path d="M68.2318 43.8191C51.1144 36.2808 30.2252 46.0977 21.5753 65.7426C12.9254 85.3874 19.7833 107.427 36.9007 114.965C42.0276 117.222 53.1995 103.13 61.8495 83.4849C70.4994 63.84 73.3587 46.0811 68.2318 43.8246V43.8191Z" fill="url(#paint0_linear_1020_2647)"/>
<path d="M72.5122 45.6553C70.2004 44.6377 67.8222 43.9408 65.4164 43.5205C65.6597 43.6201 65.9086 43.7141 66.1519 43.8192C71.2788 46.0757 68.4195 63.8346 59.7696 83.4794C51.1197 103.124 39.9477 117.222 34.8208 114.96C34.5775 114.855 34.3452 114.733 34.1074 114.617C36.0376 116.11 38.1614 117.393 40.4732 118.411C45.7162 120.723 57.1426 106.304 65.9916 86.2116C74.8406 66.1187 77.7608 47.9616 72.5177 45.6498L72.5122 45.6553Z" fill="#8F3DC9"/>
<g style="mix-blend-mode:screen">
<path d="M18.6105 77.8104L27.2438 68.0709C27.3765 67.9216 27.6144 68.0654 27.548 68.2479L23.3889 79.8457C22.9741 81.0071 23.5769 82.2902 24.7384 82.705L24.7771 82.7161C25.9386 83.1309 27.2216 82.528 27.6364 81.3666L35.6283 59.0781C36.0486 57.9111 35.4402 56.6336 34.2787 56.2188L34.229 56.2022C33.3054 55.8703 32.3264 56.2022 31.7457 56.9322C31.7402 56.9322 31.7125 56.9322 31.7125 56.9322L31.0212 57.7508L17.7422 72.5618C17.5597 72.7609 17.2278 72.6392 17.2167 72.3738V72.2632C16.6249 74.4644 16.2102 76.6656 15.9834 78.8557C16.9623 78.9387 17.9412 78.5736 18.6105 77.8159V77.8104Z" fill="white"/>
</g>
<path d="M199.761 43.8191C216.879 36.2808 237.768 46.0977 246.418 65.7426C255.068 85.3874 248.21 107.427 231.092 114.965C225.965 117.222 214.794 103.13 206.144 83.4849C197.494 63.84 194.634 46.0811 199.761 43.8246V43.8191Z" fill="#BE94FF"/>
<path d="M231.264 28.1455L225.28 45.1688" stroke="#BE94FF" stroke-width="1.65919" stroke-miterlimit="10"/>
<path d="M233.709 28.6147C237.359 28.6147 240.318 25.6557 240.318 22.0056C240.318 18.3555 237.359 15.3965 233.709 15.3965C230.059 15.3965 227.1 18.3555 227.1 22.0056C227.1 25.6557 230.059 28.6147 233.709 28.6147Z" fill="#8F3DC9"/>
<path d="M197.676 43.8191C214.794 36.2808 235.683 46.0977 244.333 65.7426C252.983 85.3874 246.125 107.427 229.007 114.965C223.881 117.222 212.709 103.13 204.059 83.4849C195.409 63.84 192.549 46.0811 197.676 43.8246V43.8191Z" fill="url(#paint1_linear_1020_2647)"/>
<path d="M193.401 45.6553C195.713 44.6377 198.091 43.9408 200.497 43.5205C200.254 43.6201 200.005 43.7141 199.761 43.8192C194.634 46.0757 197.494 63.8346 206.144 83.4794C214.794 103.124 225.966 117.222 231.092 114.96C231.336 114.855 231.568 114.733 231.806 114.617C229.876 116.11 227.752 117.393 225.44 118.411C220.197 120.723 208.771 106.304 199.922 86.2116C191.073 66.1187 188.152 47.9616 193.395 45.6498L193.401 45.6553Z" fill="#8F3DC9"/>
<g style="mix-blend-mode:screen">
<path d="M247.297 77.8104L238.664 68.0709C238.531 67.9216 238.293 68.0654 238.36 68.2479L242.519 79.8457C242.934 81.0071 242.331 82.2902 241.169 82.705L241.131 82.7161C239.969 83.1309 238.686 82.528 238.271 81.3666L230.28 59.0781C229.859 57.9111 230.468 56.6336 231.629 56.2188L231.679 56.2022C232.602 55.8703 233.581 56.2022 234.162 56.9322C234.168 56.9322 234.195 56.9322 234.195 56.9322L234.887 57.7508L248.166 72.5618C248.348 72.7609 248.68 72.6392 248.691 72.3738V72.2632C249.283 74.4644 249.698 76.6656 249.925 78.8557C248.946 78.9387 247.967 78.5736 247.297 77.8159V77.8104Z" fill="white"/>
</g>
<path d="M266.302 135.912C268.333 129.77 265.394 123.275 259.739 121.406C254.083 119.537 247.853 123.001 245.823 129.143C243.792 135.286 246.731 141.781 252.386 143.65C258.042 145.519 264.272 142.055 266.302 135.912Z" fill="#8F3DC9"/>
<path d="M143.609 132.105L144.676 135.335C144.953 136.165 146.064 136.309 146.54 135.579L148.448 132.653L143.614 132.105H143.609Z" fill="white"/>
<path d="M154.3 131.89C153.547 132.05 152.624 132.216 151.567 132.332C150.03 132.498 148.205 132.564 146.181 132.354C140.108 131.735 139.134 129.39 134.312 129.39C129.788 129.39 128.986 131.458 123.068 132.21C120.872 132.487 118.876 132.47 117.183 132.332C115.956 132.227 114.883 132.061 114.009 131.89" stroke="#391020" stroke-width="1.10613" stroke-linecap="round" stroke-linejoin="round"/>
<defs>
<linearGradient id="paint0_linear_1020_2647" x1="17.8366" y1="78.2418" x2="70.7814" y2="78.2418" gradientUnits="userSpaceOnUse">
<stop stop-color="white" stop-opacity="0.5"/>
<stop offset="0.03" stop-color="#F6F0FF" stop-opacity="0.49"/>
<stop offset="0.11" stop-color="#E1CEFF" stop-opacity="0.45"/>
<stop offset="0.21" stop-color="#D1B4FF" stop-opacity="0.43"/>
<stop offset="0.34" stop-color="#C6A1FF" stop-opacity="0.41"/>
<stop offset="0.51" stop-color="#BF96FF" stop-opacity="0.4"/>
<stop offset="1" stop-color="#BE94FF" stop-opacity="0.4"/>
</linearGradient>
<linearGradient id="paint1_linear_1020_2647" x1="248.077" y1="78.2418" x2="195.132" y2="78.2418" gradientUnits="userSpaceOnUse">
<stop stop-color="white" stop-opacity="0.5"/>
<stop offset="0.03" stop-color="#F6F0FF" stop-opacity="0.49"/>
<stop offset="0.11" stop-color="#E1CEFF" stop-opacity="0.45"/>
<stop offset="0.21" stop-color="#D1B4FF" stop-opacity="0.43"/>
<stop offset="0.34" stop-color="#C6A1FF" stop-opacity="0.41"/>
<stop offset="0.51" stop-color="#BF96FF" stop-opacity="0.4"/>
<stop offset="1" stop-color="#BE94FF" stop-opacity="0.4"/>
</linearGradient>
</defs>
</svg>
