<svg width="25" height="24" viewBox="0 0 25 24" fill="none" xmlns="http://www.w3.org/2000/svg">
<g id="Icon/close">
<path id="Vector 1 (Stroke)" fill-rule="evenodd" clip-rule="evenodd" d="M6.52145 5.64645C6.71671 5.45118 7.03329 5.45118 7.22855 5.64645L12.875 11.2929L18.5214 5.64645C18.7167 5.45118 19.0333 5.45118 19.2286 5.64645C19.4238 5.84171 19.4238 6.15829 19.2286 6.35355L13.5821 12L19.2286 17.6464C19.4238 17.8417 19.4238 18.1583 19.2286 18.3536C19.0333 18.5488 18.7167 18.5488 18.5214 18.3536L12.875 12.7071L7.22855 18.3536C7.03329 18.5488 6.71671 18.5488 6.52145 18.3536C6.32618 18.1583 6.32618 17.8417 6.52145 17.6464L12.1679 12L6.52145 6.35355C6.32618 6.15829 6.32618 5.84171 6.52145 5.64645Z" fill="black"/>
</g>
</svg>
