<svg width="24" height="25" viewBox="0 0 24 25" fill="none" xmlns="http://www.w3.org/2000/svg">
<path d="M18.7228 13.9361L18.2376 13.8156V13.8156L18.7228 13.9361ZM13.0668 6.73889L13.1463 6.24526L13.0668 6.73889ZM4.40822 11.6302L4.89347 11.7507L4.40822 11.6302ZM10.0642 18.8275L10.1438 18.3338L10.0642 18.8275ZM15.7788 17.747L16.0386 18.1743L15.7788 17.747ZM16.4762 17.5908L16.5413 17.0951L16.4762 17.5908ZM18.5887 15.5805L18.1651 15.8462L18.5887 15.5805ZM18.2376 13.8156C18.1874 14.0177 18.1249 14.2153 18.0507 14.408L18.9841 14.767C19.0728 14.5363 19.1478 14.2993 19.2081 14.0567L18.2376 13.8156ZM12.9873 7.23253C16.7342 7.83611 18.9774 10.837 18.2376 13.8156L19.2081 14.0567C20.1265 10.3589 17.3052 6.91521 13.1463 6.24526L12.9873 7.23253ZM4.89347 11.7507C5.64535 8.72365 9.22651 6.62671 12.9873 7.23253L13.1463 6.24526C9.00137 5.57755 4.82936 7.86044 3.92296 11.5097L4.89347 11.7507ZM10.1438 18.3338C6.39689 17.7302 4.15364 14.7293 4.89347 11.7507L3.92296 11.5097C3.00451 15.2074 5.82583 18.6511 9.98471 19.3211L10.1438 18.3338ZM15.519 17.3198C14.0199 18.2314 12.0936 18.6479 10.1438 18.3338L9.98471 19.3211C12.1696 19.6731 14.3365 19.2093 16.0386 18.1743L15.519 17.3198ZM18.1116 17.3014L16.5413 17.0951L16.411 18.0866L17.9814 18.2929L18.1116 17.3014ZM18.1651 15.8462L18.6003 16.54L19.4475 16.0086L19.0123 15.3148L18.1651 15.8462ZM16.0386 18.1743C16.1621 18.0991 16.2936 18.0711 16.411 18.0866L16.5413 17.0951C16.1727 17.0467 15.8143 17.1402 15.519 17.3198L16.0386 18.1743ZM17.9814 18.2929C19.2396 18.4582 20.1218 17.0837 19.4475 16.0086L18.6003 16.54C18.8251 16.8984 18.531 17.3565 18.1116 17.3014L17.9814 18.2929ZM18.0507 14.408C17.8787 14.8555 17.8817 15.3943 18.1651 15.8462L19.0123 15.3148C18.9238 15.1737 18.9049 14.9729 18.9841 14.767L18.0507 14.408Z" fill="#767676"/>
</svg>
