<svg width="23" height="23" viewBox="0 0 23 23" fill="none" xmlns="http://www.w3.org/2000/svg">
<circle cx="11.834" cy="11.3815" r="10.5" fill="#FFD7E1" stroke="#FF434B"/>
<path fill-rule="evenodd" clip-rule="evenodd" d="M6.5394 6.08688C6.70212 5.92416 6.96593 5.92416 7.12865 6.08688L11.834 10.7923L16.5394 6.08688C16.7021 5.92416 16.9659 5.92416 17.1287 6.08688C17.2914 6.2496 17.2914 6.51342 17.1287 6.67614L12.4233 11.3815L17.1287 16.0869C17.2914 16.2496 17.2914 16.5134 17.1287 16.6761C16.9659 16.8389 16.7021 16.8389 16.5394 16.6761L11.834 11.9708L7.12865 16.6761C6.96593 16.8389 6.70212 16.8389 6.5394 16.6761C6.37668 16.5134 6.37668 16.2496 6.5394 16.0869L11.2448 11.3815L6.5394 6.67614C6.37668 6.51342 6.37668 6.2496 6.5394 6.08688Z" fill="#FF434B"/>
</svg>
