<svg width="607" height="1372" viewBox="0 0 607 1372" fill="none" xmlns="http://www.w3.org/2000/svg">
<g clip-path="url(#clip0_1836_3261)">
<path d="M281.235 1.3501V672.91L0.865234 866.79V1.6301L281.235 1.3501Z" fill="#F9D4F8"/>
<path d="M210.545 726.16L211.185 657.89H273.975L274.535 678.35L210.545 726.16Z" fill="#DDB6DD"/>
<path d="M606.695 685.51L269.645 680.92L0.865234 866.79V1372H606.415L606.695 685.51Z" fill="#DFA4ED"/>
<path d="M281.235 1.35001V685.51H606.695V0.51001L281.235 1.35001Z" fill="#F4C3F4"/>
<path d="M284.565 670.29H606.695V700.32H243.275L284.565 670.29Z" fill="#DFA4ED"/>
<path d="M403.035 712.51C390.825 695.58 360.665 686.37 338.165 691.91C338.185 691.89 338.215 691.88 338.235 691.86C343.535 687.6 343.135 683.49 340.465 680.17C337.795 676.85 333.865 675.58 328.565 679.84C323.265 684.1 319.685 688.45 322.355 691.78C323.825 693.6 326.875 694.73 330.195 694.67C328.495 695.46 326.855 696.35 325.325 697.36C325.325 697.36 325.325 697.35 325.335 697.34C325.265 697.39 325.195 697.44 325.125 697.48C325.065 697.52 325.015 697.56 324.955 697.59C324.255 698.06 323.575 698.54 322.925 699.05C322.265 699.57 321.625 700.1 320.995 700.63C320.745 700.84 320.505 701.06 320.265 701.27C319.895 701.59 319.525 701.91 319.165 702.24C318.835 702.54 318.515 702.85 318.195 703.16C317.935 703.4 317.675 703.64 317.425 703.89C317.065 704.25 316.715 704.61 316.365 704.98C316.175 705.18 315.975 705.37 315.785 705.57C315.755 705.6 315.735 705.63 315.705 705.66C314.915 703.72 313.225 702.2 311.035 701.72C307.505 700.95 304.015 703.19 303.245 706.72C302.475 710.25 304.715 713.74 308.245 714.51C308.445 714.55 308.635 714.58 308.835 714.61C308.515 715.13 308.205 715.66 307.905 716.19C307.905 716.21 307.885 716.22 307.875 716.24C306.545 718.6 305.435 721.01 304.525 723.48C304.105 723.22 303.625 723.02 303.115 722.9C300.705 722.37 298.325 723.9 297.795 726.32C297.265 728.74 298.795 731.11 301.215 731.64C301.565 731.72 301.925 731.74 302.265 731.74C301.555 735.66 301.315 739.67 301.515 743.73C297.505 748.63 295.435 755.46 296.375 762.68C297.885 774.33 306.705 783 316.865 783.55C319.345 786.79 322.845 789.41 326.685 790.73C327.465 791 328.255 791.19 329.055 791.34C342.445 805.96 351.195 807.17 351.195 807.17C364.345 811.28 374.785 798.23 376.455 796C381.525 797.78 388.475 793.92 392.585 786.75C393.625 784.93 394.385 783.07 394.895 781.23C413.135 761.72 419.115 734.88 403.005 712.53L403.035 712.51ZM375.315 796.56C374.995 796.74 374.665 796.91 374.325 797.08C374.655 796.92 374.985 796.75 375.315 796.56ZM373.315 797.53C357.345 814.52 342.415 802.03 333.845 791.49C334.905 791.4 335.965 791.23 336.995 790.98C338.635 790.58 340.305 790.07 341.805 789.3C343.305 788.53 345.055 788.24 346.725 788.47C347.925 788.64 349.105 789.04 350.095 789.76C351.465 790.76 352.565 792.18 353.825 793.33C354.835 794.26 355.845 795.31 357.005 796.04C362.295 799.37 368.315 799.57 373.325 797.52L373.315 797.53Z" fill="#D08BD8"/>
<path d="M452.025 676.03H371.095L316.955 738.54H404.025L452.025 676.03Z" fill="#D08BD8"/>
<path d="M361.235 676.03H276.765L184.305 739.94L281.975 742.44L361.235 676.03Z" fill="#D08BD8"/>
<path d="M434.165 712.31L399.555 776.49V741.58L452.025 676.03L434.165 712.31Z" fill="#D08BD8"/>
<path d="M284.585 604.75H273.615V679.71H284.585V604.75Z" fill="#604A3B"/>
<path d="M452.205 290.72H334.255V465.98H452.205V290.72Z" fill="url(#paint0_linear_1836_3261)"/>
<path d="M452.205 438.96H334.255V465.98H452.205V438.96Z" fill="url(#paint1_linear_1836_3261)"/>
<g opacity="0.53">
<path d="M343.755 402.92H334.255V438.67H343.755V402.92Z" fill="url(#paint2_linear_1836_3261)"/>
</g>
<g opacity="0.53">
<path d="M340.175 397.97H334.255V402.92H340.175V397.97Z" fill="url(#paint3_linear_1836_3261)"/>
</g>
<path opacity="0.53" d="M400.235 418.4H399.725C399.655 417.22 398.695 416.29 397.505 416.29H397.395C396.205 416.29 395.235 417.23 395.175 418.4H394.665V420.4H392.385C391.925 420.4 391.485 420.26 391.115 419.98C386.455 416.54 370.375 405.37 357.455 404.67V404.65C357.395 404.65 357.335 404.65 357.275 404.66C357.215 404.66 357.155 404.66 357.095 404.65V404.67C349.595 405.08 341.035 409.02 334.255 412.92V414.76C334.435 414.65 334.615 414.55 334.795 414.44V419.53C334.615 419.69 334.435 419.85 334.255 420.01V422.26C334.535 422.01 334.805 421.75 335.085 421.5V424.36H334.255V427.22H385.325C389.685 431.87 392.435 435.68 392.535 435.81V438.66H402.365V434.54H400.235V418.39V418.4ZM350.985 407.29C352.855 406.78 354.705 406.43 356.475 406.28V408.58C354.675 408.75 352.845 409.13 350.985 409.73V407.3V407.29ZM343.785 409.87C345.645 409.06 347.535 408.34 349.425 407.75V410.27C347.575 410.97 345.695 411.87 343.785 412.98V409.86V409.87ZM336.365 413.55C338.215 412.52 340.195 411.5 342.225 410.56V413.93C340.295 415.15 338.345 416.58 336.365 418.21V413.55ZM338.745 424.37H335.875V420.82C336.805 420.01 337.765 419.22 338.745 418.45V424.37ZM342.395 424.37H339.525V417.85C340.465 417.14 341.425 416.46 342.395 415.81V424.37ZM346.055 424.37H343.185V415.31C344.125 414.71 345.085 414.15 346.055 413.62V424.37ZM349.715 424.37H346.845V413.2C347.795 412.72 348.755 412.29 349.715 411.9V424.37ZM353.365 424.37H350.495V411.59C351.445 411.24 352.405 410.95 353.365 410.71V424.37ZM357.025 424.37H354.155V410.53C355.115 410.33 356.075 410.18 357.025 410.11V424.38V424.37ZM365.125 407.75C367.005 408.34 368.905 409.06 370.765 409.87V412.99C368.855 411.88 366.975 410.98 365.125 410.28V407.76V407.75ZM358.065 406.28C359.845 406.43 361.685 406.79 363.555 407.29V409.72C361.685 409.12 359.855 408.74 358.065 408.57V406.27V406.28ZM360.685 424.37H357.815V410.13C358.775 410.22 359.735 410.36 360.685 410.58V424.37ZM364.335 424.37H361.465V410.78C362.425 411.03 363.385 411.33 364.335 411.69V424.36V424.37ZM367.995 424.37H365.125V412.02C366.095 412.42 367.055 412.86 367.995 413.35V424.37ZM371.655 424.37H368.785V413.77C369.755 414.3 370.715 414.88 371.655 415.49V424.37ZM372.335 410.57C374.365 411.51 376.335 412.53 378.195 413.56V418.22C376.215 416.6 374.265 415.16 372.335 413.94V410.57ZM375.305 424.37H372.435V415.99C373.415 416.65 374.375 417.34 375.305 418.06V424.37ZM378.965 424.37H376.095V418.67C377.085 419.45 378.045 420.25 378.965 421.06V424.37ZM379.745 424.37V421.75C380.715 422.62 381.645 423.5 382.525 424.37H379.745ZM384.305 423.79C383.635 423.12 382.945 422.44 382.225 421.76C381.395 420.98 380.575 420.25 379.755 419.53V414.44C381.405 415.39 382.935 416.34 384.305 417.21V423.79ZM389.865 429.91C389.185 429.1 388.395 428.19 387.545 427.24H389.865V429.91ZM389.865 424.37H385.865V418.24C387.645 419.42 389.035 420.41 389.865 421.02V424.38V424.37ZM394.665 434.56H393.365C393.205 434.31 392.425 433.08 391.435 431.83V427.24H394.665V434.56ZM394.665 424.37H391.435V421.84C391.745 421.92 392.055 421.97 392.385 421.97H394.665V424.37Z" fill="url(#paint4_linear_1836_3261)"/>
<g opacity="0.9">
<path d="M343.725 429.81H337.955V438.68H343.725V429.81Z" fill="#E48FBA"/>
<path d="M357.865 429.81H343.725V438.68H357.865V429.81Z" fill="#F5BAD0"/>
</g>
<g opacity="0.71">
<path d="M409.515 383.48H405.725V438.67H409.515V383.48Z" fill="url(#paint5_linear_1836_3261)"/>
<path d="M425.265 383.48H409.515V438.67H425.265V383.48Z" fill="url(#paint6_linear_1836_3261)"/>
<path d="M413.105 378.89H410.495V383.47H413.105V378.89Z" fill="#917EB9"/>
<path d="M420.515 378.89H413.105V383.47H420.515V378.89Z" fill="#9C8DC2"/>
<path d="M423.955 383.48H422.915V438.67H423.955V383.48Z" fill="url(#paint7_linear_1836_3261)"/>
<path d="M421.115 383.48H420.075V438.67H421.115V383.48Z" fill="url(#paint8_linear_1836_3261)"/>
<path d="M418.275 383.48H417.235V438.67H418.275V383.48Z" fill="url(#paint9_linear_1836_3261)"/>
<path d="M415.435 383.48H414.395V438.67H415.435V383.48Z" fill="url(#paint10_linear_1836_3261)"/>
<path d="M412.605 383.48H411.565V438.67H412.605V383.48Z" fill="url(#paint11_linear_1836_3261)"/>
</g>
<path opacity="0.86" d="M452.205 380.36H451.365L449.135 364.92L446.905 380.36H444.025V400.14L438.825 439.09H444.025H452.205V380.36Z" fill="url(#paint12_linear_1836_3261)"/>
<path opacity="0.57" d="M451.905 383.56H446.375V384.51H451.905V383.56Z" fill="#CB85B7"/>
<path opacity="0.57" d="M451.905 386.18H446.375V387.13H451.905V386.18Z" fill="#CB85B7"/>
<path opacity="0.57" d="M451.905 388.8H446.375V389.75H451.905V388.8Z" fill="#CB85B7"/>
<path opacity="0.57" d="M451.905 391.42H446.375V392.37H451.905V391.42Z" fill="#CB85B7"/>
<path opacity="0.57" d="M451.905 394.04H446.375V394.99H451.905V394.04Z" fill="#CB85B7"/>
<path opacity="0.57" d="M451.905 396.66H446.375V397.61H451.905V396.66Z" fill="#CB85B7"/>
<path opacity="0.57" d="M451.905 399.28H446.375V400.23H451.905V399.28Z" fill="#CB85B7"/>
<path d="M433.555 425.12H428.095V439.09H433.555V425.12Z" fill="url(#paint13_linear_1836_3261)"/>
<path d="M446.925 425.12H433.555V439.09H446.925V425.12Z" fill="url(#paint14_linear_1836_3261)"/>
<path d="M381.595 398.29H376.135V438.68H381.595V398.29Z" fill="url(#paint15_linear_1836_3261)"/>
<path d="M394.965 398.29H381.595V438.68H394.965V398.29Z" fill="url(#paint16_linear_1836_3261)"/>
<path d="M384.965 398.29H383.805V435.98H384.965V398.29Z" fill="url(#paint17_linear_1836_3261)"/>
<path d="M389.005 398.29H387.845V435.98H389.005V398.29Z" fill="url(#paint18_linear_1836_3261)"/>
<path d="M393.045 398.29H391.885V435.98H393.045V398.29Z" fill="url(#paint19_linear_1836_3261)"/>
<path opacity="0.63" d="M403.015 322.64C398.975 321.37 394.535 321.51 390.385 319.77C387.265 318.47 384.265 318.17 380.915 317.95C377.325 317.72 375.115 315.59 371.635 314.82C368.675 314.16 365.575 314.36 362.705 315.28C361.105 315.79 360.005 316.89 358.535 317.45C358.535 317.45 358.515 317.45 358.505 317.45C357.645 317.78 356.715 317.89 355.795 317.73C355.585 317.69 355.355 317.66 355.095 317.62C351.015 317.04 347.585 315.94 343.365 316.54C340.325 316.97 337.365 317.99 334.465 319C333.425 320.72 332.425 322.47 331.475 324.26H402.745C403.785 324.26 404.015 322.93 403.025 322.62L403.015 322.64Z" fill="white"/>
<path opacity="0.3" d="M384.615 366.07C385.085 366.07 385.325 365.64 384.985 365.41C384.255 364.91 383.215 364.61 381.865 364.69C374.935 365.09 369.345 362.26 362.385 362.75C360.235 362.9 359.115 362.83 357.145 362.27C355.925 361.92 355.025 361.49 353.665 361.39C350.765 361.17 348.595 363.57 346.225 363.15C343.665 362.7 341.755 363.74 340.925 365.13C340.665 365.57 341.095 366.07 341.745 366.07H384.605H384.615Z" fill="white"/>
<path opacity="0.41" d="M453.335 330.72C451.695 330.4 449.955 330.33 448.045 330.51C445.545 330.75 443.275 331.47 440.825 331.9C438.105 332.38 436.015 331.91 433.295 331.56C428.525 330.94 425.175 332.9 420.635 333.18C415.825 333.48 411.645 333.04 407.315 335.13C406.745 335.41 406.295 335.73 405.935 336.09H455.635C454.905 334.27 454.135 332.48 453.315 330.72H453.335Z" fill="white"/>
<path d="M367.925 575.38H281.235L195.275 647.56H288.675L367.925 575.38Z" fill="#F4CAA4"/>
<path d="M277.745 661.24V736.03H288.765L288.675 647.56H195.275V736.03H206.305V661.24H277.745Z" fill="#B57243"/>
<path d="M211.655 661.23H206.305V736.03L211.655 731.51V661.23Z" fill="#ECAD72"/>
<path d="M337.095 698.17H331.745V736.03L337.095 731.51V698.17Z" fill="#ECAD72"/>
<path d="M447.565 604.75H436.595V679.71H447.565V604.75Z" fill="#B57243"/>
<path d="M367.855 575.28L288.675 647.56V660.58L288.765 736.03L294.025 731.51V655.82L367.855 586.17V575.28Z" fill="#ECAD72"/>
<path d="M243.275 633.24V635.19H280.205C280.205 635.19 288.295 616.31 299.835 616.96V613.7L261.975 619L243.275 633.23V633.24Z" fill="#BE936C"/>
<path d="M260.955 614.26C260.955 614.26 264.485 604.77 278.025 599.28H305.515L297.705 614.26H260.965H260.955Z" fill="#FDF0DD"/>
<path d="M318.445 684.95L348.525 654.86H411.555L386.335 684.95H318.445Z" fill="#F4CAA4"/>
<path d="M381.325 678.08C404.339 678.08 422.995 674.413 422.995 669.89C422.995 665.367 404.339 661.7 381.325 661.7C358.312 661.7 339.655 665.367 339.655 669.89C339.655 674.413 358.312 678.08 381.325 678.08Z" fill="#BE936C"/>
<path d="M335.368 678.567C336.435 675.273 333.909 671.504 329.727 670.15C325.545 668.795 321.29 670.367 320.222 673.661C319.155 676.955 321.68 680.724 325.863 682.079C330.045 683.434 334.3 681.862 335.368 678.567Z" fill="#BE936C"/>
<path d="M306.336 639.494C307.403 636.2 304.878 632.431 300.696 631.076C296.513 629.721 292.258 631.294 291.191 634.588C290.123 637.882 292.649 641.651 296.831 643.006C301.013 644.361 305.269 642.789 306.336 639.494Z" fill="#BE936C"/>
<path d="M221.305 643.56C228.695 643.56 234.685 641.917 234.685 639.89C234.685 637.863 228.695 636.22 221.305 636.22C213.916 636.22 207.925 637.863 207.925 639.89C207.925 641.917 213.916 643.56 221.305 643.56Z" fill="#BE936C"/>
<path d="M333.295 661.7C339.235 669.06 337.485 674.53 332.875 678.25C328.265 681.97 322.545 682.54 316.605 675.18C310.665 667.82 307.085 660.85 311.695 657.12C316.305 653.39 327.345 654.33 333.295 661.69V661.7Z" fill="#8F3DC9"/>
<path d="M294.775 609.15C298.21 609.15 300.995 606.365 300.995 602.93C300.995 599.495 298.21 596.71 294.775 596.71C291.34 596.71 288.555 599.495 288.555 602.93C288.555 606.365 291.34 609.15 294.775 609.15Z" fill="#8F3DC9"/>
<path d="M427.884 574.835C435.716 572.348 439.015 560.726 435.252 548.877C431.489 537.028 422.089 529.44 414.256 531.927C406.424 534.415 403.125 546.037 406.888 557.886C410.651 569.734 420.051 577.323 427.884 574.835Z" fill="#F6E9FF"/>
<path d="M423.685 519.17L416.965 533" stroke="#3F0C20" stroke-width="1.41" stroke-miterlimit="10"/>
<path d="M426.355 519.85C429.47 519.85 431.995 517.325 431.995 514.21C431.995 511.095 429.47 508.57 426.355 508.57C423.24 508.57 420.715 511.095 420.715 514.21C420.715 517.325 423.24 519.85 426.355 519.85Z" fill="#CC9EE8"/>
<path d="M389.615 525.65C398.905 522.28 408.295 524.69 414.665 530.37C453.055 564.68 464.585 619.45 427.465 652.79C400.415 677.08 338.695 676.63 314.725 647.45C283.245 609.13 294.375 564.88 330.485 531.58C334.935 527.48 340.865 524.65 346.875 523.95C351.735 523.38 356.575 524.5 360.945 526.62C363.055 527.64 365.165 528.84 366.975 530.32C368.785 531.8 371.075 532.72 373.415 532.9C375.095 533.03 376.825 532.83 378.375 532.14C380.535 531.19 382.455 529.58 384.495 528.39C386.135 527.43 387.825 526.29 389.625 525.64L389.615 525.65Z" fill="#DBB2F4"/>
<path d="M412.225 528.46C413.075 529.05 413.895 529.68 414.655 530.37C415.175 530.83 415.675 531.3 416.185 531.77C415.035 529.17 404.655 507.11 385.045 508.86C385.045 508.86 368.305 507.56 337.975 533.42L343.275 536.85C344.225 537.26 388.445 487.53 412.225 528.46Z" fill="#8F3DC9"/>
<path d="M305.705 589.15C305.705 578.32 306.735 567.78 308.665 557.64C291.385 586.09 290.835 618.44 314.635 647.4C315.505 648.46 316.435 649.47 317.405 650.45C309.905 631.89 305.705 611.1 305.705 589.15Z" fill="#FFF5F6"/>
<path d="M348.445 571.38C342.325 588.49 329.145 599.42 313.905 593.97C298.655 588.51 291.255 570.22 297.385 553.11C303.505 536 320.825 526.55 336.075 532.01C351.325 537.47 354.575 554.27 348.455 571.38H348.445Z" fill="#F6E9FF"/>
<path d="M339.745 533.46C346.715 541.33 347.365 553.95 342.785 566.76C336.645 583.93 323.425 594.9 308.115 589.43C306.525 588.86 305.025 588.14 303.605 587.31C306.425 590.23 309.865 592.54 313.845 593.96C329.145 599.43 342.365 588.46 348.515 571.29C354.135 555.59 351.855 540.18 339.735 533.46H339.745Z" fill="#8F3DC9"/>
<path d="M314.635 647.4C315.505 648.46 316.435 649.47 317.405 650.45C311.485 635.8 307.635 619.75 306.275 602.85C304.625 601.62 302.875 600.95 301.055 600.95C299.395 600.95 297.795 601.51 296.275 602.53C296.995 617.72 302.805 632.98 314.645 647.39L314.635 647.4Z" fill="#FFE9FE"/>
<path d="M345.155 519.17L338.435 533" stroke="#3F0C20" stroke-width="1.41" stroke-miterlimit="10"/>
<path d="M347.825 519.85C350.94 519.85 353.465 517.325 353.465 514.21C353.465 511.095 350.94 508.57 347.825 508.57C344.71 508.57 342.185 511.095 342.185 514.21C342.185 517.325 344.71 519.85 347.825 519.85Z" fill="#CC9EE8"/>
<path d="M299.265 640.26C304.291 640.26 308.365 636.186 308.365 631.16C308.365 626.134 304.291 622.06 299.265 622.06C294.239 622.06 290.165 626.134 290.165 631.16C290.165 636.186 294.239 640.26 299.265 640.26Z" fill="#8F3DC9"/>
<path d="M386.335 615.2V684.95H318.445V698.17H318.525V736.12H331.745V698.17H386.335V736.12H399.555V698.17V684.95V615.2H386.335Z" fill="#B57243"/>
<path d="M441.275 564.4H452.025L399.555 615.2H386.335L441.275 564.4Z" fill="#F4CAA4"/>
<path d="M399.595 698.17V736.03L404.945 731.51V692.61L447.585 648.61V679.63L452.025 675.89V644.03V643.61V564.4L399.555 615.19V698.17" fill="#ECAD72"/>
<path d="M212.355 621.12L214.415 637.17C214.535 638.14 215.165 638.96 216.055 639.35C218.685 640.49 224.675 642.24 232.615 639.26C233.585 638.89 234.275 638 234.375 636.97L236.005 621.07L212.355 621.12Z" fill="#B36832"/>
<path d="M237.415 614.3C237.415 612.61 231.495 611.25 224.205 611.25C216.915 611.25 210.995 612.62 210.995 614.3C210.995 614.35 210.995 614.41 211.015 614.46L211.655 619.97C211.735 620.64 212.195 621.19 212.845 621.39C215.865 622.31 224.965 624.48 235.575 621.37C236.225 621.18 236.695 620.62 236.775 619.95L237.405 614.47C237.415 614.42 237.425 614.36 237.425 614.31L237.415 614.3Z" fill="#C07538"/>
<path d="M224.235 616.37C230.885 616.37 236.275 615.488 236.275 614.4C236.275 613.312 230.885 612.43 224.235 612.43C217.586 612.43 212.195 613.312 212.195 614.4C212.195 615.488 217.586 616.37 224.235 616.37Z" fill="#6F4430"/>
<path d="M224.185 603.48C224.575 602.97 224.665 602.2 224.605 601.48C224.355 598.67 221.095 598.07 218.805 598.01C217.685 597.98 216.575 598.06 215.465 598.18C215.465 598.18 217.925 599.04 219.155 601.33C219.895 602.71 221.265 604.17 222.975 604.07C223.545 604.04 223.935 603.81 224.195 603.47L224.185 603.48Z" fill="#AACD26"/>
<path d="M237.335 595.39C235.765 595.12 234.135 595.05 232.545 595.12C230.175 595.22 227.165 595.7 225.755 597.85C225.335 598.48 225.115 599.22 225.055 599.97C224.995 600.72 224.965 602.48 225.545 603.05C225.685 603.19 225.875 603.27 226.065 603.34C229.285 604.47 231.075 600.87 232.545 598.75C233.105 597.94 233.755 597.17 234.525 596.56C235.195 596.02 236.405 595.23 237.335 595.39Z" fill="#AACD26"/>
<path d="M223.405 603.22C223.405 603.22 224.835 603.75 224.145 613.99H225.215C225.215 613.99 223.945 605.92 226.365 602.97L225.555 603.05C225.555 603.05 224.805 604.49 224.765 605.63C224.765 605.63 224.275 603.58 223.745 602.93L223.415 603.22H223.405Z" fill="#AACD26"/>
<path d="M218.805 598.01C218.805 598.01 224.375 598.43 224.375 602.44C224.375 602.44 224.045 599.74 218.805 598.01Z" fill="#EFF4D1"/>
<path d="M225.195 601.13C225.195 601.13 227.185 594.88 234.895 595.42C234.895 595.42 226.785 593.81 225.195 601.13Z" fill="#EFF4D1"/>
<path d="M241.655 631.33L241.055 633.33H277.985C277.985 633.33 286.075 614.45 297.615 615.1V614.26L259.755 617.14L241.665 631.33H241.655Z" fill="#7F5941"/>
<path d="M297.795 614.26C284.615 614.26 277.885 631.38 277.885 631.38H241.045C241.045 631.38 247.785 614.87 260.955 614.26C260.955 614.26 297.975 614.26 297.795 614.26Z" fill="#F4E6D4"/>
<path d="M294.601 585.993L291.521 585.289L286.83 605.82L289.91 606.524L294.601 585.993Z" fill="#FFCE55"/>
<path d="M287.425 610.21L289.885 606.53L286.805 605.83L287.425 610.21Z" fill="#FFE3AB"/>
<path d="M294.574 585.954C294.658 585.587 294.036 585.133 293.185 584.939C292.334 584.744 291.577 584.884 291.493 585.25C291.41 585.616 292.031 586.07 292.882 586.265C293.733 586.459 294.49 586.32 294.574 585.954Z" fill="#FFE3AB"/>
<path d="M289.887 606.421C289.971 606.055 289.349 605.601 288.499 605.406C287.648 605.212 286.89 605.351 286.807 605.717C286.723 606.083 287.345 606.538 288.196 606.732C289.046 606.926 289.804 606.787 289.887 606.421Z" fill="#FFCE55"/>
<path d="M287.675 609.1C287.525 609.06 287.385 609.01 287.245 608.96L287.425 610.21L288.125 609.16C287.975 609.16 287.825 609.14 287.675 609.1Z" fill="#6B6555"/>
<path d="M249.235 629.46C249.155 629.46 249.075 629.44 248.995 629.4C248.755 629.27 248.665 628.96 248.795 628.72C249.035 628.27 254.825 617.73 261.365 615.64C261.625 615.56 261.905 615.7 261.995 615.96C262.075 616.22 261.935 616.5 261.675 616.59C255.525 618.55 249.745 629.08 249.685 629.19C249.595 629.36 249.425 629.45 249.245 629.45L249.235 629.46Z" fill="#9A918E"/>
<path d="M255.515 629.46C255.435 629.46 255.355 629.44 255.275 629.4C255.035 629.27 254.945 628.96 255.075 628.72C255.315 628.27 261.105 617.73 267.645 615.64C267.905 615.56 268.185 615.7 268.275 615.96C268.355 616.22 268.215 616.5 267.955 616.59C261.805 618.55 256.025 629.08 255.965 629.19C255.875 629.36 255.705 629.45 255.525 629.45L255.515 629.46Z" fill="#9A918E"/>
<path d="M261.785 629.46C261.705 629.46 261.625 629.44 261.545 629.4C261.305 629.27 261.215 628.96 261.345 628.72C261.585 628.27 267.375 617.73 273.915 615.64C274.175 615.56 274.455 615.7 274.545 615.96C274.625 616.22 274.485 616.5 274.225 616.59C268.075 618.55 262.295 629.08 262.235 629.19C262.145 629.36 261.975 629.45 261.795 629.45L261.785 629.46Z" fill="#9A918E"/>
<path d="M267.745 629.55C267.675 629.55 267.595 629.53 267.525 629.5C267.275 629.38 267.175 629.08 267.295 628.83C267.435 628.53 270.855 621.49 274.595 619.67C274.845 619.55 275.145 619.65 275.265 619.9C275.385 620.15 275.285 620.45 275.035 620.57C271.605 622.24 268.235 629.2 268.195 629.27C268.105 629.45 267.935 629.55 267.745 629.55Z" fill="#9A918E"/>
<path d="M342.475 344.9V346.07H451.285V344.9H342.475Z" fill="#DFB99C"/>
<path d="M342.465 406.67V407.84H451.275V406.67H342.465Z" fill="#DFB99C"/>
<path d="M398.175 284.95H395.035V472.58H398.175V284.95Z" fill="#BE936C"/>
<path d="M399.245 284.95H398.075V472.58H399.245V284.95Z" fill="#DFB99C"/>
<path d="M343.315 284.95H342.145V472.58H343.315V284.95Z" fill="#DFB99C"/>
<path d="M342.475 345.98V349.12H451.285V345.98H342.475Z" fill="#BE936C"/>
<path d="M342.475 407.75V410.89H451.285V407.75H342.475Z" fill="#BE936C"/>
<path d="M332.465 284.95V472.58H460.935V284.95H332.465ZM451.255 462.56H342.145V294.99H451.255V462.56Z" fill="#BE936C"/>
<path d="M471.725 472.31H396.605H396.245H321.135L310.695 487.54H396.245H396.605H466.165L471.725 472.31Z" fill="#F4CAA4"/>
<path d="M466.195 487.54H310.695V497.91H466.195V487.54Z" fill="#B57243"/>
<path d="M466.195 497.9V487.54L471.745 472.31V482.68L466.195 497.9Z" fill="#ECAD72"/>
<path d="M322.185 545.95L322.145 545.93C321.365 545.54 320.465 545.72 319.875 546.3H319.845L319.145 546.95L305.835 558.56C305.655 558.72 305.375 558.57 305.395 558.34L306.785 541.93C306.785 541.93 306.965 540.86 306.145 539.72C306.095 539.66 306.035 539.61 305.985 539.55C302.295 543.18 299.285 547.77 297.375 553.12C296.525 555.48 295.955 557.87 295.605 560.24C296.275 560.18 296.895 559.79 297.225 559.15L302.195 549.28C302.275 549.12 302.515 549.19 302.495 549.37L301.405 560.87C301.305 561.91 301.755 562.95 302.615 563.53C303.685 564.24 305.075 564.14 306.015 563.31L314.675 555.66C314.805 555.54 315.005 555.69 314.925 555.85L310.005 565.62C309.515 566.6 309.905 567.8 310.885 568.29L310.915 568.31C311.895 568.8 313.095 568.41 313.585 567.43L323.045 548.65C323.535 547.67 323.145 546.47 322.165 545.98L322.185 545.95Z" fill="#D9B3F4"/>
<rect x="-9" y="-1" width="616" height="1373" fill="url(#paint20_linear_1836_3261)"/>
</g>
<defs>
<linearGradient id="paint0_linear_1836_3261" x1="319.925" y1="305.05" x2="466.535" y2="451.65" gradientUnits="userSpaceOnUse">
<stop stop-color="#EC75A5"/>
<stop offset="1" stop-color="#F8CEE0"/>
</linearGradient>
<linearGradient id="paint1_linear_1836_3261" x1="393.235" y1="465.98" x2="393.235" y2="438.96" gradientUnits="userSpaceOnUse">
<stop stop-color="#E3C1DB"/>
<stop offset="0.31" stop-color="#D6BBD9"/>
<stop offset="1" stop-color="#94A1D2"/>
</linearGradient>
<linearGradient id="paint2_linear_1836_3261" x1="339.005" y1="438.67" x2="339.005" y2="402.92" gradientUnits="userSpaceOnUse">
<stop stop-color="#9AAAD7"/>
<stop offset="1" stop-color="#B0B4DB"/>
</linearGradient>
<linearGradient id="paint3_linear_1836_3261" x1="337.215" y1="402.92" x2="337.215" y2="397.97" gradientUnits="userSpaceOnUse">
<stop stop-color="#9AAAD7"/>
<stop offset="1" stop-color="#B0B4DB"/>
</linearGradient>
<linearGradient id="paint4_linear_1836_3261" x1="368.305" y1="438.67" x2="368.305" y2="404.65" gradientUnits="userSpaceOnUse">
<stop stop-color="#E46C87"/>
<stop offset="1" stop-color="#E47B94"/>
</linearGradient>
<linearGradient id="paint5_linear_1836_3261" x1="407.615" y1="438.67" x2="407.615" y2="383.48" gradientUnits="userSpaceOnUse">
<stop stop-color="#4D67AF"/>
<stop offset="1" stop-color="#746FB2"/>
</linearGradient>
<linearGradient id="paint6_linear_1836_3261" x1="417.385" y1="438.67" x2="417.385" y2="383.48" gradientUnits="userSpaceOnUse">
<stop stop-color="#536AB1"/>
<stop offset="1" stop-color="#887FBA"/>
</linearGradient>
<linearGradient id="paint7_linear_1836_3261" x1="423.435" y1="438.67" x2="423.435" y2="383.48" gradientUnits="userSpaceOnUse">
<stop stop-color="#536AB1"/>
<stop offset="1" stop-color="#DC9DC4"/>
</linearGradient>
<linearGradient id="paint8_linear_1836_3261" x1="420.595" y1="438.67" x2="420.595" y2="383.48" gradientUnits="userSpaceOnUse">
<stop stop-color="#536AB1"/>
<stop offset="1" stop-color="#D09AC3"/>
</linearGradient>
<linearGradient id="paint9_linear_1836_3261" x1="417.755" y1="438.67" x2="417.755" y2="383.48" gradientUnits="userSpaceOnUse">
<stop stop-color="#536AB1"/>
<stop offset="1" stop-color="#CA98C3"/>
</linearGradient>
<linearGradient id="paint10_linear_1836_3261" x1="414.925" y1="438.67" x2="414.925" y2="383.48" gradientUnits="userSpaceOnUse">
<stop stop-color="#536AB1"/>
<stop offset="1" stop-color="#CC98C3"/>
</linearGradient>
<linearGradient id="paint11_linear_1836_3261" x1="412.085" y1="438.67" x2="412.085" y2="383.48" gradientUnits="userSpaceOnUse">
<stop stop-color="#536AB1"/>
<stop offset="1" stop-color="#BD94C2"/>
</linearGradient>
<linearGradient id="paint12_linear_1836_3261" x1="445.515" y1="439.09" x2="445.515" y2="364.92" gradientUnits="userSpaceOnUse">
<stop stop-color="#704D9C"/>
<stop offset="1" stop-color="#CB85B7"/>
</linearGradient>
<linearGradient id="paint13_linear_1836_3261" x1="430.825" y1="439.09" x2="430.825" y2="425.12" gradientUnits="userSpaceOnUse">
<stop stop-color="#875BA3"/>
<stop offset="1" stop-color="#A86CAA"/>
</linearGradient>
<linearGradient id="paint14_linear_1836_3261" x1="440.235" y1="439.09" x2="440.235" y2="425.12" gradientUnits="userSpaceOnUse">
<stop stop-color="#A077B2"/>
<stop offset="1" stop-color="#A18CC1"/>
</linearGradient>
<linearGradient id="paint15_linear_1836_3261" x1="378.865" y1="438.67" x2="378.865" y2="398.29" gradientUnits="userSpaceOnUse">
<stop stop-color="#976BAC"/>
<stop offset="1" stop-color="#C193C1"/>
</linearGradient>
<linearGradient id="paint16_linear_1836_3261" x1="388.285" y1="438.67" x2="388.285" y2="398.29" gradientUnits="userSpaceOnUse">
<stop stop-color="#807DBA"/>
<stop offset="1" stop-color="#B0B4DB"/>
</linearGradient>
<linearGradient id="paint17_linear_1836_3261" x1="384.385" y1="435.98" x2="384.385" y2="398.29" gradientUnits="userSpaceOnUse">
<stop stop-color="#7C77B6"/>
<stop offset="1" stop-color="#C4BBDC"/>
</linearGradient>
<linearGradient id="paint18_linear_1836_3261" x1="388.425" y1="0.510009" x2="388.425" y2="0.510009" gradientUnits="userSpaceOnUse">
<stop stop-color="#7C77B6"/>
<stop offset="1" stop-color="#C4BBDC"/>
</linearGradient>
<linearGradient id="paint19_linear_1836_3261" x1="392.465" y1="0.510009" x2="392.465" y2="0.510009" gradientUnits="userSpaceOnUse">
<stop stop-color="#7C77B6"/>
<stop offset="1" stop-color="#C4BBDC"/>
</linearGradient>
<linearGradient id="paint20_linear_1836_3261" x1="299" y1="1372" x2="299" y2="-19.8471" gradientUnits="userSpaceOnUse">
<stop stop-color="white"/>
<stop offset="1" stop-color="white" stop-opacity="0"/>
</linearGradient>
<clipPath id="clip0_1836_3261">
<rect width="605.83" height="1371.49" fill="white" transform="translate(0.865234 0.51001)"/>
</clipPath>
</defs>
</svg>
