<svg width="16" height="17" viewBox="0 0 16 17" fill="none" xmlns="http://www.w3.org/2000/svg">
<path d="M15.8452 6.66033H15.2041V6.6273H8.04089V9.81094H12.539C11.8828 11.6642 10.1194 12.9946 8.04089 12.9946C5.40364 12.9946 3.26543 10.8564 3.26543 8.21912C3.26543 5.58187 5.40364 3.44365 8.04089 3.44365C9.25824 3.44365 10.3657 3.90289 11.209 4.65304L13.4602 2.40181C12.0388 1.07701 10.1373 0.26001 8.04089 0.26001C3.64548 0.26001 0.0817871 3.8237 0.0817871 8.21912C0.0817871 12.6145 3.64548 16.1782 8.04089 16.1782C12.4363 16.1782 16 12.6145 16 8.21912C16 7.68546 15.9451 7.16453 15.8452 6.66033Z" fill="#FFC107"/>
<path d="M0.999512 4.51455L3.61448 6.4323C4.32204 4.6805 6.03564 3.44365 8.04093 3.44365C9.25828 3.44365 10.3658 3.90289 11.2091 4.65304L13.4603 2.40181C12.0388 1.07701 10.1374 0.26001 8.04093 0.26001C4.98384 0.26001 2.33266 1.98594 0.999512 4.51455Z" fill="#FF3D00"/>
<path d="M8.04092 16.1782C10.0968 16.1782 11.9648 15.3914 13.3771 14.112L10.9138 12.0275C10.0878 12.6556 9.07857 12.9954 8.04092 12.9946C5.97075 12.9946 4.21298 11.6745 3.55079 9.8324L0.955322 11.8321C2.27255 14.4097 4.94761 16.1782 8.04092 16.1782Z" fill="#4CAF50"/>
<path d="M15.8452 6.66035H15.2041V6.62732H8.04089V9.81096H12.539C12.2251 10.693 11.6596 11.4637 10.9125 12.028L10.9137 12.0272L13.3771 14.1117C13.2028 14.2701 16 12.1987 16 8.21914C16 7.68548 15.9451 7.16456 15.8452 6.66035Z" fill="#1976D2"/>
</svg>
