<svg width="18" height="18" viewBox="0 0 18 18" fill="none" xmlns="http://www.w3.org/2000/svg">
<path fill-rule="evenodd" clip-rule="evenodd" d="M1.35355 0.646447C1.15829 0.451184 0.841709 0.451184 0.646447 0.646447C0.451184 0.841709 0.451184 1.15829 0.646447 1.35355L3.16166 3.86876C1.82227 4.92787 0.863315 6.37417 0.284798 8.04173C0.0696031 8.66202 0.0696923 9.3383 0.284906 9.95858C1.50316 13.4698 4.40819 16 9 16C10.982 16 12.6498 15.5286 14.0032 14.7104L16.6464 17.3536C16.8417 17.5488 17.1583 17.5488 17.3536 17.3536C17.5488 17.1583 17.5488 16.8417 17.3536 16.6464L1.35355 0.646447ZM13.2718 13.9789L10.7383 11.4454C10.2479 11.7946 9.64791 12 9 12C7.34315 12 6 10.6569 6 9C6 8.35208 6.2054 7.75214 6.55463 7.26173L3.87427 4.58137C3.79463 4.64223 3.71661 4.70453 3.64018 4.76822C2.64911 5.59412 1.89176 6.68287 1.38351 7.95616C1.11629 8.6256 1.11629 9.3744 1.38351 10.0438C1.89176 11.3171 2.64911 12.4059 3.64018 13.2318C4.94314 14.3176 6.71034 15 9 15C10.7059 15 12.1219 14.6212 13.2718 13.9789ZM7.27691 7.98402C7.10096 8.28177 7 8.6291 7 9C7 10.1046 7.89543 11 9 11C9.3709 11 9.71823 10.899 10.016 10.7231L7.27691 7.98402ZM8.18274 6.11267L9.06956 7.00119C10.1201 7.0371 10.965 7.88322 10.9989 8.93427L11.8858 9.82279C11.9602 9.56134 12 9.28532 12 9C12 7.34315 10.6569 6 9 6C8.71669 6 8.44256 6.03927 8.18274 6.11267ZM16.6165 7.95616C16.8837 8.62561 16.8837 9.37437 16.6165 10.0438C16.1947 11.1005 15.6013 12.0302 14.8452 12.7879L15.5517 13.4957C16.524 12.522 17.2452 11.3131 17.7152 9.95826C17.9304 9.33796 17.9303 8.6617 17.7151 8.04142C16.4968 4.53016 13.5918 2 9 2C7.43622 2 6.06807 2.29345 4.89555 2.81916L5.65859 3.58367C6.61789 3.21049 7.72837 3 9 3C11.2897 3 13.0569 3.68242 14.3598 4.76822C15.3509 5.59412 16.1082 6.68287 16.6165 7.95616Z" fill="black"/>
</svg>
