<svg width="48" height="24" viewBox="0 0 48 24" fill="none" xmlns="http://www.w3.org/2000/svg">
<path fill-rule="evenodd" clip-rule="evenodd" d="M13.4254 4.10222C12.587 3.45012 11.413 3.45012 10.5746 4.10222L5.0024 8.43614C4.43685 8.87601 4.10607 9.55235 4.10607 10.2688V18.1932C4.10607 18.9625 4.72975 19.5862 5.49911 19.5862H8.28521C8.54166 19.5862 8.74956 19.3783 8.74956 19.1219V14.4784C8.74956 13.1961 9.78904 12.1566 11.0713 12.1566H12.9287C14.211 12.1566 15.2504 13.1961 15.2504 14.4784V19.1219C15.2504 19.3783 15.4583 19.5862 15.7148 19.5862H18.5009C19.2702 19.5862 19.8939 18.9625 19.8939 18.1932V10.2688C19.8939 9.55235 19.5631 8.87601 18.9976 8.43614L13.4254 4.10222ZM10.0044 3.36915C11.1782 2.45621 12.8218 2.45622 13.9956 3.36915L19.5678 7.70307C20.3595 8.31889 20.8226 9.26576 20.8226 10.2688V18.1932C20.8226 19.4754 19.7832 20.5149 18.5009 20.5149H15.7148C14.9454 20.5149 14.3217 19.8912 14.3217 19.1219V14.4784C14.3217 13.709 13.6981 13.0853 12.9287 13.0853H11.0713C10.3019 13.0853 9.67825 13.709 9.67825 14.4784V19.1219C9.67825 19.8912 9.05457 20.5149 8.28521 20.5149H5.49911C4.21685 20.5149 3.17737 19.4754 3.17737 18.1932V10.2688C3.17737 9.26576 3.64047 8.31889 4.43223 7.70307L10.0044 3.36915Z" fill="#191919"/>
<path fill-rule="evenodd" clip-rule="evenodd" d="M37.4254 4.10222C36.587 3.45012 35.413 3.45012 34.5746 4.10222L29.0024 8.43614C28.4369 8.87601 28.1061 9.55235 28.1061 10.2688V18.1932C28.1061 18.9625 28.7298 19.5862 29.4991 19.5862H32.2852C32.5417 19.5862 32.7496 19.3783 32.7496 19.1219V14.4784C32.7496 13.1961 33.789 12.1566 35.0713 12.1566H36.9287C38.211 12.1566 39.2504 13.1961 39.2504 14.4784V19.1219C39.2504 19.3783 39.4583 19.5862 39.7148 19.5862H42.5009C43.2702 19.5862 43.8939 18.9625 43.8939 18.1932V10.2688C43.8939 9.55235 43.5631 8.87601 42.9976 8.43614L37.4254 4.10222ZM34.0044 3.36915C35.1782 2.45621 36.8218 2.45622 37.9956 3.36915L43.5678 7.70307C44.3595 8.31889 44.8226 9.26576 44.8226 10.2688V18.1932C44.8226 19.4754 43.7832 20.5149 42.5009 20.5149H39.7148C38.9454 20.5149 38.3217 19.8912 38.3217 19.1219V14.4784C38.3217 13.709 37.6981 13.0853 36.9287 13.0853H35.0713C34.3019 13.0853 33.6783 13.709 33.6783 14.4784V19.1219C33.6783 19.8912 33.0546 20.5149 32.2852 20.5149H29.4991C28.2168 20.5149 27.1774 19.4754 27.1774 18.1932V10.2688C27.1774 9.26576 27.6405 8.31889 28.4322 7.70307L34.0044 3.36915Z" fill="#7D4FFF"/>
</svg>
