<svg width="180" height="88" viewBox="0 0 180 88" fill="none" xmlns="http://www.w3.org/2000/svg">
<path fill-rule="evenodd" clip-rule="evenodd" d="M136.425 26.6021C135.587 25.95 134.413 25.95 133.575 26.6021L128.002 30.936C127.437 31.3759 127.106 32.0522 127.106 32.7687V40.693C127.106 41.4624 127.73 42.0861 128.499 42.0861H131.285C131.542 42.0861 131.75 41.8782 131.75 41.6217V36.9782C131.75 35.696 132.789 34.6565 134.071 34.6565H135.929C137.211 34.6565 138.25 35.696 138.25 36.9782V41.6217C138.25 41.8782 138.458 42.0861 138.715 42.0861H141.501C142.27 42.0861 142.894 41.4624 142.894 40.693V32.7687C142.894 32.0522 142.563 31.3759 141.998 30.936L136.425 26.6021ZM133.004 25.869C134.178 24.9561 135.822 24.9561 136.996 25.869L142.568 30.203C143.36 30.8188 143.823 31.7656 143.823 32.7687V40.693C143.823 41.9753 142.783 43.0148 141.501 43.0148H138.715C137.945 43.0148 137.322 42.3911 137.322 41.6217V36.9782C137.322 36.2089 136.698 35.5852 135.929 35.5852H134.071C133.302 35.5852 132.678 36.2089 132.678 36.9782V41.6217C132.678 42.3911 132.055 43.0148 131.285 43.0148H128.499C127.217 43.0148 126.177 41.9753 126.177 40.693V32.7687C126.177 31.7656 126.64 30.8188 127.432 30.203L133.004 25.869Z" fill="#7D4FFF"/>
<path d="M125.065 53.836H129.205V60.532H125.065V53.836ZM128.269 54.628H126.001V59.74H128.269V54.628ZM132.937 52.588H133.897V63.436H132.937V52.588ZM128.701 56.668H131.197V57.496H128.701V56.668ZM130.789 52.816H131.737V62.896H130.789V52.816ZM143.364 52.6H144.372V60.52H143.364V52.6ZM137.4 62.38H144.696V63.196H137.4V62.38ZM137.4 59.704H138.384V62.656H137.4V59.704ZM138.552 53.344C140.172 53.344 141.372 54.448 141.372 56.02C141.372 57.58 140.172 58.696 138.552 58.696C136.932 58.696 135.72 57.58 135.72 56.02C135.72 54.448 136.932 53.344 138.552 53.344ZM138.552 54.208C137.496 54.208 136.692 54.952 136.692 56.02C136.692 57.076 137.496 57.82 138.552 57.82C139.608 57.82 140.412 57.076 140.412 56.02C140.412 54.952 139.608 54.208 138.552 54.208Z" fill="#7D4FFF"/>
<path fill-rule="evenodd" clip-rule="evenodd" d="M46.4254 26.6021C45.587 25.95 44.413 25.95 43.5746 26.6021L38.0024 30.936C37.4369 31.3759 37.1061 32.0522 37.1061 32.7687V40.693C37.1061 41.4624 37.7298 42.0861 38.4991 42.0861H41.2852C41.5417 42.0861 41.7496 41.8782 41.7496 41.6217V36.9782C41.7496 35.696 42.789 34.6565 44.0713 34.6565H45.9287C47.211 34.6565 48.2504 35.696 48.2504 36.9782V41.6217C48.2504 41.8782 48.4583 42.0861 48.7148 42.0861H51.5009C52.2702 42.0861 52.8939 41.4624 52.8939 40.693V32.7687C52.8939 32.0522 52.5631 31.3759 51.9976 30.936L46.4254 26.6021ZM43.0044 25.869C44.1782 24.9561 45.8218 24.9561 46.9956 25.869L52.5678 30.203C53.3595 30.8188 53.8226 31.7656 53.8226 32.7687V40.693C53.8226 41.9753 52.7832 43.0148 51.5009 43.0148H48.7148C47.9454 43.0148 47.3217 42.3911 47.3217 41.6217V36.9782C47.3217 36.2089 46.6981 35.5852 45.9287 35.5852H44.0713C43.3019 35.5852 42.6783 36.2089 42.6783 36.9782V41.6217C42.6783 42.3911 42.0546 43.0148 41.2852 43.0148H38.4991C37.2168 43.0148 36.1774 41.9753 36.1774 40.693V32.7687C36.1774 31.7656 36.6405 30.8188 37.4322 30.203L43.0044 25.869Z" fill="#191919"/>
<path d="M35.0649 53.836H39.2049V60.532H35.0649V53.836ZM38.2689 54.628H36.0009V59.74H38.2689V54.628ZM42.9369 52.588H43.8969V63.436H42.9369V52.588ZM38.7009 56.668H41.1969V57.496H38.7009V56.668ZM40.7889 52.816H41.7369V62.896H40.7889V52.816ZM53.364 52.6H54.372V60.52H53.364V52.6ZM47.4 62.38H54.696V63.196H47.4V62.38ZM47.4 59.704H48.384V62.656H47.4V59.704ZM48.552 53.344C50.172 53.344 51.372 54.448 51.372 56.02C51.372 57.58 50.172 58.696 48.552 58.696C46.932 58.696 45.72 57.58 45.72 56.02C45.72 54.448 46.932 53.344 48.552 53.344ZM48.552 54.208C47.496 54.208 46.692 54.952 46.692 56.02C46.692 57.076 47.496 57.82 48.552 57.82C49.608 57.82 50.412 57.076 50.412 56.02C50.412 54.952 49.608 54.208 48.552 54.208Z" fill="#191919"/>
</svg>
