<svg width="180" height="88" viewBox="0 0 180 88" fill="none" xmlns="http://www.w3.org/2000/svg">
<path d="M126 35.3041V34.0709C126 31.5477 126 30.2861 126.815 29.4743C127.63 28.6626 128.913 28.6274 131.479 28.5572C132.695 28.5239 133.937 28.5 135 28.5C136.063 28.5 137.305 28.5239 138.521 28.5572C141.087 28.6274 142.37 28.6626 143.185 29.4743C144 30.2861 144 31.5477 144 34.0709V35.3041C144 37.8273 144 39.0889 143.185 39.9006C142.37 40.7124 141.087 40.7475 138.521 40.8178C137.305 40.8511 136.063 40.875 135 40.875C133.937 40.875 132.695 40.8511 131.479 40.8178C128.913 40.7475 127.63 40.7124 126.815 39.9006C126 39.0889 126 37.8273 126 35.3041Z" stroke="#7D4FFF"/>
<path d="M137.25 34.6875L133.875 36.375V33L137.25 34.6875Z" fill="#7D4FFF" stroke="#7D4FFF" stroke-linecap="round" stroke-linejoin="round"/>
<path d="M127.165 59.128H128.161V63.52H127.165V59.128ZM131.017 59.128H132.013V63.52H131.017V59.128ZM124.669 58.864H134.509V59.68H124.669V58.864ZM125.917 53.176H133.237V57.4H125.917V53.176ZM132.265 53.968H126.901V56.608H132.265V53.968ZM143.352 52.576H144.348V63.448H143.352V52.576ZM136.092 53.5H137.076V56.368H140.208V53.5H141.204V60.832H136.092V53.5ZM137.076 57.16V60.016H140.208V57.16H137.076Z" fill="#7D4FFF"/>
<path d="M36 35.3041V34.0709C36 31.5477 36 30.2861 36.8149 29.4743C37.6299 28.6626 38.9129 28.6274 41.4789 28.5572C42.6949 28.5239 43.9369 28.5 45 28.5C46.0631 28.5 47.3052 28.5239 48.5211 28.5572C51.0871 28.6274 52.3701 28.6626 53.185 29.4743C54 30.2861 54 31.5477 54 34.0709V35.3041C54 37.8273 54 39.0889 53.185 39.9006C52.3701 40.7124 51.0871 40.7475 48.5212 40.8178C47.3052 40.8511 46.0631 40.875 45 40.875C43.9369 40.875 42.6948 40.8511 41.4788 40.8178C38.9129 40.7475 37.6299 40.7124 36.8149 39.9006C36 39.0889 36 37.8273 36 35.3041Z" stroke="#191919"/>
<path d="M47.25 34.6875L43.875 36.375V33L47.25 34.6875Z" fill="#191919" stroke="#191919" stroke-linecap="round" stroke-linejoin="round"/>
<path d="M37.1649 59.128H38.1609V63.52H37.1649V59.128ZM41.0169 59.128H42.0129V63.52H41.0169V59.128ZM34.6689 58.864H44.5089V59.68H34.6689V58.864ZM35.9169 53.176H43.2369V57.4H35.9169V53.176ZM42.2649 53.968H36.9009V56.608H42.2649V53.968ZM53.352 52.576H54.348V63.448H53.352V52.576ZM46.092 53.5H47.076V56.368H50.208V53.5H51.204V60.832H46.092V53.5ZM47.076 57.16V60.016H50.208V57.16H47.076Z" fill="#191919"/>
</svg>
