<svg width="24" height="24" viewBox="0 0 24 24" fill="none" xmlns="http://www.w3.org/2000/svg">
<path fill-rule="evenodd" clip-rule="evenodd" d="M11.0512 3.93557C7.12137 3.93557 3.93557 7.12137 3.93557 11.0512C3.93557 14.9811 7.12137 18.1669 11.0512 18.1669C13.0163 18.1669 14.7946 17.371 16.0828 16.0828C17.371 14.7946 18.1669 13.0163 18.1669 11.0512C18.1669 7.12137 14.9811 3.93557 11.0512 3.93557ZM2.98682 11.0512C2.98682 6.59738 6.59738 2.98682 11.0512 2.98682C15.5051 2.98682 19.1157 6.59738 19.1157 11.0512C19.1157 13.1073 18.3457 14.9843 17.0793 16.4084L20.8742 20.2034C21.0595 20.3886 21.0595 20.689 20.8742 20.8742C20.689 21.0595 20.3886 21.0595 20.2034 20.8742L16.4084 17.0793C14.9843 18.3457 13.1073 19.1157 11.0512 19.1157C6.59738 19.1157 2.98682 15.5051 2.98682 11.0512Z" fill="#191919"/>
</svg>
