<svg width="210" height="96" viewBox="0 0 210 96" fill="none" xmlns="http://www.w3.org/2000/svg">
<g clip-path="url(#clip0_438_1030)">
<path d="M154.895 18.4634H154.811C152.238 18.4634 150.151 20.5507 150.151 23.1235V53.4271C150.151 55.9999 152.238 58.0872 154.811 58.0872H154.895C157.468 58.0872 159.555 55.9999 159.555 53.4271V23.1235C159.555 20.5507 157.468 18.4634 154.895 18.4634Z" fill="#7D4FFF"/>
<path d="M102.588 49.7687C102.279 49.6583 101.957 49.5833 101.631 49.5436C100.81 49.4774 100.55 49.3847 100.351 49.2965C98.8771 48.639 99.1065 47.5048 98.9874 45.4263V22.585C98.9874 20.0431 97.0016 17.8631 94.4597 17.819C91.8737 17.7704 89.7599 19.8533 89.7599 22.4305V37.8846C89.7599 39.6366 89.6628 41.287 89.4643 42.8404C89.2657 44.3937 88.8862 45.7617 88.3213 46.9488C87.7565 48.0785 86.9754 48.9832 85.9913 49.6583C85.0072 50.3379 83.7495 50.6733 82.2226 50.6733C80.5898 50.6733 79.3145 50.3335 78.4098 49.6583C77.5052 48.9832 76.83 48.0476 76.3843 46.865C75.9298 45.6779 75.6473 44.3408 75.537 42.8448C75.4179 41.3488 75.3649 39.7822 75.3649 38.145V27.4039C75.3649 24.862 73.3791 22.682 70.8372 22.6379C68.2513 22.5894 66.1375 24.6723 66.1375 27.2494V38.5686C66.1375 44.4423 67.351 49.2568 69.7781 53.0078C72.2052 56.7632 76.0136 58.6387 81.2121 58.6387C83.9746 58.6387 86.181 58.2592 87.8138 57.5001C89.1554 56.8735 90.2498 56.0924 91.0971 55.148C91.3662 54.8436 91.834 54.8789 92.0767 55.2054C92.9681 56.419 94.345 57.3104 96.2028 57.8797C97.4296 58.2548 98.8197 58.2239 99.4816 58.2371C100.4 58.2548 101.145 58.215 101.772 58.1356C102.39 58.0562 102.986 57.862 103.502 57.5178C103.55 57.4869 103.594 57.456 103.634 57.4251C103.74 57.3457 105.082 56.344 105.395 54.6097C105.545 53.7756 105.444 52.9504 105.143 52.2134C104.689 51.1102 103.78 50.2056 102.593 49.7775L102.588 49.7687Z" fill="#7D4FFF"/>
<path d="M155.107 14.2579C158.126 14.2579 160.574 11.81 160.574 8.79028C160.574 5.77059 158.126 3.32265 155.107 3.32265C152.087 3.32265 149.639 5.77059 149.639 8.79028C149.639 11.81 152.087 14.2579 155.107 14.2579Z" fill="#7D4FFF"/>
<path d="M209.258 21.3936C209.147 20.864 208.944 20.3521 208.658 19.8976C207.793 18.5207 206.279 17.872 204.704 17.7308C203.843 17.6558 202.974 17.6999 202.109 17.7087C200.63 17.722 199.086 17.7882 197.7 18.3883C196.57 18.8782 195.613 19.6902 194.951 20.7272C194.814 20.9434 194.686 21.1641 194.571 21.3936C194.382 21.7775 193.861 21.8481 193.57 21.5348C192.767 20.6698 191.628 19.8225 190.167 18.9929C188.274 17.925 185.807 17.3866 182.758 17.3866C179.541 17.3866 176.853 18.0353 174.709 19.3327C172.564 20.6301 170.843 22.2982 169.546 24.3282C168.244 26.4199 167.326 28.7632 166.788 31.358C166.254 33.9572 165.984 36.552 165.984 39.1512C165.984 41.7504 166.315 44.3894 166.96 46.7282C167.608 49.0715 168.61 51.1235 169.965 52.8711C171.381 54.623 173.142 56.0043 175.26 57.0192C177.374 58.0386 179.907 58.5461 182.842 58.5461C185.379 58.5461 187.489 58.1357 189.148 57.3149C190.163 56.8162 190.997 56.3132 191.646 55.8013C192.06 55.4747 192.665 55.7571 192.665 56.2867V57.6988C192.608 60.5805 191.906 62.7825 190.547 64.305C189.845 65.0949 189.002 65.6907 188.04 66.1275C186.743 66.7145 185.304 66.9086 183.879 66.8336C178.31 66.5335 174.104 63.4445 174.104 63.4445L173.133 62.8046C171.024 61.4189 168.195 62.0014 166.805 64.1064C165.883 65.5053 165.817 67.3985 166.655 68.8547C167.22 69.8344 168.138 70.5714 169.109 71.1495C170.993 72.2703 173.036 73.1618 175.093 73.9208C177.105 74.6622 179.183 75.2226 181.315 75.4697C183.773 75.7566 186.174 75.6771 188.512 75.2403C192.188 74.5651 195.344 72.8264 197.996 70.033C200.652 67.2352 201.981 63.0164 201.981 57.3678V31.0667C201.981 28.2645 203.287 27.3245 204.187 27.0112C204.536 26.9009 204.792 26.8788 204.792 26.8788C204.858 26.8744 204.924 26.8612 204.99 26.8568C205.012 26.8568 205.021 26.8568 205.021 26.8568C206.275 26.7156 207.382 26.3007 208.247 25.3034C209.169 24.2399 209.545 22.7836 209.258 21.4024V21.3936ZM191.566 43.2244C191.31 44.6895 190.842 45.9869 190.167 47.1166C189.492 48.1889 188.583 49.0362 187.458 49.6584C186.328 50.2807 184.889 50.5896 183.137 50.5896C181.386 50.5896 179.89 50.2674 178.817 49.6143C177.749 48.9656 176.955 48.0786 176.447 46.9489C175.878 45.8765 175.516 44.6189 175.344 43.1758C175.177 41.7372 175.093 40.2545 175.093 38.732C175.093 37.2095 175.177 35.6694 175.344 34.1161C175.516 32.5627 175.909 31.1417 176.536 29.8355C177.092 28.5425 177.913 27.4834 178.989 26.6626C180.057 25.8462 181.469 25.4358 183.221 25.4358C185.088 25.4358 186.584 25.8286 187.714 26.6229C188.839 27.4128 189.713 28.4278 190.335 29.6678C190.953 30.9696 191.381 32.3818 191.61 33.9042C191.831 35.4311 191.946 36.9536 191.946 38.476C191.946 40.1706 191.813 41.7549 191.566 43.2244Z" fill="#7D4FFF"/>
<path d="M145.654 50.6867C145.098 50.1571 144.419 49.7776 143.682 49.5702C143.567 49.5393 143.457 49.5128 143.342 49.4908C143.223 49.4643 143.099 49.4422 142.98 49.4157C142.773 49.3672 142.525 49.2966 142.349 49.1642C142.005 48.9524 141.749 48.6347 141.599 48.2596C141.497 48.0036 141.44 47.7256 141.431 47.452C141.431 47.399 141.431 47.3461 141.431 47.2887V7.63843C141.431 5.07451 139.423 2.87245 136.859 2.82391C134.247 2.77537 132.115 4.88034 132.115 7.48397V19.774C132.115 20.2992 131.515 20.5816 131.1 20.2639C130.46 19.7696 129.64 19.2665 128.642 18.7502C127.001 17.9029 124.913 17.4793 122.376 17.4793C119.441 17.4793 116.908 18.0044 114.795 19.0459C112.681 20.0917 110.916 21.4907 109.503 23.2382C108.144 24.9901 107.147 27.0465 106.498 29.4207C105.85 31.7905 105.519 34.3058 105.519 36.958C105.519 39.6102 105.788 42.2359 106.326 44.8307C106.865 47.4299 107.782 49.7467 109.084 51.7767C110.382 53.811 112.103 55.4615 114.247 56.728C116.392 57.9989 119.08 58.6344 122.297 58.6344C125.341 58.6344 127.808 58.1137 129.706 57.0678C131.162 56.2602 132.296 55.4129 133.099 54.5215C133.391 54.1994 133.916 54.27 134.11 54.6627C134.494 55.4394 135.001 56.1146 135.632 56.6883C136.506 57.4826 137.508 58.0166 138.638 58.299C139.423 58.5064 140.209 58.5505 141.087 58.5417V58.5682L142.459 58.5417C144.983 58.5417 147.027 56.4985 147.027 53.9743V53.8772C147.027 53.2727 146.903 52.6681 146.66 52.1121C146.427 51.5781 146.082 51.0927 145.659 50.6867H145.654ZM131.356 42.1609C131.127 43.7142 130.703 45.1131 130.081 46.3532C129.459 47.6506 128.585 48.6832 127.46 49.4422C126.33 50.2057 124.834 50.5852 122.967 50.5852C121.215 50.5852 119.803 50.188 118.735 49.3981C117.659 48.6038 116.838 47.5623 116.282 46.2605C115.655 44.9631 115.262 43.5245 115.09 41.9446C114.927 40.3648 114.843 38.8114 114.843 37.2846C114.843 35.7577 114.927 34.2926 115.09 32.8805C115.262 31.4727 115.629 30.1974 116.193 29.0677C116.705 27.9953 117.495 27.1216 118.563 26.442C119.64 25.7668 121.079 25.427 122.883 25.427C124.688 25.427 126.074 25.7491 127.204 26.3978C128.329 27.051 129.238 27.9115 129.913 28.9838C130.588 30.1135 131.056 31.4109 131.312 32.876C131.559 34.3455 131.692 35.8989 131.692 37.5361C131.692 39.0586 131.573 40.5987 131.352 42.152L131.356 42.1609Z" fill="#7D4FFF"/>
<path d="M145.654 50.6867C145.098 50.1571 144.419 49.7776 143.682 49.5702C143.567 49.5393 143.457 49.5128 143.342 49.4908C143.223 49.4643 143.099 49.4422 142.98 49.4158C142.773 49.3672 142.525 49.2966 142.349 49.1642C142.005 48.9524 141.749 48.6347 141.599 48.2596C141.497 48.0036 141.44 47.7256 141.431 47.452C141.431 47.399 141.431 47.3461 141.431 47.2887V7.63844C141.431 5.07452 139.423 2.87246 136.859 2.82392C134.247 2.77537 132.115 4.88035 132.115 7.48398V19.774C132.115 20.2992 131.515 20.5816 131.1 20.2639C130.46 19.7696 129.64 19.2665 128.642 18.7502C127.001 17.9029 124.913 17.4793 122.376 17.4793C119.441 17.4793 116.908 18.0044 114.795 19.0459C112.681 20.0918 110.916 21.4907 109.503 23.2382C108.144 24.9901 107.147 27.0466 106.498 29.4207C105.85 31.7905 105.519 34.3058 105.519 36.958C105.519 39.6102 105.788 42.2359 106.326 44.8307C106.865 47.4299 107.782 49.7467 109.084 51.7767C110.382 53.811 112.103 55.4615 114.247 56.728C116.392 57.9989 119.08 58.6344 122.297 58.6344C125.341 58.6344 127.808 58.1137 129.706 57.0678C131.162 56.2602 132.296 55.4129 133.099 54.5215C133.391 54.1994 133.916 54.27 134.11 54.6627C134.494 55.4394 135.001 56.1146 135.632 56.6883C136.506 57.4826 137.508 58.0166 138.638 58.299C139.423 58.5064 140.209 58.5505 141.087 58.5417V58.5682L142.459 58.5417C144.983 58.5417 147.027 56.4985 147.027 53.9743V53.8772C147.027 53.2727 146.903 52.6681 146.66 52.1121C146.427 51.5781 146.082 51.0927 145.659 50.6867H145.654ZM131.356 42.1609C131.127 43.7142 130.703 45.1131 130.081 46.3532C129.459 47.6506 128.585 48.6832 127.46 49.4422C126.33 50.2057 124.834 50.5852 122.967 50.5852C121.215 50.5852 119.803 50.188 118.735 49.3981C117.659 48.6038 116.838 47.5623 116.282 46.2605C115.655 44.9631 115.262 43.5245 115.09 41.9446C114.927 40.3648 114.843 38.8115 114.843 37.2846C114.843 35.7577 114.927 34.2926 115.09 32.8805C115.262 31.4727 115.629 30.1974 116.193 29.0677C116.705 27.9953 117.495 27.1216 118.563 26.442C119.64 25.7668 121.079 25.427 122.883 25.427C124.688 25.427 126.074 25.7491 127.204 26.3978C128.329 27.051 129.238 27.9115 129.913 28.9838C130.588 30.1135 131.056 31.411 131.312 32.876C131.559 34.3456 131.692 35.8989 131.692 37.5361C131.692 39.0586 131.573 40.5987 131.352 42.152L131.356 42.1609Z" fill="#7D4FFF"/>
<path d="M145.654 50.6867C145.098 50.1571 144.419 49.7776 143.682 49.5702C143.567 49.5393 143.457 49.5128 143.342 49.4908C143.223 49.4643 143.099 49.4422 142.98 49.4158C142.773 49.3672 142.525 49.2966 142.349 49.1642C142.005 48.9524 141.749 48.6347 141.599 48.2596C141.497 48.0036 141.44 47.7256 141.431 47.452C141.431 47.399 141.431 47.3461 141.431 47.2887V7.63844C141.431 5.07452 139.423 2.87246 136.859 2.82392C134.247 2.77537 132.115 4.88035 132.115 7.48398V19.774C132.115 20.2992 131.515 20.5816 131.1 20.2639C130.46 19.7696 129.64 19.2665 128.642 18.7502C127.001 17.9029 124.913 17.4793 122.376 17.4793C119.441 17.4793 116.908 18.0044 114.795 19.0459C112.681 20.0918 110.916 21.4907 109.503 23.2382C108.144 24.9901 107.147 27.0466 106.498 29.4207C105.85 31.7905 105.519 34.3058 105.519 36.958C105.519 39.6102 105.788 42.2359 106.326 44.8307C106.865 47.4299 107.782 49.7467 109.084 51.7767C110.382 53.811 112.103 55.4615 114.247 56.728C116.392 57.9989 119.08 58.6344 122.297 58.6344C125.341 58.6344 127.808 58.1137 129.706 57.0678C131.162 56.2602 132.296 55.4129 133.099 54.5215C133.391 54.1994 133.916 54.27 134.11 54.6627C134.494 55.4394 135.001 56.1146 135.632 56.6883C136.506 57.4826 137.508 58.0166 138.638 58.299C139.423 58.5064 140.209 58.5505 141.087 58.5417V58.5682L142.459 58.5417C144.983 58.5417 147.027 56.4985 147.027 53.9743V53.8772C147.027 53.2727 146.903 52.6681 146.66 52.1121C146.427 51.5781 146.082 51.0927 145.659 50.6867H145.654ZM131.356 42.1609C131.127 43.7142 130.703 45.1131 130.081 46.3532C129.459 47.6506 128.585 48.6832 127.46 49.4422C126.33 50.2057 124.834 50.5852 122.967 50.5852C121.215 50.5852 119.803 50.188 118.735 49.3981C117.659 48.6038 116.838 47.5623 116.282 46.2605C115.655 44.9631 115.262 43.5245 115.09 41.9446C114.927 40.3648 114.843 38.8115 114.843 37.2846C114.843 35.7577 114.927 34.2926 115.09 32.8805C115.262 31.4727 115.629 30.1974 116.193 29.0677C116.705 27.9953 117.495 27.1216 118.563 26.442C119.64 25.7668 121.079 25.427 122.883 25.427C124.688 25.427 126.074 25.7491 127.204 26.3978C128.329 27.051 129.238 27.9115 129.913 28.9838C130.588 30.1135 131.056 31.411 131.312 32.876C131.559 34.3456 131.692 35.8989 131.692 37.5361C131.692 39.0586 131.573 40.5987 131.352 42.152L131.356 42.1609Z" fill="#7D4FFF"/>
<path d="M145.654 50.6867C145.098 50.1571 144.419 49.7776 143.682 49.5702C143.567 49.5393 143.457 49.5128 143.342 49.4908C143.223 49.4643 143.099 49.4422 142.98 49.4158C142.773 49.3672 142.525 49.2966 142.349 49.1642C142.005 48.9524 141.749 48.6347 141.599 48.2596C141.497 48.0036 141.44 47.7256 141.431 47.452C141.431 47.399 141.431 47.3461 141.431 47.2887V7.63844C141.431 5.07452 139.423 2.87246 136.859 2.82392C134.247 2.77537 132.115 4.88035 132.115 7.48398V19.774C132.115 20.2992 131.515 20.5816 131.1 20.2639C130.46 19.7696 129.64 19.2665 128.642 18.7502C127.001 17.9029 124.913 17.4793 122.376 17.4793C119.441 17.4793 116.908 18.0044 114.795 19.0459C112.681 20.0918 110.916 21.4907 109.503 23.2382C108.144 24.9901 107.147 27.0466 106.498 29.4207C105.85 31.7905 105.519 34.3058 105.519 36.958C105.519 39.6102 105.788 42.2359 106.326 44.8307C106.865 47.4299 107.782 49.7467 109.084 51.7767C110.382 53.811 112.103 55.4615 114.247 56.728C116.392 57.9989 119.08 58.6344 122.297 58.6344C125.341 58.6344 127.808 58.1137 129.706 57.0678C131.162 56.2602 132.296 55.4129 133.099 54.5215C133.391 54.1994 133.916 54.27 134.11 54.6627C134.494 55.4394 135.001 56.1146 135.632 56.6883C136.506 57.4826 137.508 58.0166 138.638 58.299C139.423 58.5064 140.209 58.5505 141.087 58.5417V58.5682L142.459 58.5417C144.983 58.5417 147.027 56.4985 147.027 53.9743V53.8772C147.027 53.2727 146.903 52.6681 146.66 52.1121C146.427 51.5781 146.082 51.0927 145.659 50.6867H145.654ZM131.356 42.1609C131.127 43.7142 130.703 45.1131 130.081 46.3532C129.459 47.6506 128.585 48.6832 127.46 49.4422C126.33 50.2057 124.834 50.5852 122.967 50.5852C121.215 50.5852 119.803 50.188 118.735 49.3981C117.659 48.6038 116.838 47.5623 116.282 46.2605C115.655 44.9631 115.262 43.5245 115.09 41.9446C114.927 40.3648 114.843 38.8115 114.843 37.2846C114.843 35.7577 114.927 34.2926 115.09 32.8805C115.262 31.4727 115.629 30.1974 116.193 29.0677C116.705 27.9953 117.495 27.1216 118.563 26.442C119.64 25.7668 121.079 25.427 122.883 25.427C124.688 25.427 126.074 25.7491 127.204 26.3978C128.329 27.051 129.238 27.9115 129.913 28.9838C130.588 30.1135 131.056 31.411 131.312 32.876C131.559 34.3456 131.692 35.8989 131.692 37.5361C131.692 39.0586 131.573 40.5987 131.352 42.152L131.356 42.1609Z" fill="#7D4FFF"/>
<path d="M145.654 50.6867C145.098 50.1571 144.419 49.7776 143.682 49.5702C143.567 49.5393 143.457 49.5128 143.342 49.4908C143.223 49.4643 143.099 49.4422 142.98 49.4158C142.773 49.3672 142.525 49.2966 142.349 49.1642C142.005 48.9524 141.749 48.6347 141.599 48.2596C141.497 48.0036 141.44 47.7256 141.431 47.452C141.431 47.399 141.431 47.3461 141.431 47.2887V7.63844C141.431 5.07452 139.423 2.87246 136.859 2.82392C134.247 2.77537 132.115 4.88035 132.115 7.48398V19.774C132.115 20.2992 131.515 20.5816 131.1 20.2639C130.46 19.7696 129.64 19.2665 128.642 18.7502C127.001 17.9029 124.913 17.4793 122.376 17.4793C119.441 17.4793 116.908 18.0044 114.795 19.0459C112.681 20.0918 110.916 21.4907 109.503 23.2382C108.144 24.9901 107.147 27.0466 106.498 29.4207C105.85 31.7905 105.519 34.3058 105.519 36.958C105.519 39.6102 105.788 42.2359 106.326 44.8307C106.865 47.4299 107.782 49.7467 109.084 51.7767C110.382 53.811 112.103 55.4615 114.247 56.728C116.392 57.9989 119.08 58.6344 122.297 58.6344C125.341 58.6344 127.808 58.1137 129.706 57.0678C131.162 56.2602 132.296 55.4129 133.099 54.5215C133.391 54.1994 133.916 54.27 134.11 54.6627C134.494 55.4394 135.001 56.1146 135.632 56.6883C136.506 57.4826 137.508 58.0166 138.638 58.299C139.423 58.5064 140.209 58.5505 141.087 58.5417V58.5682L142.459 58.5417C144.983 58.5417 147.027 56.4985 147.027 53.9743V53.8772C147.027 53.2727 146.903 52.6681 146.66 52.1121C146.427 51.5781 146.082 51.0927 145.659 50.6867H145.654ZM131.356 42.1609C131.127 43.7142 130.703 45.1131 130.081 46.3532C129.459 47.6506 128.585 48.6832 127.46 49.4422C126.33 50.2057 124.834 50.5852 122.967 50.5852C121.215 50.5852 119.803 50.188 118.735 49.3981C117.659 48.6038 116.838 47.5623 116.282 46.2605C115.655 44.9631 115.262 43.5245 115.09 41.9446C114.927 40.3648 114.843 38.8115 114.843 37.2846C114.843 35.7577 114.927 34.2926 115.09 32.8805C115.262 31.4727 115.629 30.1974 116.193 29.0677C116.705 27.9953 117.495 27.1216 118.563 26.442C119.64 25.7668 121.079 25.427 122.883 25.427C124.688 25.427 126.074 25.7491 127.204 26.3978C128.329 27.051 129.238 27.9115 129.913 28.9838C130.588 30.1135 131.056 31.411 131.312 32.876C131.559 34.3456 131.692 35.8989 131.692 37.5361C131.692 39.0586 131.573 40.5987 131.352 42.152L131.356 42.1609Z" fill="#7D4FFF"/>
<path d="M54.8315 0H54.7168C52.6692 0 50.9834 1.33712 50.3568 3.1729C50.3435 3.17732 50.2906 3.19938 50.2906 3.19938L49.5139 5.2867L33.8965 43.6528C33.6847 44.1735 32.9477 44.1691 32.7359 43.6484L18.3277 7.81973C18.3277 7.81973 17.5775 5.3882 14.6605 3.8525C13.3499 3.15967 11.8715 2.84635 10.3932 2.84635H5.1815C2.66172 2.94343 0.649414 5.04399 0.649414 7.54613C0.653827 10.013 2.61759 12.0915 5.10648 12.2283C5.10648 12.2283 5.82138 12.2415 6.38624 12.9343C6.75692 13.3889 7.06583 14.1347 7.06583 15.357V53.7761C7.06583 56.3665 9.09137 58.5862 11.6818 58.6347C14.3163 58.6833 16.4698 56.5607 16.4698 53.935V28.0222C16.4698 27.6074 17.0435 27.497 17.1935 27.8854L27.0565 53.1186C27.9479 55.3957 29.9734 57.0991 32.4005 57.3991C35.3881 57.7698 38.1947 56.0708 39.2891 53.3392L49.3639 28.1766C49.5183 27.7927 50.0876 27.903 50.0876 28.3134V53.9747C50.0876 56.5474 52.1749 58.6347 54.7477 58.6347H54.8315C57.4042 58.6347 59.4916 56.5474 59.4916 53.9747V4.66007C59.4916 2.08291 57.4042 0 54.8315 0Z" fill="#7D4FFF"/>
</g>
<path d="M8.36054 74.4286H17.1355V75.4686H8.36054V74.4286ZM8.42554 77.3926H17.0705V78.4326H8.42554V77.3926ZM10.0245 74.8316H11.3895V78.0686H10.0245V74.8316ZM14.1065 74.8316H15.4715V78.0686H14.1065V74.8316ZM7.38554 79.2516H18.1235V80.3306H7.38554V79.2516ZM8.65954 81.2016H16.7845V83.9576H10.0245V85.2446H8.67254V83.0216H15.4455V82.1896H8.65954V81.2016ZM8.67254 84.8546H17.1225V85.8686H8.67254V84.8546ZM27.5345 74.0776H28.8995V85.9856H27.5345V74.0776ZM19.7605 82.0466H20.7745C22.8155 82.0466 24.5445 81.9686 26.5465 81.6306L26.6895 82.7356C24.6355 83.0866 22.8675 83.1646 20.7745 83.1646H19.7605V82.0466ZM19.7345 75.1436H25.2725V79.5506H21.1385V82.4626H19.7605V78.4586H23.8945V76.2486H19.7345V75.1436ZM31.9145 75.1956H39.5065V76.3006H31.9145V75.1956ZM30.7965 83.2946H41.5345V84.4126H30.7965V83.2946ZM34.8005 79.1216H36.1655V83.8536H34.8005V79.1216ZM38.9995 75.1956H40.3645V76.3526C40.3645 77.8346 40.3645 79.4856 39.9095 81.9426L38.5445 81.7866C38.9995 79.4726 38.9995 77.7826 38.9995 76.3526V75.1956ZM43.1065 75.0786H48.7355V80.7076H43.1065V75.0786ZM47.4095 76.1706H44.4325V79.6156H47.4095V76.1706ZM50.9195 74.1036H52.2845V82.5926H50.9195V74.1036ZM44.5235 84.5426H52.6225V85.6476H44.5235V84.5426ZM44.5235 81.7996H45.8885V85.0106H44.5235V81.7996ZM54.1815 80.2526H64.9195V81.3446H54.1815V80.2526ZM55.5335 84.6336H63.7235V85.7386H55.5335V84.6336ZM55.5335 82.2806H56.8985V84.9716H55.5335V82.2806ZM59.5505 74.4676C62.1115 74.4676 63.7885 75.3776 63.7885 76.8726C63.7885 78.3676 62.1115 79.2776 59.5505 79.2776C56.9895 79.2776 55.3255 78.3676 55.3255 76.8726C55.3255 75.3776 56.9895 74.4676 59.5505 74.4676ZM59.5505 75.5596C57.8085 75.5596 56.7295 76.0406 56.7295 76.8726C56.7295 77.7176 57.8085 78.1856 59.5505 78.1856C61.3055 78.1856 62.3845 77.7176 62.3845 76.8726C62.3845 76.0406 61.3055 75.5596 59.5505 75.5596ZM71.1534 81.1626H72.5184V86.0376H71.1534V81.1626ZM75.3524 81.1626H76.7174V86.0376H75.3524V81.1626ZM68.5404 80.8506H79.3044V81.9556H68.5404V80.8506ZM69.8534 74.7016H77.9654V79.3946H69.8534V74.7016ZM76.6264 75.7806H71.1924V78.3156H76.6264V75.7806ZM80.9414 79.3816H81.9424C84.6074 79.3816 86.0244 79.3166 87.6364 79.0046L87.7664 80.0966C86.1154 80.4086 84.6594 80.4866 81.9424 80.4866H80.9414V79.3816ZM80.9414 75.0396H86.5444V76.1446H82.2934V79.9536H80.9414V75.0396ZM82.0334 81.7606H90.0414V85.9726H88.6764V82.8526H82.0334V81.7606ZM88.6764 74.1036H90.0414V81.1366H88.6764V74.1036ZM96.7353 78.6016H98.8413V79.7066H96.7353V78.6016ZM100.791 74.0906H102.091V85.9726H100.791V74.0906ZM98.3993 74.3116H99.6863V85.4006H98.3993V74.3116ZM94.6163 75.0136C96.1763 75.0136 97.1773 76.6256 97.1773 79.2256C97.1773 81.8386 96.1763 83.4506 94.6163 83.4506C93.0693 83.4506 92.0683 81.8386 92.0683 79.2256C92.0683 76.6256 93.0693 75.0136 94.6163 75.0136ZM94.6163 76.2876C93.8103 76.2876 93.3163 77.3536 93.3163 79.2256C93.3163 81.0976 93.8103 82.1636 94.6163 82.1636C95.4353 82.1636 95.9293 81.0976 95.9293 79.2256C95.9293 77.3536 95.4353 76.2876 94.6163 76.2876ZM112.49 74.0906H113.803V85.9726H112.49V74.0906ZM107.537 78.8096H110.332V79.9016H107.537V78.8096ZM110.007 74.3766H111.281V85.4006H110.007V74.3766ZM107.446 75.5466H108.759C108.759 78.7836 107.615 81.5396 104.352 83.4506L103.572 82.4886C106.328 80.8376 107.446 78.6406 107.446 75.8066V75.5466ZM104.157 75.5466H107.914V76.6516H104.157V75.5466ZM118.425 74.9096H123.976V79.8886H118.425V74.9096ZM122.637 76.0016H119.764V78.8096H122.637V76.0016ZM125.913 74.0906H127.278V80.4606H125.913V74.0906ZM126.901 76.7036H128.955V77.8346H126.901V76.7036ZM119.712 81.0326H127.343V82.0206H121.064V85.3486H119.712V81.0326ZM119.712 84.8546H127.603V85.8296H119.712V84.8546ZM120.635 82.9306H127.226V83.8796H120.635V82.9306ZM134.362 75.3516H135.701C135.701 78.8226 134.31 81.8516 130.358 83.8146L129.643 82.7486C132.919 81.0976 134.362 78.7316 134.362 75.5856V75.3516ZM130.176 75.3516H135.064V76.4436H130.176V75.3516ZM138.184 74.0776H139.536V85.9596H138.184V74.0776ZM135.246 77.2496H138.418V78.3416H135.246V77.2496ZM135.116 80.4606H138.288V81.5656H135.116V80.4606ZM143.916 80.1746H145.268V83.6196H143.916V80.1746ZM148.271 80.1746H149.636V83.6196H148.271V80.1746ZM141.407 83.3986H152.171V84.5166H141.407V83.3986ZM146.763 74.7666C149.298 74.7666 151.131 75.9886 151.131 77.8866C151.131 79.7716 149.298 80.9936 146.763 80.9936C144.228 80.9936 142.395 79.7716 142.395 77.8866C142.395 75.9886 144.228 74.7666 146.763 74.7666ZM146.763 75.8326C144.969 75.8326 143.721 76.6256 143.721 77.8866C143.721 79.1346 144.969 79.9276 146.763 79.9276C148.557 79.9276 149.805 79.1346 149.805 77.8866C149.805 76.6256 148.557 75.8326 146.763 75.8326Z" fill="#7D4FFF"/>
<defs>
<clipPath id="clip0_438_1030">
<rect width="208.701" height="75.6334" fill="white" transform="translate(0.649414)"/>
</clipPath>
</defs>
</svg>
