<svg width="180" height="88" viewBox="0 0 180 88" fill="none" xmlns="http://www.w3.org/2000/svg">
<path fill-rule="evenodd" clip-rule="evenodd" d="M135 27C132.791 27 131 28.7909 131 31C131 33.2091 132.791 35 135 35C137.209 35 139 33.2091 139 31C139 28.7909 137.209 27 135 27ZM130 31C130 28.2386 132.239 26 135 26C137.761 26 140 28.2386 140 31C140 33.7614 137.761 36 135 36C132.239 36 130 33.7614 130 31Z" fill="#7D4FFF"/>
<path fill-rule="evenodd" clip-rule="evenodd" d="M135 36C131.445 36 128.547 38.4506 128.07 41.579C128.04 41.7707 128.199 42 128.5 42H141.5C141.801 42 141.96 41.7707 141.93 41.579C141.453 38.4506 138.555 36 135 36ZM127.081 41.428C127.64 37.7685 130.996 35 135 35C139.004 35 142.36 37.7685 142.919 41.428C143.056 42.3282 142.304 43 141.5 43H128.5C127.696 43 126.944 42.3282 127.081 41.428Z" fill="#7D4FFF"/>
<path d="M108.902 53.668H113.882V60.688H108.902V53.668ZM112.91 54.472H109.874V59.884H112.91V54.472ZM115.814 52.588H116.822V63.436H115.814V52.588ZM116.582 56.92H118.598V57.76H116.582V56.92ZM127.153 52.576H128.149V63.448H127.153V52.576ZM122.425 53.416C124.033 53.416 125.185 54.892 125.185 57.196C125.185 59.512 124.033 60.988 122.425 60.988C120.829 60.988 119.677 59.512 119.677 57.196C119.677 54.892 120.829 53.416 122.425 53.416ZM122.425 54.316C121.369 54.316 120.625 55.444 120.625 57.196C120.625 58.96 121.369 60.112 122.425 60.112C123.493 60.112 124.225 58.96 124.225 57.196C124.225 55.444 123.493 54.316 122.425 54.316ZM138.384 52.588H139.344V63.436H138.384V52.588ZM134.808 56.716H136.608V57.592H134.808V56.716ZM136.284 52.852H137.232V62.872H136.284V52.852ZM130.176 53.956H135.132V54.772H130.176V53.956ZM130.08 60.772L129.96 59.932C131.364 59.932 133.716 59.884 135.36 59.668L135.432 60.4C133.74 60.724 131.472 60.772 130.08 60.772ZM131.064 54.484H131.976V60.16H131.064V54.484ZM133.32 54.484H134.232V60.16H133.32V54.484ZM148.752 52.576H149.748V63.448H148.752V52.576ZM144.024 53.416C145.632 53.416 146.784 54.892 146.784 57.196C146.784 59.512 145.632 60.988 144.024 60.988C142.428 60.988 141.276 59.512 141.276 57.196C141.276 54.892 142.428 53.416 144.024 53.416ZM144.024 54.316C142.968 54.316 142.224 55.444 142.224 57.196C142.224 58.96 142.968 60.112 144.024 60.112C145.092 60.112 145.824 58.96 145.824 57.196C145.824 55.444 145.092 54.316 144.024 54.316ZM154.547 54.136H155.351V55.9C155.351 58.192 153.971 60.496 152.243 61.348L151.667 60.556C153.239 59.812 154.547 57.772 154.547 55.9V54.136ZM154.739 54.136H155.543V55.9C155.543 57.736 156.851 59.608 158.447 60.292L157.883 61.084C156.131 60.268 154.739 58.156 154.739 55.9V54.136ZM152.027 53.692H158.087V54.532H152.027V53.692ZM159.551 52.588H160.547V63.436H159.551V52.588Z" fill="#7D4FFF"/>
<path fill-rule="evenodd" clip-rule="evenodd" d="M45 27C42.7908 27 41 28.7909 41 31C41 33.2091 42.7908 35 45 35C47.2091 35 49 33.2091 49 31C49 28.7909 47.2091 27 45 27ZM40 31C40 28.2386 42.2385 26 45 26C47.7614 26 50 28.2386 50 31C50 33.7614 47.7614 36 45 36C42.2385 36 40 33.7614 40 31Z" fill="#191919"/>
<path fill-rule="evenodd" clip-rule="evenodd" d="M45 36C41.445 36 38.5474 38.4506 38.0697 41.579C38.0404 41.7707 38.1994 42 38.5 42H51.5C51.8006 42 51.9596 41.7707 51.9303 41.579C51.4526 38.4506 48.555 36 45 36ZM37.0812 41.428C37.64 37.7685 40.9956 35 45 35C49.0044 35 52.36 37.7685 52.9188 41.428C53.0563 42.3282 52.304 43 51.5 43H38.5C37.696 43 36.9437 42.3282 37.0812 41.428Z" fill="#191919"/>
<path d="M19.9103 54.496V59.86H22.9223V54.496H19.9103ZM18.9503 60.652V53.704H23.8823V60.652H18.9503ZM28.5743 56.92V57.748H26.7983V63.388H25.8143V52.636H26.7983V56.92H28.5743ZM37.1414 52.624H38.1254V63.412H37.1414V52.624ZM32.4494 53.452C34.0454 53.452 35.1854 54.916 35.1854 57.208C35.1854 59.5 34.0454 60.964 32.4494 60.964C30.8534 60.964 29.7134 59.5 29.7134 57.208C29.7134 54.916 30.8534 53.452 32.4494 53.452ZM32.4494 54.34C31.3934 54.34 30.6494 55.468 30.6494 57.208C30.6494 58.96 31.3934 60.088 32.4494 60.088C33.4934 60.088 34.2374 58.96 34.2374 57.208C34.2374 55.468 33.4934 54.34 32.4494 54.34ZM42.0005 54.784V59.884C42.4445 59.872 42.8885 59.86 43.3445 59.836V54.784H42.0005ZM44.2445 54.784V59.776C44.6285 59.74 45.0245 59.704 45.3725 59.656L45.4325 60.376C43.7645 60.688 41.5085 60.736 40.1045 60.736L40.0085 59.92C40.3325 59.92 40.6925 59.92 41.1005 59.908V54.784H40.2125V53.992H45.1325V54.784H44.2445ZM46.2845 56.728V52.888H47.2085V62.824H46.2845V57.592H44.8085V56.728H46.2845ZM48.3605 52.636H49.3085V63.388H48.3605V52.636ZM58.7395 52.624H59.7235V63.412H58.7395V52.624ZM54.0475 53.452C55.6435 53.452 56.7835 54.916 56.7835 57.208C56.7835 59.5 55.6435 60.964 54.0475 60.964C52.4515 60.964 51.3115 59.5 51.3115 57.208C51.3115 54.916 52.4515 53.452 54.0475 53.452ZM54.0475 54.34C52.9915 54.34 52.2475 55.468 52.2475 57.208C52.2475 58.96 52.9915 60.088 54.0475 60.088C55.0915 60.088 55.8355 58.96 55.8355 57.208C55.8355 55.468 55.0915 54.34 54.0475 54.34ZM65.5546 54.544V55.912C65.5546 57.736 66.8506 59.596 68.4346 60.268L67.8826 61.06C66.6346 60.484 65.5786 59.248 65.0626 57.772C64.5706 59.344 63.5146 60.7 62.2906 61.324L61.7146 60.532C63.2626 59.8 64.5706 57.772 64.5706 55.912V54.544H62.0746V53.728H68.0866V54.544H65.5546ZM69.5386 52.636H70.5226V63.388H69.5386V52.636Z" fill="#191919"/>
</svg>
