<svg width="180" height="88" viewBox="0 0 180 88" fill="none" xmlns="http://www.w3.org/2000/svg">
<path d="M126.446 33.9094H138.618" stroke="#7D4FFF" stroke-width="1.06806" stroke-linecap="round" stroke-linejoin="round"/>
<path d="M126.446 39.126H136.01" stroke="#7D4FFF" stroke-width="1.06806" stroke-linecap="round" stroke-linejoin="round"/>
<path d="M126.446 28.6929H142.096" stroke="#7D4FFF" stroke-width="1.06806" stroke-linecap="round" stroke-linejoin="round"/>
<path d="M142.096 40.4301C142.096 41.1503 141.512 41.7342 140.791 41.7342C140.071 41.7342 139.487 41.1503 139.487 40.4301C139.487 39.7099 140.071 39.126 140.791 39.126C141.512 39.126 142.096 39.7099 142.096 40.4301Z" fill="#7D4FFF"/>
<path d="M142.096 40.4301C142.096 41.1503 141.512 41.7342 140.791 41.7342C140.071 41.7342 139.487 41.1503 139.487 40.4301C139.487 39.7099 140.071 39.126 140.791 39.126C141.512 39.126 142.096 39.7099 142.096 40.4301ZM142.096 40.4301V33.5617C142.096 33.2736 142.329 33.04 142.617 33.04H143.834" stroke="#7D4FFF" stroke-width="1.06806" stroke-linecap="round"/>
<path d="M113.56 52.912H121.528V53.692H113.56V52.912ZM113.608 55.756H121.48V56.524H113.608V55.756ZM115.204 53.212H116.2V56.26H115.204V53.212ZM118.9 53.212H119.884V56.26H118.9V53.212ZM112.648 57.424H122.452V58.228H112.648V57.424ZM113.836 59.176H121.204V61.552H114.844V62.86H113.86V60.844H120.22V59.92H113.836V59.176ZM113.86 62.56H121.528V63.316H113.86V62.56ZM131.355 52.576H132.351V63.448H131.355V52.576ZM124.083 60.004H124.983C126.795 60.004 128.415 59.932 130.335 59.62L130.443 60.436C128.475 60.76 126.843 60.832 124.983 60.832H124.083V60.004ZM124.059 53.596H129.075V57.472H125.079V60.316H124.083V56.656H128.067V54.412H124.059V53.596ZM138.97 53.26H139.762V54.712C139.762 56.332 138.826 58.036 137.23 58.744L136.69 57.964C138.118 57.34 138.97 55.936 138.97 54.712V53.26ZM139.126 53.26H139.918V54.712C139.918 55.912 140.734 57.136 142.126 57.676L141.586 58.432C140.026 57.808 139.126 56.308 139.126 54.712V53.26ZM144.886 52.6H145.834V59.284H144.886V52.6ZM143.158 55.492H145.21V56.308H143.158V55.492ZM142.558 52.804H143.506V58.936H142.558V52.804ZM142.27 59.524C144.502 59.524 145.894 60.244 145.894 61.48C145.894 62.704 144.502 63.412 142.27 63.412C140.026 63.412 138.658 62.704 138.658 61.48C138.658 60.244 140.026 59.524 142.27 59.524ZM142.27 60.304C140.638 60.304 139.63 60.736 139.63 61.48C139.63 62.212 140.638 62.644 142.27 62.644C143.902 62.644 144.898 62.212 144.898 61.48C144.898 60.736 143.902 60.304 142.27 60.304ZM150.225 53.2H151.053V54.316C151.053 56.416 149.865 58.132 148.005 58.828L147.489 58.012C149.145 57.424 150.225 55.972 150.225 54.316V53.2ZM150.405 53.2H151.221V54.28C151.221 55.816 152.277 57.172 153.861 57.724L153.321 58.504C151.569 57.844 150.405 56.248 150.405 54.28V53.2ZM155.421 52.588H156.417V59.008H155.421V52.588ZM152.853 59.32C155.085 59.32 156.465 60.076 156.465 61.372C156.465 62.668 155.085 63.412 152.853 63.412C150.609 63.412 149.229 62.668 149.229 61.372C149.229 60.076 150.609 59.32 152.853 59.32ZM152.853 60.112C151.221 60.112 150.225 60.58 150.225 61.372C150.225 62.164 151.221 62.632 152.853 62.632C154.485 62.632 155.481 62.164 155.481 61.372C155.481 60.58 154.485 60.112 152.853 60.112ZM153.069 54.88H155.637V55.708H153.069V54.88Z" fill="#7D4FFF"/>
<path d="M36.446 33.9094H48.6179" stroke="#191919" stroke-width="1.06806" stroke-linecap="round" stroke-linejoin="round"/>
<path d="M36.446 39.126H46.0096" stroke="#191919" stroke-width="1.06806" stroke-linecap="round" stroke-linejoin="round"/>
<path d="M36.446 28.6929H52.0956" stroke="#191919" stroke-width="1.06806" stroke-linecap="round" stroke-linejoin="round"/>
<path d="M52.0956 40.4301C52.0956 41.1503 51.5117 41.7342 50.7914 41.7342C50.0712 41.7342 49.4873 41.1503 49.4873 40.4301C49.4873 39.7099 50.0712 39.126 50.7914 39.126C51.5117 39.126 52.0956 39.7099 52.0956 40.4301Z" fill="#191919"/>
<path d="M52.0956 40.4301C52.0956 41.1503 51.5117 41.7342 50.7914 41.7342C50.0712 41.7342 49.4873 41.1503 49.4873 40.4301C49.4873 39.7099 50.0712 39.126 50.7914 39.126C51.5117 39.126 52.0956 39.7099 52.0956 40.4301ZM52.0956 40.4301V33.5617C52.0956 33.2736 52.3291 33.04 52.6172 33.04H53.8344" stroke="#191919" stroke-width="1.06806" stroke-linecap="round"/>
<path d="M23.5601 52.912H31.5281V53.692H23.5601V52.912ZM23.6081 55.756H31.4801V56.524H23.6081V55.756ZM25.2041 53.212H26.2001V56.26H25.2041V53.212ZM28.9001 53.212H29.8841V56.26H28.9001V53.212ZM22.6481 57.424H32.4521V58.228H22.6481V57.424ZM23.8361 59.176H31.2041V61.552H24.8441V62.86H23.8601V60.844H30.2201V59.92H23.8361V59.176ZM23.8601 62.56H31.5281V63.316H23.8601V62.56ZM41.3551 52.576H42.3511V63.448H41.3551V52.576ZM34.0831 60.004H34.9831C36.7951 60.004 38.4151 59.932 40.3351 59.62L40.4431 60.436C38.4751 60.76 36.8431 60.832 34.9831 60.832H34.0831V60.004ZM34.0591 53.596H39.0751V57.472H35.0791V60.316H34.0831V56.656H38.0671V54.412H34.0591V53.596ZM48.9698 53.26H49.7618V54.712C49.7618 56.332 48.8258 58.036 47.2298 58.744L46.6898 57.964C48.1178 57.34 48.9698 55.936 48.9698 54.712V53.26ZM49.1258 53.26H49.9178V54.712C49.9178 55.912 50.7338 57.136 52.1258 57.676L51.5858 58.432C50.0258 57.808 49.1258 56.308 49.1258 54.712V53.26ZM54.8858 52.6H55.8338V59.284H54.8858V52.6ZM53.1578 55.492H55.2098V56.308H53.1578V55.492ZM52.5578 52.804H53.5058V58.936H52.5578V52.804ZM52.2698 59.524C54.5018 59.524 55.8938 60.244 55.8938 61.48C55.8938 62.704 54.5018 63.412 52.2698 63.412C50.0258 63.412 48.6578 62.704 48.6578 61.48C48.6578 60.244 50.0258 59.524 52.2698 59.524ZM52.2698 60.304C50.6378 60.304 49.6298 60.736 49.6298 61.48C49.6298 62.212 50.6378 62.644 52.2698 62.644C53.9018 62.644 54.8978 62.212 54.8978 61.48C54.8978 60.736 53.9018 60.304 52.2698 60.304ZM60.2249 53.2H61.0529V54.316C61.0529 56.416 59.8649 58.132 58.0049 58.828L57.4889 58.012C59.1449 57.424 60.2249 55.972 60.2249 54.316V53.2ZM60.4049 53.2H61.2209V54.28C61.2209 55.816 62.2769 57.172 63.8609 57.724L63.3209 58.504C61.5689 57.844 60.4049 56.248 60.4049 54.28V53.2ZM65.4209 52.588H66.4169V59.008H65.4209V52.588ZM62.8529 59.32C65.0849 59.32 66.4649 60.076 66.4649 61.372C66.4649 62.668 65.0849 63.412 62.8529 63.412C60.6089 63.412 59.2289 62.668 59.2289 61.372C59.2289 60.076 60.6089 59.32 62.8529 59.32ZM62.8529 60.112C61.2209 60.112 60.2249 60.58 60.2249 61.372C60.2249 62.164 61.2209 62.632 62.8529 62.632C64.4849 62.632 65.4809 62.164 65.4809 61.372C65.4809 60.58 64.4849 60.112 62.8529 60.112ZM63.0689 54.88H65.6369V55.708H63.0689V54.88Z" fill="#191919"/>
</svg>
