<svg width="360" height="471" viewBox="0 0 360 471" fill="none" xmlns="http://www.w3.org/2000/svg">
<g clip-path="url(#clip0_438_998)">
<path d="M205.711 85.2186C260.746 112.716 289.246 167.265 269.365 207.056C268.64 208.507 267.857 209.909 267.028 211.271C267.984 214.596 268.85 217.989 269.599 221.451C272.328 218.025 274.706 214.302 276.702 210.306C298.025 167.647 267.612 108.896 208.609 79.4168C149.607 49.9377 84.3721 60.9006 63.0605 103.556C61.9587 105.761 61.0049 108.003 60.1805 110.282C63.6503 108.89 67.1238 107.639 70.5715 106.513C90.9482 67.5246 151.13 57.9395 205.722 85.2149L205.711 85.2186Z" fill="#8F3DC9"/>
<path d="M254.149 147.575C249.925 138.372 240.412 132.722 230.327 133.62C220.927 134.463 209.718 137.167 199.778 140.052C185.591 144.181 170.643 136.713 165.426 122.889C161.772 113.212 157.203 102.625 152.225 94.5983C146.887 85.9947 136.657 81.7803 126.761 83.929C94.7692 90.879 7.40056 117.638 -21.0559 206.244C-32.2589 241.142 -19.665 279.847 4.07943 306.432C21.984 326.475 45.473 340.023 69.2685 351.884C89.7154 362.082 110.092 372.031 132.616 376.719C161.02 382.634 191.045 380.009 216.297 365.022C227.376 358.452 237.625 349.766 245.098 339.212C298.871 263.255 267.806 177.323 254.145 147.564L254.149 147.575Z" fill="#DBB2F4"/>
<path d="M158.87 293.412C181.33 281.514 207.38 285.587 220.836 301.965C235.944 259.382 210.604 204.21 159.113 178.484C107.622 152.758 48.2472 165.632 23.279 203.316C44.5037 204.182 63.4696 222.582 67.4541 247.738C71.1904 271.355 60.5348 293.385 42.724 302.103C53.6519 312.437 67.1027 321.719 82.473 329.398C97.8434 337.077 114.6 342.703 130.132 345.247C126.745 325.929 137.944 304.494 158.858 293.415L158.87 293.412Z" fill="#FFF5F6"/>
<path d="M67.4615 247.742C63.4769 222.586 44.5148 204.179 23.2863 203.319C21.6814 205.736 20.2246 208.244 18.9157 210.864C3.30545 242.108 14.6917 275.586 42.7313 302.107C60.5311 293.393 71.1977 271.359 67.4615 247.742Z" fill="#FFE9FE"/>
<path d="M217.417 310.031C218.729 307.404 219.872 304.71 220.84 301.957C207.372 285.583 181.334 281.507 158.873 293.404C137.955 304.491 126.748 325.922 130.147 345.236C168.125 351.459 202.025 340.838 217.42 310.024L217.417 310.031Z" fill="#FFE9FE"/>
<path d="M115.603 228.745C118.348 224.378 117.651 219.001 114.046 216.734C110.442 214.468 105.294 216.171 102.548 220.537C99.8028 224.904 100.499 230.281 104.104 232.548C107.709 234.814 112.857 233.111 115.603 228.745Z" fill="#3A1221"/>
<path d="M149.774 255.346C153.751 256.868 158.47 254.196 160.313 249.378C162.156 244.561 160.427 239.422 156.45 237.9C152.473 236.378 147.754 239.05 145.911 243.868C144.068 248.685 145.798 253.824 149.774 255.346Z" fill="#3A1221"/>
<path d="M126.115 246.714C127.467 247.39 128.953 247.16 129.433 246.199C129.913 245.239 129.205 243.912 127.852 243.236C126.5 242.56 125.014 242.791 124.534 243.751C124.054 244.712 124.762 246.038 126.115 246.714Z" fill="#3A1221"/>
<path d="M110.138 278.691C75.9521 260.825 98.5372 245.698 98.5372 245.698C100.709 247.014 103.37 248.371 106.492 249.469C114.914 252.419 117.369 250.187 123.423 253.212C129.876 256.436 129.611 260.224 137.322 265.113C139.89 266.747 142.376 267.878 144.545 268.684C141.512 296.465 110.138 278.691 110.138 278.691Z" fill="#7C3844"/>
<path d="M116.804 265.977C107.162 261.159 97.8159 258.45 91.2195 258.179C91.2508 263.854 95.4668 271.019 110.131 278.687C110.131 278.687 128.295 288.974 138.315 281.653C134.118 276.56 126.38 270.761 116.797 265.973L116.804 265.977Z" fill="#FFB0BF"/>
<path d="M110.138 278.691C75.9521 260.825 98.5372 245.698 98.5372 245.698C100.709 247.014 103.37 248.371 106.492 249.469C114.914 252.419 117.369 250.187 123.423 253.212C129.876 256.436 129.611 260.224 137.322 265.113C139.89 266.747 142.376 267.878 144.545 268.684C141.512 296.465 110.138 278.691 110.138 278.691Z" stroke="#391020" stroke-width="1.6545" stroke-linecap="round" stroke-linejoin="round"/>
<path d="M137.874 416.687C136.09 424.753 126.139 425.809 110.536 419.525C94.9447 413.24 83.7785 404.709 87.1815 396.266C90.2703 388.609 97.7369 379.984 113.335 386.274C128.926 392.559 140.017 406.98 137.868 416.694L137.874 416.687Z" fill="#8F3DC9"/>
<path d="M-19.7204 340.964C-24.5722 347.639 -18.7725 355.799 -3.73519 363.312C11.3021 370.825 25.0876 373.533 29.1584 365.385C32.8483 357.999 34.3544 346.693 19.317 339.18C4.2797 331.667 -13.8774 332.916 -19.7204 340.964Z" fill="#8F3DC9"/>
<path d="M57.7471 51.1124L54.3811 77.8947" stroke="#8F3DC9" stroke-width="2.48175" stroke-miterlimit="10"/>
<path d="M54.1614 50.1069C59.0454 52.547 64.9829 50.5659 67.4231 45.6819C69.8633 40.7979 67.8821 34.8604 62.9981 32.4202C58.1141 29.9801 52.1766 31.9612 49.7364 36.8452C47.2963 41.7292 49.2774 47.6667 54.1614 50.1069Z" fill="#D9B3F4"/>
<path d="M96.7103 99.8571C78.4426 77.8389 43.1447 76.9875 17.8717 97.9569C-7.4012 118.926 -13.077 153.774 5.1907 175.792C10.6607 182.391 35.5886 170.737 60.8615 149.768C86.1345 128.798 102.18 106.455 96.7103 99.8571Z" fill="#8F3DC9"/>
<path d="M89.4283 93.1486C71.564 71.6187 37.0504 70.7892 12.3434 91.2923C-12.3637 111.795 -17.9213 145.87 -0.0570295 167.4C5.29449 173.847 29.6639 162.46 54.3709 141.957C79.078 121.453 94.7761 99.6027 89.4246 93.156L89.4283 93.1486Z" fill="#F6E9FF"/>
<path d="M3.0915 106.848L21.1544 99.5877C21.4318 99.4767 21.6539 99.8281 21.4431 100.028L8.1247 112.766C6.79323 114.043 6.74207 116.162 8.01882 117.494L8.06323 117.535C9.33998 118.866 11.4599 118.917 12.7913 117.64L38.3851 93.1601C39.7276 91.8796 39.7677 89.7635 38.4909 88.432L38.4354 88.3765C37.4214 87.3151 35.8897 87.1046 34.6247 87.6933C34.6173 87.6896 34.5803 87.6711 34.5803 87.6711L33.108 88.3041L5.43845 99.2447C5.06114 99.3891 4.69847 99.0044 4.86114 98.6418L4.93509 98.4938C2.67171 101.044 0.64514 103.712 -1.12243 106.49C0.131961 107.256 1.68583 107.422 3.0878 106.855L3.0915 106.848Z" fill="#D9B3F4"/>
<path d="M320.833 182.557L301.446 201.335" stroke="#8F3DC9" stroke-width="2.48175" stroke-miterlimit="10"/>
<path d="M323.79 184.82C328.674 187.26 334.612 185.279 337.052 180.395C339.492 175.511 337.511 169.574 332.627 167.134C327.743 164.693 321.806 166.674 319.365 171.559C316.925 176.443 318.906 182.38 323.79 184.82Z" fill="#D9B3F4"/>
<path d="M258.466 180.674C287.042 182.06 308.918 209.775 307.326 242.576C305.734 275.377 281.276 300.841 252.7 299.454C244.139 299.043 238.489 272.111 240.081 239.311C241.674 206.51 249.905 180.262 258.466 180.674Z" fill="#8F3DC9"/>
<path d="M268.204 182.469C296.147 183.826 317.535 210.926 315.976 242.995C314.417 275.063 290.507 299.969 262.563 298.612C254.195 298.204 248.667 271.879 250.226 239.811C251.785 207.742 259.831 182.068 268.2 182.477L268.204 182.469Z" fill="#F6E9FF"/>
<path d="M309.085 259.73L304.044 240.927C303.966 240.638 303.552 240.671 303.519 240.96L301.33 259.259C301.109 261.09 299.444 262.404 297.613 262.183L297.554 262.172C295.723 261.95 294.409 260.286 294.63 258.454L298.837 223.289C299.055 221.446 300.723 220.143 302.554 220.365L302.632 220.376C304.09 220.549 305.178 221.648 305.467 223.013C305.474 223.016 305.511 223.035 305.511 223.035L305.889 224.592L313.755 253.288C313.866 253.676 314.392 253.735 314.584 253.387L314.658 253.239C313.978 256.58 313.062 259.803 311.901 262.885C310.536 262.341 309.47 261.199 309.081 259.737L309.085 259.73Z" fill="#D9B3F4"/>
<path d="M250.279 398.525C257.102 391.663 257.512 381.008 251.194 374.726C244.877 368.444 234.224 368.914 227.401 375.776C220.578 382.638 220.168 393.293 226.486 399.575C232.803 405.856 243.456 405.386 250.279 398.525Z" fill="#8F3DC9"/>
<path d="M134.047 263.06L133.316 268.096C133.132 269.391 134.523 270.326 135.648 269.667L140.157 267.028L134.055 263.064L134.047 263.06Z" fill="white"/>
<path d="M148.496 269.919C147.383 269.63 146.036 269.235 144.545 268.684C142.377 267.878 139.89 266.747 137.322 265.112C129.611 260.224 129.876 256.435 123.423 253.211C117.37 250.187 114.914 252.419 106.493 249.469C103.37 248.371 100.709 247.014 98.5373 245.698C96.9647 244.736 95.64 243.797 94.5854 242.983" stroke="#391020" stroke-width="1.6545" stroke-linecap="round" stroke-linejoin="round"/>
</g>
<defs>
<clipPath id="clip0_438_998">
<rect width="380.312" height="348.868" fill="white" transform="translate(51.2871 0.814636) rotate(26.5479)"/>
</clipPath>
</defs>
</svg>
