<svg width="188" height="187" viewBox="0 0 188 187" fill="none" xmlns="http://www.w3.org/2000/svg">
<path d="M139.494 177.762C140.638 182.019 136.191 184.977 127.258 185.852C118.325 186.726 110.92 185.45 110.479 180.61C110.037 176.225 111.459 170.304 120.387 169.425C129.316 168.547 138.112 172.635 139.494 177.762Z" fill="#8F3DC9"/>
<path d="M48.403 179.361C47.6788 183.71 52.3771 186.218 61.3719 186.218C70.3666 186.218 77.573 184.222 77.573 179.361C77.573 174.945 75.5947 169.204 66.6176 169.204C57.6406 169.204 49.2861 174.124 48.403 179.361Z" fill="#8F3DC9"/>
<path d="M94.2994 3.45748C127.139 3.45748 153.757 22.7054 153.757 46.4486C153.757 47.3317 153.717 48.1707 153.651 49.0229C154.9 50.3785 156.123 51.7959 157.302 53.2664C157.793 50.9597 158.04 48.608 158.04 46.2499C158.04 20.7979 129.501 0 94.2994 0C59.0976 0 30.5547 20.7979 30.5547 46.2499C30.5576 47.5528 30.6343 48.8546 30.7843 50.1489C32.109 48.6564 33.469 47.2301 34.8467 45.8745C35.275 22.3963 61.7249 3.45748 94.2994 3.45748Z" fill="#8F3DC9"/>
<path d="M132.301 21.6809C130.251 20.0195 127.736 19.0337 125.103 18.859C122.47 18.6842 119.848 19.3291 117.596 20.7051C113.309 23.3545 108.602 27.3286 104.548 31.0643C101.759 33.6466 98.0981 35.0812 94.2971 35.0812C90.4961 35.0812 86.8351 33.6466 84.046 31.0643C79.9924 27.3153 75.2853 23.3501 70.9977 20.7051C68.7461 19.3291 66.1236 18.6842 63.4907 18.859C60.8577 19.0337 58.3436 20.0195 56.2935 21.6809C42.6623 32.6318 7.33686 66.2528 14.8921 115.351C17.8683 134.687 33.1155 150.164 50.7959 157.194C64.1225 162.493 78.575 163.376 92.7449 163.345C104.937 163.345 117.031 163.23 128.914 160.095C143.887 156.121 157.616 147.731 166.085 134.546C169.803 128.77 172.629 122.182 173.68 115.351C181.253 66.2528 145.919 32.6318 132.301 21.6809Z" fill="#DBB2F4"/>
<path d="M121.597 114.044C129.488 103.005 142.894 98.7391 153.231 103.345C150.281 79.4073 125.024 59.1084 94.2994 59.1084C63.5751 59.1084 38.2953 79.4205 35.3633 103.371C45.7048 98.7215 59.1506 102.983 67.0546 114.044C74.473 124.43 74.6364 137.496 68.216 145.903C76.4953 148.319 85.0836 149.509 93.7077 149.436C102.694 149.5 111.639 148.219 120.246 145.634C114.02 137.235 114.254 124.328 121.597 114.044Z" fill="#FFF5F6"/>
<path d="M67.0545 114.044C59.1504 103.005 45.7047 98.7214 35.3631 103.371C35.1723 104.912 35.0765 106.464 35.0762 108.016C35.0762 126.659 48.4998 139.929 68.1938 145.903C74.6363 137.496 74.4552 124.43 67.0545 114.044Z" fill="#FFE9FE"/>
<path d="M153.518 108.025C153.518 106.464 153.422 104.903 153.231 103.353C142.894 98.7478 129.488 103.013 121.597 114.053C114.254 124.337 114.02 137.244 120.246 145.66C139.865 139.562 153.518 126.403 153.518 108.025Z" fill="#FFE9FE"/>
<path d="M65.5666 125.388C70.3221 125.388 74.1772 121.2 74.1772 116.035C74.1772 110.87 70.3221 106.683 65.5666 106.683C60.8111 106.683 56.9561 110.87 56.9561 116.035C56.9561 121.2 60.8111 125.388 65.5666 125.388Z" fill="#8F3DC9"/>
<path d="M122.087 125.388C126.843 125.388 130.698 121.2 130.698 116.035C130.698 110.87 126.843 106.683 122.087 106.683C117.332 106.683 113.477 110.87 113.477 116.035C113.477 121.2 117.332 125.388 122.087 125.388Z" fill="#8F3DC9"/>
<path d="M16.0968 22.1515L14.8472 22.5911L19.6283 36.183L20.878 35.7435L16.0968 22.1515Z" fill="#391020"/>
<path d="M13.5541 22.8511C16.4683 22.8511 18.8308 20.4886 18.8308 17.5743C18.8308 14.6601 16.4683 12.2976 13.5541 12.2976C10.6398 12.2976 8.27734 14.6601 8.27734 17.5743C8.27734 20.4886 10.6398 22.8511 13.5541 22.8511Z" fill="#CC9EE8"/>
<path d="M45.7535 36.4559C31.7779 30.3004 14.7201 38.3149 7.65501 54.3571C0.589915 70.3992 6.19345 88.3887 20.1647 94.5398C24.3551 96.3855 33.4735 84.8738 40.5386 68.8361C47.6037 52.7983 49.9263 38.2972 45.7535 36.4559Z" fill="#8F3DC9"/>
<path d="M40.6621 34.9898C26.9956 28.9712 10.3176 36.8047 3.41149 52.4936C-3.49463 68.1825 1.98079 85.7702 15.6429 91.7932C19.7362 93.5947 28.6559 82.3436 35.5664 66.6591C42.477 50.9746 44.7555 36.7914 40.6621 34.9898Z" fill="#F6E9FF"/>
<path d="M2.70485 62.1287L9.59777 54.3482C9.62071 54.325 9.65074 54.3101 9.68315 54.306C9.71557 54.3019 9.74839 54.3088 9.7764 54.3256C9.80442 54.3424 9.82601 54.3681 9.83764 54.3987C9.84927 54.4292 9.85028 54.4628 9.84055 54.494L6.51995 63.7669C6.4382 63.9873 6.4013 64.2219 6.41139 64.4568C6.42148 64.6917 6.47835 64.9222 6.5787 65.1349C6.67905 65.3475 6.82087 65.5379 6.9958 65.6951C7.17072 65.8522 7.37531 65.9728 7.59746 66.0498H7.62829C8.07511 66.2087 8.56667 66.184 8.99536 65.9813C9.42405 65.7785 9.75503 65.4141 9.91569 64.968L16.2919 47.1728C16.375 46.9518 16.413 46.7164 16.4036 46.4805C16.3942 46.2446 16.3376 46.013 16.2371 45.7993C16.1367 45.5857 15.9945 45.3943 15.8189 45.2366C15.6432 45.0789 15.4377 44.958 15.2145 44.881H15.1747C14.8243 44.7567 14.4437 44.7461 14.0869 44.8507C13.7301 44.9554 13.4154 45.1699 13.1877 45.4639H13.1611L12.6357 46.1086L2.03807 57.9338C2.00792 57.9768 1.96461 58.009 1.91464 58.0253C1.86466 58.0417 1.81069 58.0413 1.76091 58.0244C1.71113 58.0075 1.6682 57.9749 1.63855 57.9315C1.6089 57.888 1.59416 57.8362 1.5965 57.7836V57.6865C1.13302 59.413 0.803819 61.1727 0.611816 62.95C1.00057 62.9857 1.39232 62.9301 1.75573 62.7875C2.11915 62.6449 2.44416 62.4193 2.70485 62.1287Z" fill="#D9B3F4"/>
<path d="M171.783 22.2266L167.005 35.8193L168.254 36.2587L173.033 22.6659L171.783 22.2266Z" fill="#391020"/>
<path d="M174.44 22.8511C177.354 22.8511 179.716 20.4886 179.716 17.5743C179.716 14.6601 177.354 12.2976 174.44 12.2976C171.525 12.2976 169.163 14.6601 169.163 17.5743C169.163 20.4886 171.525 22.8511 174.44 22.8511Z" fill="#CC9EE8"/>
<path d="M142.258 36.4559C156.234 30.3004 173.287 38.3149 180.352 54.3571C187.417 70.3992 181.818 88.3887 167.842 94.5398C163.656 96.3855 154.534 84.8738 147.469 68.8361C140.403 52.7983 138.072 38.2972 142.258 36.4559Z" fill="#8F3DC9"/>
<path d="M147.336 34.9898C160.998 28.9712 177.676 36.8047 184.587 52.4936C191.497 68.1825 186.018 85.7702 172.351 91.7932C168.258 93.5947 159.338 82.3436 152.432 66.6591C145.526 50.9746 143.243 36.7914 147.336 34.9898Z" fill="#F6E9FF"/>
<path d="M185.289 62.1286L178.4 54.3482C178.377 54.3249 178.347 54.31 178.315 54.3059C178.282 54.3018 178.25 54.3087 178.222 54.3256C178.194 54.3424 178.172 54.3681 178.16 54.3986C178.149 54.4292 178.148 54.4627 178.157 54.4939L181.474 63.7668C181.555 63.9873 181.592 64.2218 181.582 64.4568C181.572 64.6917 181.515 64.9222 181.415 65.1348C181.314 65.3474 181.173 65.5379 180.998 65.695C180.823 65.8521 180.618 65.9727 180.396 66.0498H180.365C180.145 66.1314 179.91 66.1681 179.675 66.1577C179.44 66.1473 179.209 66.0901 178.996 65.9893C178.783 65.8885 178.593 65.7462 178.436 65.5708C178.279 65.3954 178.159 65.1905 178.082 64.9679L171.702 47.1727C171.619 46.9517 171.581 46.7164 171.59 46.4805C171.599 46.2446 171.656 46.0129 171.756 45.7993C171.857 45.5856 171.999 45.3943 172.175 45.2366C172.35 45.0788 172.556 44.9579 172.779 44.881H172.823C173.172 44.7567 173.551 44.7452 173.907 44.8482C174.263 44.9513 174.577 45.1635 174.806 45.455H174.832L175.384 46.1085L185.982 57.9337C186.014 57.9683 186.056 57.9926 186.102 58.0037C186.148 58.0148 186.196 58.0122 186.241 57.9963C186.286 57.9803 186.325 57.9517 186.353 57.9139C186.382 57.8761 186.398 57.8308 186.402 57.7836V57.6865C186.866 59.4126 187.193 61.1725 187.382 62.9499C186.993 62.985 186.602 62.929 186.238 62.7865C185.875 62.6439 185.55 62.4187 185.289 62.1286Z" fill="#D9B3F4"/>
<path d="M94.8158 99.5649C95.6231 99.5649 96.2774 99.1003 96.2774 98.5272C96.2774 97.9541 95.6231 97.4895 94.8158 97.4895C94.0086 97.4895 93.3542 97.9541 93.3542 98.5272C93.3542 99.1003 94.0086 99.5649 94.8158 99.5649Z" fill="#3A1221"/>
<path d="M106.138 103.667L105.286 106.246C105.237 106.394 105.147 106.526 105.027 106.626C104.906 106.725 104.76 106.789 104.605 106.809C104.45 106.83 104.292 106.806 104.15 106.74C104.008 106.675 103.887 106.571 103.802 106.44L102.279 104.104L106.138 103.667Z" fill="white"/>
<path d="M104.482 107.261C104.27 107.262 104.062 107.209 103.876 107.108C103.69 107.007 103.533 106.861 103.418 106.683L101.894 104.347C101.851 104.283 101.825 104.208 101.82 104.13C101.814 104.053 101.829 103.975 101.864 103.905C101.896 103.837 101.946 103.779 102.008 103.736C102.07 103.692 102.142 103.666 102.217 103.658L106.076 103.216C106.15 103.208 106.224 103.219 106.293 103.247C106.362 103.275 106.422 103.32 106.469 103.378C106.515 103.435 106.547 103.504 106.56 103.577C106.573 103.65 106.568 103.725 106.544 103.795L105.692 106.374C105.622 106.606 105.487 106.813 105.302 106.97C105.117 107.126 104.89 107.226 104.65 107.257L104.482 107.261ZM103.025 104.462L104.155 106.197C104.195 106.259 104.252 106.309 104.32 106.34C104.387 106.371 104.462 106.383 104.535 106.374C104.608 106.364 104.676 106.335 104.733 106.288C104.789 106.241 104.831 106.179 104.853 106.109L105.489 104.184L103.025 104.462Z" fill="#391020"/>
<path d="M95.0809 106.224C93.5809 106.225 92.0994 105.892 90.7447 105.248C89.25 104.592 87.667 104.161 86.0465 103.967C84.5188 103.776 82.9754 103.743 81.441 103.87C80.6066 103.942 79.7767 104.058 78.9549 104.219C78.8969 104.23 78.8373 104.23 78.7794 104.218C78.7215 104.206 78.6664 104.183 78.6174 104.15C78.5684 104.117 78.5264 104.075 78.4938 104.026C78.4611 103.977 78.4386 103.921 78.4273 103.863C78.416 103.805 78.4162 103.746 78.4279 103.688C78.4397 103.63 78.4626 103.575 78.4956 103.526C78.5286 103.477 78.571 103.435 78.6202 103.402C78.6695 103.37 78.7247 103.347 78.7827 103.336C79.6367 103.17 80.499 103.051 81.3658 102.978C82.9619 102.847 84.5674 102.879 86.1569 103.075C87.8535 103.276 89.5119 103.723 91.0803 104.4C92.3288 104.999 93.6961 105.31 95.0809 105.31C96.5517 105.302 98.002 104.964 99.3245 104.32C100.968 103.584 102.72 103.119 104.513 102.943C105.972 102.788 107.443 102.788 108.902 102.943C109.644 103.026 110.381 103.147 111.11 103.305C111.223 103.33 111.322 103.399 111.384 103.497C111.447 103.594 111.469 103.712 111.445 103.826C111.421 103.94 111.353 104.04 111.255 104.103C111.157 104.167 111.039 104.189 110.924 104.166C110.209 104.016 109.494 103.901 108.787 103.821C107.388 103.674 105.978 103.674 104.579 103.821C102.872 103.989 101.204 104.436 99.6424 105.146C98.2202 105.838 96.6624 106.206 95.0809 106.224Z" fill="#391020"/>
<path d="M108.158 97.9467C110.42 97.7245 112.036 95.3231 111.767 92.583C111.498 89.8428 109.446 87.8016 107.184 88.0238C104.922 88.246 103.306 90.6475 103.575 93.3876C103.844 96.1277 105.896 98.1689 108.158 97.9467Z" fill="#3A1221"/>
<path d="M105.595 93.895C105.725 93.7144 105.919 93.5898 106.138 93.5462C106.34 93.5173 106.547 93.5597 106.721 93.666C106.896 93.7723 107.029 93.936 107.096 94.1291L107.123 94.1776C107.288 94.3142 107.394 94.5083 107.421 94.7207C107.449 94.933 107.394 95.1478 107.268 95.3213C107.141 95.502 106.947 95.6256 106.73 95.6657C106.503 95.7049 106.27 95.6542 106.081 95.5244C105.76 95.2826 105.537 94.9329 105.453 94.5397C105.415 94.3146 105.466 94.0836 105.595 93.895Z" fill="white"/>
<path d="M107.679 93.2062C107.679 93.2062 107.679 93.1664 107.679 93.1355L107.652 93.0207C107.645 92.9966 107.636 92.9729 107.626 92.9501C107.611 92.9106 107.593 92.8723 107.573 92.8353L107.533 92.7779L107.458 92.694L107.392 92.641C107.147 92.4583 106.984 92.1856 106.939 91.8829C106.895 91.5803 106.973 91.2724 107.156 91.027C107.338 90.7817 107.611 90.619 107.914 90.5747C108.216 90.5304 108.524 90.6081 108.77 90.7908C109.189 91.1146 109.519 91.5399 109.728 92.0267C109.938 92.5134 110.02 93.0455 109.966 93.5727C109.957 93.729 109.916 93.8819 109.846 94.0219C109.776 94.162 109.679 94.2863 109.559 94.3873C109.439 94.4883 109.3 94.5639 109.15 94.6093C109.001 94.6548 108.843 94.6693 108.687 94.6519C108.532 94.6344 108.381 94.5855 108.245 94.508C108.109 94.4305 107.99 94.3261 107.896 94.2011C107.802 94.0762 107.734 93.9333 107.696 93.7812C107.659 93.6291 107.653 93.471 107.679 93.3166C107.681 93.2798 107.681 93.2429 107.679 93.2062Z" fill="white"/>
<path d="M80.9113 97.9467C78.6493 97.7245 77.0337 95.3231 77.3029 92.583C77.572 89.8428 79.624 87.8016 81.886 88.0238C84.148 88.246 85.7635 90.6475 85.4943 93.3876C85.2252 96.1277 83.1733 98.1689 80.9113 97.9467Z" fill="#3A1221"/>
<path d="M83.4748 93.895C83.3442 93.7144 83.1502 93.5898 82.9317 93.5462C82.7291 93.5173 82.5229 93.5597 82.3481 93.666C82.1733 93.7723 82.041 93.936 81.9735 94.1291L81.947 94.1776C81.7821 94.3142 81.6752 94.5083 81.6481 94.7207C81.6211 94.933 81.6758 95.1478 81.8012 95.3213C81.9289 95.502 82.1223 95.6256 82.3399 95.6657C82.5664 95.7049 82.7993 95.6542 82.989 95.5244C83.31 95.2826 83.5328 94.9329 83.6161 94.5397C83.6541 94.3146 83.6034 94.0836 83.4748 93.895Z" fill="white"/>
<path d="M81.3905 93.2062C81.3905 93.2062 81.3905 93.1664 81.3905 93.1355L81.417 93.0207C81.4241 92.9966 81.4329 92.9729 81.4434 92.9501C81.4584 92.9106 81.4762 92.8723 81.4965 92.8353L81.5362 92.7779L81.6113 92.694L81.6775 92.641C81.9228 92.4583 82.0856 92.1856 82.1299 91.8829C82.1742 91.5803 82.0965 91.2724 81.9138 91.027C81.7311 90.7817 81.4584 90.619 81.1557 90.5747C80.853 90.5304 80.5452 90.6081 80.2998 90.7908C79.8804 91.1146 79.5504 91.5399 79.341 92.0267C79.1316 92.5134 79.0498 93.0455 79.1032 93.5727C79.1122 93.729 79.1529 93.8819 79.223 94.0219C79.293 94.162 79.3908 94.2863 79.5105 94.3873C79.6302 94.4883 79.7691 94.5639 79.919 94.6093C80.0688 94.6548 80.2264 94.6693 80.382 94.6519C80.5376 94.6344 80.688 94.5855 80.8241 94.508C80.9602 94.4305 81.079 94.3261 81.1734 94.2011C81.2677 94.0762 81.3357 93.9333 81.373 93.7812C81.4103 93.6291 81.4163 93.471 81.3905 93.3166C81.3882 93.2798 81.3882 93.2429 81.3905 93.2062Z" fill="white"/>
<path d="M106.778 98.3108C106.725 99.4544 107.719 100.143 108.73 100.267C109.405 100.322 110.085 100.239 110.727 100.022C111.369 99.8059 111.961 99.4609 112.465 99.0085C113.309 98.3196 113.123 96.964 112.465 96.2442C112.218 95.9935 111.901 95.8226 111.556 95.7533C111.21 95.6841 110.852 95.7197 110.527 95.8557C110.165 95.9881 109.829 96.1868 109.463 96.2972C109.224 96.3662 108.978 96.4004 108.73 96.3988C108.219 96.3998 107.729 96.6003 107.365 96.9576C107 97.3148 106.789 97.8004 106.778 98.3108Z" fill="#AED9F7"/>
<path d="M107.705 97.2775C107.813 97.1431 107.947 97.0319 108.098 96.9507C108.25 96.8695 108.417 96.8199 108.588 96.8051C108.774 96.8051 108.959 96.8051 109.03 96.9596C109.039 96.9951 109.039 97.032 109.032 97.0676C109.024 97.1033 109.009 97.137 108.987 97.1661C108.965 97.1952 108.937 97.2191 108.905 97.2361C108.872 97.2531 108.837 97.2627 108.8 97.2643C108.697 97.2709 108.596 97.2995 108.505 97.3482C108.438 97.3847 108.381 97.438 108.341 97.5027C108.281 97.5637 108.204 97.6059 108.12 97.6239C108.036 97.6419 107.949 97.6351 107.869 97.6043C107.67 97.5381 107.626 97.3968 107.705 97.2775Z" fill="white"/>
<path d="M107.511 97.8294C107.913 97.7058 108.059 98.1694 107.652 98.271C107.246 98.3725 107.131 97.953 107.511 97.8294Z" fill="white"/>
<path d="M80.3281 96.4032C80.0802 96.4047 79.8332 96.3705 79.5951 96.3016C79.2286 96.1868 78.893 95.9881 78.5309 95.8601C78.2059 95.7241 77.8477 95.6885 77.5022 95.7577C77.1568 95.827 76.84 95.9979 76.5925 96.2486C75.9345 96.9684 75.7491 98.324 76.5925 99.0129C77.097 99.4653 77.6885 99.8103 78.3307 100.027C78.973 100.243 79.6526 100.326 80.3281 100.271C81.3393 100.148 82.3328 99.4588 82.2798 98.3152C82.2683 97.8048 82.0577 97.3192 81.693 96.962C81.3284 96.6047 80.8386 96.4042 80.3281 96.4032Z" fill="#AED9F7"/>
<path d="M81.3528 97.2775C81.2453 97.1431 81.1115 97.0319 80.9597 96.9507C80.8078 96.8695 80.6412 96.8199 80.4697 96.8051C80.2886 96.8051 80.0988 96.8051 80.0281 96.9596C80.0196 96.9951 80.019 97.032 80.0264 97.0676C80.0338 97.1033 80.0491 97.137 80.071 97.1661C80.093 97.1952 80.1211 97.2191 80.1534 97.2361C80.1856 97.2531 80.2212 97.2627 80.2576 97.2643C80.3611 97.2709 80.462 97.2995 80.5536 97.3482C80.6204 97.3847 80.6767 97.438 80.7169 97.5027C80.7772 97.5637 80.8541 97.6059 80.938 97.6239C81.0219 97.6419 81.1093 97.6351 81.1894 97.6043C81.3881 97.5381 81.4323 97.3968 81.3528 97.2775Z" fill="white"/>
<path d="M81.5471 97.8294C81.1453 97.7058 80.9995 98.1694 81.4058 98.271C81.812 98.3725 81.9622 97.953 81.5471 97.8294Z" fill="white"/>
</svg>
