<svg width="497" height="483" viewBox="0 0 497 483" fill="none" xmlns="http://www.w3.org/2000/svg">
<g clip-path="url(#clip0_1533_4342)">
<path d="M310.711 84.404C365.746 111.901 394.246 166.45 374.365 206.242C373.64 207.692 372.857 209.094 372.028 210.456C372.984 213.782 373.85 217.174 374.599 220.637C377.328 217.21 379.706 213.487 381.702 209.491C403.025 166.832 372.612 108.081 313.609 78.6022C254.607 49.1231 189.372 60.086 168.06 102.741C166.959 104.946 166.005 107.189 165.181 109.468C168.65 108.076 172.124 106.824 175.572 105.699C195.948 66.71 256.13 57.1248 310.722 84.4003L310.711 84.404Z" fill="#8F3DC9"/>
<path d="M359.149 146.761C354.925 137.557 345.412 131.907 335.327 132.806C325.927 133.648 314.718 136.352 304.778 139.237C290.591 143.367 275.643 135.898 270.426 122.074C266.771 112.397 262.203 101.81 257.225 93.7837C251.887 85.1801 241.657 80.9656 231.761 83.1143C199.769 90.0643 112.4 116.824 83.9439 205.43C72.741 240.327 85.3349 279.032 109.079 305.618C126.984 325.66 150.473 339.209 174.268 351.07C194.715 361.267 215.092 371.217 237.616 375.905C266.02 381.819 296.045 379.194 321.297 364.207C332.375 357.637 342.624 348.951 350.098 338.398C403.871 262.44 372.806 176.509 359.145 146.75L359.149 146.761Z" fill="#DBB2F4"/>
<path d="M263.87 292.597C286.33 280.7 312.38 284.773 325.836 301.15C340.944 258.567 315.604 203.396 264.113 177.669C212.622 151.943 153.247 164.817 128.279 202.501C149.504 203.368 168.47 221.767 172.454 246.923C176.19 270.54 165.535 292.571 147.724 301.289C158.652 311.622 172.103 320.904 187.473 328.583C202.843 336.263 219.6 341.888 235.132 344.433C231.745 325.115 242.944 303.68 263.858 292.601L263.87 292.597Z" fill="#FFF5F6"/>
<path d="M172.461 246.927C168.477 221.771 149.515 203.364 128.286 202.505C126.681 204.921 125.224 207.43 123.916 210.049C108.305 241.293 119.692 274.771 147.731 301.292C165.531 292.578 176.198 270.544 172.461 246.927Z" fill="#FFE9FE"/>
<path d="M322.417 309.216C323.729 306.589 324.872 303.896 325.84 301.143C312.372 284.769 286.334 280.692 263.873 292.589C242.956 303.676 231.749 325.107 235.147 344.422C273.125 350.644 307.025 340.024 322.42 309.209L322.417 309.216Z" fill="#FFE9FE"/>
<path d="M220.603 227.93C223.348 223.563 222.651 218.186 219.047 215.92C215.442 213.653 210.294 215.356 207.548 219.723C204.803 224.089 205.5 229.467 209.104 231.733C212.709 234 217.857 232.297 220.603 227.93Z" fill="#3A1221"/>
<path d="M254.774 254.531C258.751 256.053 263.47 253.381 265.313 248.564C267.156 243.746 265.426 238.607 261.45 237.085C257.473 235.564 252.754 238.236 250.911 243.053C249.068 247.871 250.797 253.01 254.774 254.531Z" fill="#3A1221"/>
<path d="M231.114 245.9C232.467 246.576 233.953 246.345 234.433 245.384C234.913 244.424 234.205 243.097 232.852 242.422C231.499 241.746 230.014 241.976 229.534 242.937C229.054 243.897 229.762 245.224 231.114 245.9Z" fill="#3A1221"/>
<path d="M215.138 277.876C180.952 260.01 203.537 244.883 203.537 244.883C205.709 246.199 208.37 247.556 211.493 248.654C219.914 251.604 222.369 249.372 228.423 252.397C234.876 255.621 234.611 259.409 242.322 264.298C244.89 265.932 247.377 267.064 249.545 267.87C246.512 295.651 215.138 277.876 215.138 277.876Z" fill="#7C3844"/>
<path d="M221.804 265.162C212.162 260.345 202.816 257.636 196.219 257.364C196.251 263.039 200.467 270.204 215.13 277.872C215.13 277.872 233.295 288.159 243.315 280.839C239.118 275.745 231.38 269.947 221.797 265.159L221.804 265.162Z" fill="#FFB0BF"/>
<path d="M215.138 277.876C180.952 260.01 203.537 244.883 203.537 244.883C205.709 246.199 208.37 247.556 211.493 248.654C219.914 251.604 222.369 249.372 228.423 252.397C234.876 255.621 234.611 259.409 242.322 264.298C244.89 265.932 247.377 267.064 249.545 267.87C246.512 295.651 215.138 277.876 215.138 277.876Z" stroke="#391020" stroke-linecap="round" stroke-linejoin="round"/>
<path d="M242.874 415.873C241.09 423.938 231.139 424.994 215.536 418.71C199.945 412.425 188.778 403.895 192.181 395.451C195.27 387.794 202.737 379.169 218.335 385.46C233.926 391.745 245.017 406.166 242.868 415.879L242.874 415.873Z" fill="#8F3DC9"/>
<path d="M85.2796 340.149C80.4278 346.825 86.2275 354.984 101.265 362.497C116.302 370.01 130.088 372.718 134.158 364.57C137.848 357.185 139.354 345.878 124.317 338.365C109.28 330.852 91.1226 332.101 85.2796 340.149Z" fill="#8F3DC9"/>
<path d="M42.446 267.739C50.4157 271.721 60.3826 267.931 64.7075 259.275C69.0325 250.619 66.0778 240.373 58.108 236.391C50.1383 232.409 40.1714 236.199 35.8465 244.855C31.5215 253.512 34.4762 263.757 42.446 267.739Z" fill="#8F3DC9"/>
<path d="M162.747 50.2978L159.381 77.08" stroke="#8F3DC9" stroke-width="2.48175" stroke-miterlimit="10"/>
<path d="M159.161 49.2922C164.045 51.7324 169.983 49.7513 172.423 44.8673C174.863 39.9832 172.882 34.0458 167.998 31.6056C163.114 29.1654 157.177 31.1465 154.736 36.0306C152.296 40.9146 154.277 46.852 159.161 49.2922Z" fill="#D9B3F4"/>
<path d="M201.71 99.0424C183.443 77.0243 148.145 76.1729 122.872 97.1423C97.5988 118.112 91.923 152.96 110.191 174.978C115.661 181.576 140.589 169.922 165.862 148.953C191.134 127.984 207.18 105.641 201.71 99.0424Z" fill="#8F3DC9"/>
<path d="M194.428 92.3339C176.564 70.8041 142.05 69.9746 117.343 90.4777C92.6362 110.981 87.0785 145.056 104.943 166.585C110.294 173.032 134.664 161.645 159.371 141.142C184.078 120.639 199.776 98.7881 194.424 92.3413L194.428 92.3339Z" fill="#F6E9FF"/>
<path d="M108.091 106.033L126.154 98.7731C126.432 98.662 126.654 99.0134 126.443 99.2133L113.125 111.951C111.793 113.228 111.742 115.348 113.019 116.679L113.063 116.72C114.34 118.051 116.46 118.103 117.791 116.826L143.385 92.3455C144.728 91.065 144.768 88.9489 143.491 87.6174L143.435 87.5619C142.421 86.5004 140.89 86.29 139.625 86.8786C139.617 86.8749 139.58 86.8564 139.58 86.8564L138.108 87.4895L110.438 98.4301C110.061 98.5745 109.698 98.1898 109.861 97.8272L109.935 97.6792C107.672 100.229 105.645 102.897 103.878 105.676C105.132 106.441 106.686 106.607 108.088 106.041L108.091 106.033Z" fill="#D9B3F4"/>
<path d="M425.833 181.742L406.446 200.52" stroke="#8F3DC9" stroke-width="2.48175" stroke-miterlimit="10"/>
<path d="M428.79 184.006C433.674 186.446 439.612 184.465 442.052 179.581C444.492 174.697 442.511 168.759 437.627 166.319C432.743 163.879 426.806 165.86 424.365 170.744C421.925 175.628 423.906 181.565 428.79 184.006Z" fill="#D9B3F4"/>
<path d="M363.465 179.86C392.041 181.246 413.918 208.96 412.326 241.761C410.734 274.562 386.276 300.026 357.7 298.64C349.139 298.228 343.489 271.297 345.081 238.496C346.673 205.695 354.905 179.448 363.465 179.86Z" fill="#8F3DC9"/>
<path d="M373.203 181.655C401.147 183.011 422.535 210.112 420.976 242.18C419.417 274.249 395.506 299.154 367.563 297.797C359.195 297.389 353.667 271.064 355.226 238.996C356.785 206.928 364.831 181.254 373.2 181.662L373.203 181.655Z" fill="#F6E9FF"/>
<path d="M414.085 258.915L409.044 240.112C408.966 239.823 408.552 239.857 408.519 240.145L406.33 258.444C406.109 260.276 404.444 261.589 402.613 261.368L402.554 261.357C400.722 261.135 399.409 259.471 399.63 257.64L403.837 222.474C404.055 220.631 405.723 219.329 407.554 219.55L407.632 219.561C409.09 219.735 410.178 220.833 410.467 222.198C410.474 222.202 410.511 222.22 410.511 222.22L410.889 223.778L418.755 252.473C418.866 252.861 419.392 252.92 419.584 252.573L419.658 252.425C418.978 255.766 418.062 258.988 416.901 262.07C415.536 261.527 414.47 260.384 414.081 258.923L414.085 258.915Z" fill="#D9B3F4"/>
<path d="M239.047 262.246L238.316 267.281C238.132 268.576 239.523 269.512 240.648 268.853L245.157 266.214L239.055 262.249L239.047 262.246Z" fill="white"/>
<path d="M253.496 269.104C252.383 268.816 251.036 268.42 249.545 267.869C247.377 267.064 244.89 265.932 242.322 264.298C234.611 259.409 234.876 255.621 228.423 252.397C222.37 249.372 219.914 251.604 211.493 248.654C208.37 247.556 205.709 246.199 203.537 244.883C201.965 243.922 200.64 242.982 199.585 242.169" stroke="#391020" stroke-linecap="round" stroke-linejoin="round"/>
</g>
<defs>
<clipPath id="clip0_1533_4342">
<rect width="380.312" height="348.868" fill="white" transform="translate(156.287) rotate(26.5479)"/>
</clipPath>
</defs>
</svg>
