<svg width="24" height="24" viewBox="0 0 24 24" fill="none" xmlns="http://www.w3.org/2000/svg">
<path d="M15.7269 4.99243C14.1616 4.99243 12.8005 5.69831 12 6.88123C11.1994 5.69831 9.83838 4.99243 8.27308 4.99243C7.08737 4.99381 5.95063 5.46544 5.11221 6.30386C4.27379 7.14228 3.80216 8.27902 3.80078 9.46473C3.80078 11.6412 5.15738 13.9065 7.8333 16.1963C9.05949 17.2411 10.384 18.1647 11.7883 18.9542C11.8534 18.9892 11.9261 19.0075 12 19.0075C12.0739 19.0075 12.1466 18.9892 12.2117 18.9542C13.616 18.1647 14.9405 17.2411 16.1667 16.1963C18.8426 13.9065 20.1992 11.6412 20.1992 9.46473C20.1978 8.27902 19.7262 7.14228 18.8878 6.30386C18.0493 5.46544 16.9126 4.99381 15.7269 4.99243ZM12 18.0448C10.7768 17.3389 4.69524 13.618 4.69524 9.46473C4.69623 8.51613 5.07349 7.60666 5.74425 6.9359C6.41501 6.26514 7.32448 5.88788 8.27308 5.88689C9.78471 5.88689 11.0541 6.69414 11.5863 7.99409C11.62 8.07611 11.6773 8.14627 11.751 8.19565C11.8246 8.24502 11.9113 8.27138 12 8.27138C12.0887 8.27138 12.1753 8.24502 12.249 8.19565C12.3227 8.14627 12.38 8.07611 12.4137 7.99409C12.9459 6.69414 14.2153 5.88689 15.7269 5.88689C16.6755 5.88788 17.585 6.26514 18.2557 6.9359C18.9265 7.60666 19.3037 8.51613 19.3047 9.46473C19.3047 13.618 13.2232 17.3389 12 18.0448Z" fill="black"/>
</svg>
