<svg width="47" height="43" viewBox="0 0 47 43" fill="none" xmlns="http://www.w3.org/2000/svg">
<g id="_&#235;&#160;&#136;&#236;&#157;&#180;&#236;&#150;&#180;_2" clip-path="url(#clip0_803_14247)">
<path id="Vector" d="M21.3864 1.30213C28.8009 1.30213 34.8116 5.64793 34.8116 11.0086C34.8116 11.204 34.8026 11.3975 34.7867 11.5889C35.0688 11.8959 35.345 12.215 35.6122 12.548C35.7218 12.0315 35.7777 11.5021 35.7777 10.9638C35.7787 5.21624 29.3352 0.520508 21.3864 0.520508C13.4375 0.520508 6.99512 5.21624 6.99512 10.9628C6.99512 11.2599 7.01306 11.553 7.04696 11.8431C7.34605 11.5061 7.65312 11.1841 7.96417 10.877C8.06088 5.57615 14.0327 1.30114 21.3874 1.30114L21.3864 1.30213Z" fill="white"/>
<path id="Vector_2" d="M29.9669 5.41566C29.0158 4.65098 27.6858 4.55428 26.647 5.19433C25.6789 5.79152 24.6161 6.6868 23.6999 7.53323C22.3929 8.74255 20.379 8.74255 19.072 7.53323C18.1568 6.6868 17.094 5.79152 16.1249 5.19433C15.0861 4.55428 13.7561 4.65098 12.805 5.41566C9.73036 7.88815 1.7526 15.4791 3.45742 26.5644C4.12937 30.9301 7.57191 34.4245 11.5638 36.0117C14.5736 37.2081 17.8357 37.4035 21.04 37.4005C23.7936 37.3985 26.5263 37.3736 29.2072 36.6657C32.5879 35.7734 35.6835 33.8732 37.5987 30.8972C38.4391 29.5922 39.0762 28.1037 39.3135 26.5634C41.0193 15.4781 33.0415 7.88715 29.9659 5.41466L29.9669 5.41566Z" fill="#DBB2F4"/>
<path id="Vector_3" d="M27.5509 26.27C29.3315 23.7776 32.3593 22.8135 34.6922 23.8544C34.0272 18.4498 28.3236 13.8667 21.3866 13.8667C14.4497 13.8667 8.74207 18.4528 8.08008 23.8603C10.415 22.8105 13.4508 23.7726 15.2353 26.27C16.9102 28.6149 16.9481 31.5639 15.4975 33.4632C17.2323 33.9886 19.1823 34.2647 21.2531 34.2647C23.3238 34.2647 25.4334 33.9686 27.2448 33.4063C25.8391 31.5061 25.892 28.592 27.5499 26.271L27.5509 26.27Z" fill="#FFF5F6"/>
<path id="Vector_4" d="M15.2362 26.2703C13.4516 23.7729 10.4158 22.8098 8.08092 23.8606C8.03805 24.2075 8.01611 24.5565 8.01611 24.9094C8.01611 29.1186 11.0469 32.1145 15.4984 33.4634C16.948 31.5652 16.9111 28.6151 15.2362 26.2703Z" fill="#FFE9FE"/>
<path id="Vector_5" d="M34.758 24.9083C34.758 24.5544 34.736 24.2025 34.6922 23.8535C32.3582 22.8137 29.3314 23.7767 27.5509 26.2692C25.8929 28.5911 25.8391 31.5053 27.2458 33.4045C31.6753 32.0297 34.758 29.0587 34.758 24.9073V24.9083Z" fill="#FFE9FE"/>
<path id="Vector_6" d="M19.4024 21.6289C19.4631 21.0102 19.0984 20.468 18.5877 20.4178C18.077 20.3677 17.6137 20.8285 17.5529 21.4472C17.4921 22.0659 17.8569 22.6081 18.3676 22.6582C18.8783 22.7084 19.3416 22.2475 19.4024 21.6289Z" fill="#3A1221"/>
<path id="Vector_7" d="M24.5193 22.6564C25.03 22.6062 25.3948 22.064 25.334 21.4454C25.2732 20.8267 24.8099 20.3658 24.2992 20.416C23.7885 20.4662 23.4238 21.0084 23.4845 21.627C23.5453 22.2457 24.0086 22.7065 24.5193 22.6564Z" fill="#3A1221"/>
<path id="Vector_8" d="M3.59717 5.59473L4.67689 8.6634" stroke="white" stroke-width="0.299091" stroke-miterlimit="10"/>
<path id="Vector_9" d="M3.15622 5.67964C3.8142 5.67964 4.3476 5.14624 4.3476 4.48825C4.3476 3.83027 3.8142 3.29688 3.15622 3.29688C2.49824 3.29688 1.96484 3.83027 1.96484 4.48825C1.96484 5.14624 2.49824 5.67964 3.15622 5.67964Z" fill="#D9B3F4"/>
<path id="Vector_10" d="M10.4236 8.75132C7.26816 7.36154 3.41687 9.17104 1.82171 12.793C0.226561 16.415 1.49172 20.4777 4.64713 21.8675C5.59226 22.2842 7.652 19.6851 9.24715 16.0631C10.8423 12.4411 11.3687 9.16805 10.4236 8.75132Z" fill="#8F3DC9"/>
<path id="Vector_11" d="M9.27676 8.42006C6.19113 7.06119 2.42557 8.83081 0.866312 12.3721C-0.69295 15.9133 0.543293 19.8862 3.62892 21.2451C4.55311 21.6519 6.56699 19.1116 8.12625 15.5703C9.68551 12.0291 10.2009 8.82782 9.27676 8.42106V8.42006Z" fill="#F6E9FF"/>
<path id="Vector_12" d="M0.70696 14.5478L2.26323 12.7921C2.28716 12.7652 2.33003 12.7911 2.31806 12.824L1.56834 14.9147C1.49357 15.1241 1.60224 15.3553 1.8116 15.4301L1.81858 15.4321C2.02795 15.5069 2.25924 15.3982 2.33402 15.1889L3.77464 11.1711C3.85041 10.9607 3.74074 10.7304 3.53138 10.6556L3.52241 10.6526C3.35591 10.5928 3.17945 10.6526 3.07477 10.7842C3.07377 10.7842 3.06878 10.7842 3.06878 10.7842L2.94416 10.9318L0.550435 13.6017C0.517535 13.6376 0.457717 13.6156 0.455723 13.5678V13.5478C0.349047 13.9446 0.274274 14.3414 0.233398 14.7362C0.409862 14.7512 0.586326 14.6854 0.70696 14.5488V14.5478Z" fill="#D9B3F4"/>
<path id="Vector_13" d="M39.0406 5.59473L37.9619 8.6634" stroke="white" stroke-width="0.299091" stroke-miterlimit="10"/>
<path id="Vector_14" d="M39.4809 5.67964C40.1389 5.67964 40.6723 5.14624 40.6723 4.48825C40.6723 3.83027 40.1389 3.29688 39.4809 3.29688C38.8229 3.29688 38.2896 3.83027 38.2896 4.48825C38.2896 5.14624 38.8229 5.67964 39.4809 5.67964Z" fill="#D9B3F4"/>
<path id="Vector_15" d="M32.2152 8.75132C35.3706 7.36154 39.2219 9.17104 40.817 12.793C42.4122 16.415 41.147 20.4777 37.9916 21.8675C37.0465 22.2842 34.9868 19.6851 33.3916 16.0631C31.7965 12.4411 31.2701 9.16805 32.2152 8.75132Z" fill="#8F3DC9"/>
<path id="Vector_16" d="M33.3618 8.42006C36.4475 7.06119 40.213 8.83081 41.7723 12.3721C43.3316 15.9133 42.0953 19.8862 39.0097 21.2451C38.0855 21.6519 36.0716 19.1116 34.5124 15.5703C32.9531 12.0291 32.4377 8.82782 33.3618 8.42106V8.42006Z" fill="#F6E9FF"/>
<path id="Vector_17" d="M41.931 14.5478L40.3748 12.7921C40.3508 12.7652 40.308 12.7911 40.3199 12.824L41.0697 14.9147C41.1444 15.1241 41.0358 15.3553 40.8264 15.4301L40.8194 15.4321C40.6101 15.5069 40.3788 15.3982 40.304 15.1889L38.8634 11.1711C38.7876 10.9607 38.8973 10.7304 39.1066 10.6556L39.1156 10.6526C39.2821 10.5928 39.4586 10.6526 39.5632 10.7842C39.5642 10.7842 39.5692 10.7842 39.5692 10.7842L39.6938 10.9318L42.0876 13.6017C42.1205 13.6376 42.1803 13.6156 42.1823 13.5678V13.5478C42.289 13.9446 42.3637 14.3414 42.4046 14.7362C42.2281 14.7512 42.0517 14.6854 41.931 14.5488V14.5478Z" fill="#D9B3F4"/>
</g>
<defs>
<clipPath id="clip0_803_14247">
<rect width="45.8337" height="42.0443" fill="white" transform="translate(0.191406 0.520508)"/>
</clipPath>
</defs>
</svg>
