<svg width="66" height="24" viewBox="0 0 66 24" fill="none" xmlns="http://www.w3.org/2000/svg">
<g clip-path="url(#clip0_438_1593)">
<path d="M48.7788 5.85881H48.7523C47.9387 5.85881 47.2786 6.52116 47.2786 7.33754V16.9535C47.2786 17.7699 47.9387 18.4322 48.7523 18.4322H48.7788C49.5924 18.4322 50.2525 17.7699 50.2525 16.9535V7.33754C50.2525 6.52116 49.5924 5.85881 48.7788 5.85881Z" fill="#7D4FFF"/>
<path d="M32.2372 15.7926C32.1396 15.7576 32.0377 15.7338 31.9344 15.7212C31.6748 15.7002 31.5925 15.6708 31.5297 15.6428C31.0636 15.4341 31.1362 15.0742 31.0985 14.4147V7.16666C31.0985 6.36008 30.4705 5.66832 29.6666 5.65432C28.8488 5.63891 28.1804 6.29986 28.1804 7.11765V12.0215C28.1804 12.5775 28.1497 13.1012 28.0869 13.5941C28.0241 14.087 27.904 14.5211 27.7254 14.8978C27.5468 15.2563 27.2998 15.5433 26.9886 15.7576C26.6774 15.9732 26.2796 16.0797 25.7968 16.0797C25.2804 16.0797 24.8771 15.9718 24.591 15.7576C24.3049 15.5433 24.0914 15.2465 23.9504 14.8712C23.8067 14.4945 23.7174 14.0702 23.6825 13.5955C23.6448 13.1208 23.6281 12.6237 23.6281 12.1042V8.6958C23.6281 7.88922 23.0001 7.19746 22.1962 7.18346C21.3784 7.16806 20.71 7.82901 20.71 8.64679V12.2386C20.71 14.1024 21.0937 15.6302 21.8613 16.8204C22.6288 18.0121 23.8332 18.6072 25.4772 18.6072C26.3508 18.6072 27.0486 18.4868 27.5649 18.2459C27.9892 18.0471 28.3353 17.7992 28.6032 17.4996C28.6884 17.403 28.8363 17.4142 28.913 17.5178C29.1949 17.9029 29.6304 18.1857 30.2179 18.3664C30.6058 18.4854 31.0454 18.4756 31.2548 18.4798C31.5451 18.4854 31.7809 18.4728 31.9791 18.4476C32.1744 18.4224 32.3628 18.3608 32.5261 18.2515C32.5415 18.2417 32.5554 18.2319 32.568 18.2221C32.6015 18.1969 33.0257 17.8791 33.1248 17.3287C33.1723 17.0641 33.1402 16.8022 33.0453 16.5684C32.9015 16.2183 32.614 15.9312 32.2386 15.7954L32.2372 15.7926Z" fill="#7D4FFF"/>
<path d="M48.8458 4.52432C49.8007 4.52432 50.5749 3.74754 50.5749 2.78933C50.5749 1.83112 49.8007 1.05434 48.8458 1.05434C47.8908 1.05434 47.1167 1.83112 47.1167 2.78933C47.1167 3.74754 47.8908 4.52432 48.8458 4.52432Z" fill="#7D4FFF"/>
<path d="M65.9705 6.78861C65.9356 6.62057 65.8714 6.45813 65.7807 6.3139C65.5071 5.877 65.0285 5.67115 64.5302 5.62634C64.2581 5.60254 63.9832 5.61654 63.7097 5.61934C63.2421 5.62354 62.7537 5.64455 62.3155 5.83499C61.9582 5.99043 61.6554 6.24808 61.4461 6.57716C61.4028 6.64577 61.3623 6.71579 61.3261 6.78861C61.266 6.91043 61.1014 6.93284 61.0093 6.83342C60.7553 6.55895 60.3952 6.29009 59.9333 6.02683C59.3346 5.68796 58.5545 5.51712 57.5902 5.51712C56.5728 5.51712 55.7229 5.72297 55.0447 6.13466C54.3664 6.54635 53.8222 7.07567 53.4119 7.71982C53.0002 8.38357 52.7099 9.12713 52.5396 9.95052C52.3708 10.7753 52.2856 11.5987 52.2856 12.4235C52.2856 13.2483 52.3903 14.0856 52.5941 14.8278C52.7992 15.5714 53.116 16.2225 53.5444 16.7771C53.9924 17.333 54.5492 17.7713 55.2191 18.0934C55.8876 18.4168 56.6886 18.5779 57.6167 18.5779C58.4191 18.5779 59.0862 18.4476 59.6109 18.1872C59.9319 18.0289 60.1957 17.8693 60.4008 17.7069C60.532 17.6032 60.7232 17.6929 60.7232 17.8609V18.309C60.705 19.2234 60.4831 19.9222 60.0533 20.4053C59.8314 20.6559 59.5649 20.845 59.2606 20.9836C58.8503 21.1698 58.3954 21.2315 57.9446 21.2076C56.1834 21.1124 54.8535 20.1322 54.8535 20.1322L54.5464 19.9292C53.8794 19.4895 52.9848 19.6743 52.5452 20.3423C52.2535 20.7862 52.2326 21.3869 52.4978 21.849C52.6764 22.1599 52.9667 22.3937 53.2737 22.5772C53.8696 22.9328 54.5157 23.2157 55.1661 23.4566C55.8024 23.6918 56.4597 23.8696 57.1338 23.9481C57.9111 24.0391 58.6703 24.0139 59.41 23.8753C60.5725 23.661 61.5703 23.1093 62.409 22.2229C63.2491 21.3351 63.6692 19.9964 63.6692 18.204V9.8581C63.6692 8.9689 64.0823 8.67063 64.367 8.57121C64.4772 8.5362 64.5582 8.5292 64.5582 8.5292C64.5791 8.5278 64.6 8.5236 64.621 8.5222C64.6279 8.5222 64.6307 8.5222 64.6307 8.5222C65.0271 8.47739 65.3773 8.34576 65.6509 8.02929C65.9425 7.69181 66.0612 7.22971 65.9705 6.79141V6.78861ZM60.3757 13.716C60.2947 14.1809 60.1468 14.5926 59.9333 14.951C59.7198 15.2913 59.4323 15.5602 59.0764 15.7576C58.7192 15.9551 58.2642 16.0531 57.7102 16.0531C57.1561 16.0531 56.683 15.9509 56.3439 15.7436C56.0062 15.5378 55.755 15.2563 55.5945 14.8978C55.4145 14.5576 55.3 14.1585 55.2456 13.7006C55.1926 13.2441 55.1661 12.7736 55.1661 12.2904C55.1661 11.8073 55.1926 11.3186 55.2456 10.8257C55.3 10.3328 55.4242 9.8819 55.6224 9.46741C55.7983 9.05712 56.0578 8.72104 56.3983 8.46058C56.7361 8.20152 57.1826 8.07129 57.7367 8.07129C58.327 8.07129 58.8001 8.19592 59.1574 8.44798C59.5132 8.69864 59.7895 9.02071 59.9863 9.4142C60.1817 9.82729 60.3171 10.2754 60.3896 10.7585C60.4594 11.243 60.4957 11.7261 60.4957 12.2092C60.4957 12.7469 60.4538 13.2497 60.3757 13.716Z" fill="#7D4FFF"/>
<path d="M45.8566 16.0839C45.6808 15.9159 45.4659 15.7954 45.2328 15.7296C45.1965 15.7198 45.1617 15.7114 45.1254 15.7044C45.0877 15.696 45.0486 15.689 45.0109 15.6806C44.9453 15.6652 44.8672 15.6428 44.8114 15.6008C44.7025 15.5336 44.6216 15.4327 44.5741 15.3137C44.542 15.2325 44.5239 15.1443 44.5211 15.0575C44.5211 15.0407 44.5211 15.0239 44.5211 15.0056V2.42382C44.5211 1.61023 43.8861 0.911478 43.0753 0.896074C42.2491 0.880671 41.5751 1.54862 41.5751 2.37481V6.27468C41.5751 6.44132 41.3853 6.53094 41.2541 6.43012C41.0517 6.27328 40.7922 6.11365 40.4768 5.94981C39.9576 5.68095 39.2975 5.54652 38.4951 5.54652C37.567 5.54652 36.766 5.71316 36.0975 6.04363C35.429 6.37551 34.8708 6.81941 34.4242 7.37393C33.9944 7.92986 33.679 8.5824 33.4739 9.33577C33.2687 10.0877 33.1641 10.8859 33.1641 11.7275C33.1641 12.5691 33.2492 13.4023 33.4194 14.2257C33.5897 15.0505 33.88 15.7856 34.2917 16.4298C34.702 17.0753 35.2462 17.599 35.9245 18.0009C36.6027 18.4042 37.4526 18.6059 38.47 18.6059C39.4329 18.6059 40.213 18.4406 40.8131 18.1087C41.2736 17.8525 41.6323 17.5836 41.8863 17.3008C41.9784 17.1985 42.1445 17.2209 42.2059 17.3456C42.3273 17.592 42.4878 17.8063 42.6873 17.9883C42.9637 18.2404 43.2804 18.4098 43.6377 18.4994C43.8861 18.5652 44.1345 18.5793 44.4122 18.5765V18.5849L44.8463 18.5765C45.6445 18.5765 46.2907 17.9281 46.2907 17.1271V17.0963C46.2907 16.9045 46.2516 16.7126 46.1748 16.5362C46.1009 16.3668 45.992 16.2127 45.858 16.0839H45.8566ZM41.335 13.3785C41.2625 13.8714 41.1285 14.3153 40.9317 14.7088C40.7349 15.1205 40.4586 15.4481 40.1028 15.689C39.7455 15.9313 39.2724 16.0517 38.6821 16.0517C38.1281 16.0517 37.6815 15.9257 37.3438 15.675C37.0032 15.4229 36.7437 15.0925 36.5678 14.6794C36.3697 14.2677 36.2454 13.8112 36.191 13.3099C36.1394 12.8086 36.1129 12.3156 36.1129 11.8311C36.1129 11.3466 36.1394 10.8817 36.191 10.4336C36.2454 9.98692 36.3613 9.58223 36.5399 9.22375C36.7018 8.88347 36.9516 8.60621 37.2893 8.39056C37.6298 8.17631 38.0848 8.06849 38.6556 8.06849C39.2264 8.06849 39.6646 8.17071 40.0218 8.37656C40.3777 8.5838 40.6652 8.85686 40.8787 9.19714C41.0922 9.55562 41.2401 9.96732 41.3211 10.4322C41.3992 10.8985 41.4411 11.3914 41.4411 11.911C41.4411 12.3941 41.4034 12.8828 41.3336 13.3757L41.335 13.3785Z" fill="#7D4FFF"/>
<path d="M17.1346 0H17.0983C16.4508 0 15.9177 0.424295 15.7195 1.00683C15.7153 1.00823 15.6986 1.01523 15.6986 1.01523L15.453 1.67758L10.5141 13.8519C10.4471 14.0172 10.2141 14.0158 10.1471 13.8505L5.5906 2.48136C5.5906 2.48136 5.35335 1.70978 4.43089 1.22247C4.01641 1.00263 3.5489 0.903203 3.08139 0.903203H1.43324C0.636373 0.93401 0 1.60056 0 2.39454C0.00139556 3.17731 0.622418 3.83686 1.40951 3.88027C1.40951 3.88027 1.63559 3.88447 1.81422 4.10432C1.93145 4.24856 2.02914 4.48521 2.02914 4.8731V17.0642C2.02914 17.8862 2.6697 18.5906 3.48889 18.606C4.32204 18.6214 5.00307 17.9478 5.00307 17.1147V8.892C5.00307 8.76037 5.18449 8.72536 5.23194 8.84859L8.351 16.8556C8.63291 17.5782 9.27347 18.1187 10.041 18.2139C10.9858 18.3315 11.8734 17.7924 12.2195 16.9256L15.4055 8.94101C15.4544 8.81918 15.6344 8.85419 15.6344 8.98442V17.1273C15.6344 17.9436 16.2945 18.606 17.1081 18.606H17.1346C17.9482 18.606 18.6083 17.9436 18.6083 17.1273V1.47873C18.6083 0.660949 17.9482 0 17.1346 0Z" fill="#7D4FFF"/>
</g>
<defs>
<clipPath id="clip0_438_1593">
<rect width="66" height="24" fill="white"/>
</clipPath>
</defs>
</svg>
