<svg width="48" height="24" viewBox="0 0 48 24" fill="none" xmlns="http://www.w3.org/2000/svg">
<path d="M3 12.8041V11.5709C3 9.04767 3 7.78607 3.81494 6.97432C4.62989 6.16257 5.9129 6.12744 8.47892 6.05716C9.69486 6.02386 10.9369 6 12 6C13.0631 6 14.3052 6.02386 15.5211 6.05716C18.0871 6.12744 19.3701 6.16257 20.185 6.97432C21 7.78607 21 9.04767 21 11.5709V12.8041C21 15.3273 21 16.5889 20.185 17.4006C19.3701 18.2124 18.0871 18.2475 15.5212 18.3178C14.3052 18.3511 13.0631 18.375 12 18.375C10.9369 18.375 9.6948 18.3511 8.47884 18.3178C5.91286 18.2475 4.62987 18.2124 3.81493 17.4006C3 16.5889 3 15.3273 3 12.8041Z" stroke="#191919"/>
<path d="M14.25 12.1875L10.875 13.875V10.5L14.25 12.1875Z" fill="#191919" stroke="#191919" stroke-linecap="round" stroke-linejoin="round"/>
<path d="M27 12.8041V11.5709C27 9.04767 27 7.78607 27.8149 6.97432C28.6299 6.16257 29.9129 6.12744 32.4789 6.05716C33.6949 6.02386 34.9369 6 36 6C37.0631 6 38.3052 6.02386 39.5211 6.05716C42.0871 6.12744 43.3701 6.16257 44.185 6.97432C45 7.78607 45 9.04767 45 11.5709V12.8041C45 15.3273 45 16.5889 44.185 17.4006C43.3701 18.2124 42.0871 18.2475 39.5212 18.3178C38.3052 18.3511 37.0631 18.375 36 18.375C34.9369 18.375 33.6948 18.3511 32.4788 18.3178C29.9129 18.2475 28.6299 18.2124 27.8149 17.4006C27 16.5889 27 15.3273 27 12.8041Z" stroke="#7D4FFF"/>
<path d="M38.25 12.1875L34.875 13.875V10.5L38.25 12.1875Z" fill="#191919" stroke="#7D4FFF" stroke-linecap="round" stroke-linejoin="round"/>
</svg>
