<svg width="25" height="24" viewBox="0 0 25 24" fill="none" xmlns="http://www.w3.org/2000/svg">
<path d="M13.5841 16.2109C13.5841 17.2897 12.7095 18.1643 11.6307 18.1643C10.5519 18.1643 9.67725 17.2897 9.67725 16.2109C9.67725 15.1321 10.5519 14.2575 11.6307 14.2575C12.7095 14.2575 13.5841 15.1321 13.5841 16.2109ZM13.5841 16.2109V5.92285C13.5841 5.49127 13.9339 5.14148 14.3655 5.14148H16.1887" stroke="#191919" stroke-linecap="round"/>
<path d="M13.5841 16.2109C13.5841 17.2897 12.7095 18.1643 11.6307 18.1643C10.5519 18.1643 9.67725 17.2897 9.67725 16.2109C9.67725 15.1321 10.5519 14.2574 11.6307 14.2574C12.7095 14.2574 13.5841 15.1321 13.5841 16.2109Z" fill="#191919"/>
</svg>
