<svg width="126" height="79" viewBox="0 0 126 79" fill="none" xmlns="http://www.w3.org/2000/svg">
<g id="Mask group">
<mask id="mask0_803_9913" style="mask-type:alpha" maskUnits="userSpaceOnUse" x="0" y="0" width="126" height="79">
<rect id="Rectangle 98" x="0.713379" width="124.787" height="78.2738" fill="#D9D9D9"/>
</mask>
<g mask="url(#mask0_803_9913)">
<g id="Group 139">
<path id="Vector" d="M62.4504 3.84532C82.0533 3.84532 97.9449 15.335 97.9449 29.508C97.9449 30.0246 97.9212 30.536 97.879 31.0421C98.6249 31.8539 99.3551 32.6974 100.061 33.5778C100.351 32.2124 100.499 30.8128 100.499 29.3894C100.502 14.1937 83.4661 1.77881 62.4504 1.77881C41.4348 1.77881 24.4019 14.1937 24.4019 29.3868C24.4019 30.1723 24.4493 30.9472 24.5389 31.7142C25.3297 30.8233 26.1415 29.9719 26.9639 29.1601C27.2196 15.1452 43.0084 3.84268 62.4531 3.84268L62.4504 3.84532Z" fill="#8F3DC9"/>
<path id="Vector_2" d="M85.1373 14.7211C82.6227 12.6994 79.1064 12.4437 76.3599 14.1359C73.8005 15.7148 70.9906 18.0818 68.5683 20.3196C65.1127 23.5169 59.7882 23.5169 56.3326 20.3196C53.9129 18.0818 51.1031 15.7148 48.541 14.1359C45.7945 12.4437 42.2782 12.6994 39.7636 14.7211C31.6347 21.258 10.5425 41.3274 15.0498 70.6355C16.8264 82.1779 25.928 91.4166 36.482 95.6129C44.4396 98.7759 53.0642 99.2925 61.5358 99.2846C68.8161 99.2794 76.0409 99.2134 83.1288 97.342C92.067 94.9829 100.251 89.959 105.315 82.0909C107.537 78.6406 109.221 74.7053 109.848 70.6329C114.358 41.3248 93.2663 21.2553 85.1346 14.7184L85.1373 14.7211Z" fill="#DBB2F4"/>
<path id="Vector_3" d="M78.7478 69.8576C83.4555 63.268 91.4605 60.7191 97.6285 63.471C95.8703 49.182 80.7906 37.0649 62.4503 37.0649C44.11 37.0649 29.0197 49.1899 27.2695 63.4868C33.4427 60.7112 41.4689 63.2548 46.1871 69.8576C50.6153 76.0572 50.7155 83.854 46.8803 88.8753C51.4667 90.2644 56.6224 90.9946 62.0971 90.9946C67.5718 90.9946 73.1493 90.2117 77.9386 88.7251C74.2221 83.7012 74.3618 75.9966 78.7452 69.8603L78.7478 69.8576Z" fill="#FFF5F6"/>
<path id="Vector_4" d="M46.1899 69.8576C41.4718 63.2547 33.4456 60.7085 27.2724 63.4867C27.1591 64.404 27.1011 65.3265 27.1011 66.2596C27.1011 77.3882 35.1141 85.309 46.8832 88.8753C50.7157 83.8566 50.6182 76.0571 46.1899 69.8576Z" fill="#FFE9FE"/>
<path id="Vector_5" d="M97.8027 66.2572C97.8027 65.3214 97.7447 64.391 97.6287 63.4684C91.4582 60.7192 83.4557 63.2655 78.7481 69.8551C74.3647 75.994 74.2223 83.6986 77.9415 88.7199C89.6526 85.0851 97.8027 77.2302 97.8027 66.2545V66.2572Z" fill="#FFE9FE"/>
<path id="Vector_6" d="M57.206 57.5872C57.3667 55.9515 56.4023 54.518 55.0521 54.3854C53.7018 54.2527 52.477 55.4712 52.3163 57.1069C52.1556 58.7425 53.12 60.176 54.4702 60.3086C55.8205 60.4413 57.0453 59.2228 57.206 57.5872Z" fill="#3A1221"/>
<path id="Vector_7" d="M70.7347 60.303C72.0849 60.1703 73.0493 58.7369 72.8886 57.1012C72.728 55.4655 71.5031 54.2471 70.1529 54.3797C68.8026 54.5124 67.8383 55.9458 67.9989 57.5815C68.1596 59.2172 69.3844 60.4356 70.7347 60.303Z" fill="#3A1221"/>
<path id="Vector_8" d="M62.7621 61.212C63.244 61.212 63.6346 60.9347 63.6346 60.5926C63.6346 60.2505 63.244 59.9731 62.7621 59.9731C62.2803 59.9731 61.8896 60.2505 61.8896 60.5926C61.8896 60.9347 62.2803 61.212 62.7621 61.212Z" fill="#3A1221"/>
<path id="Vector_9" d="M62.761 72.6016C50.4727 72.3775 54.7559 64.8495 54.7559 64.8495C55.5625 64.9154 56.514 64.9233 57.5605 64.7916C60.3808 64.4331 60.763 63.4473 62.9192 63.4473C65.2176 63.4473 65.6816 64.5649 68.5757 64.8601C69.5404 64.9602 70.4103 64.9286 71.143 64.8495C74.2349 73.1999 62.761 72.6016 62.761 72.6016Z" fill="#7C3844"/>
<path id="Vector_10" d="M62.8509 68.0284C59.4163 68.0284 56.3667 68.5872 54.4478 69.4492C55.2649 71.0623 57.4869 72.5041 62.7586 72.6017C62.7586 72.6017 69.401 72.947 71.2144 69.4334C69.2929 68.5793 66.2617 68.0284 62.8482 68.0284H62.8509Z" fill="#FFB0BF"/>
<path id="Vector_11" d="M62.761 72.6016C50.4727 72.3775 54.7559 64.8495 54.7559 64.8495C55.5625 64.9154 56.514 64.9233 57.5605 64.7916C60.3808 64.4331 60.763 63.4473 62.9192 63.4473C65.2176 63.4473 65.6816 64.5649 68.5757 64.8601C69.5404 64.9602 70.4103 64.9286 71.143 64.8495C74.2349 73.1999 62.761 72.6016 62.761 72.6016Z" stroke="#391020" stroke-width="0.527171" stroke-linecap="round" stroke-linejoin="round"/>
<path id="Vector_12" d="M15.9226 82.8164C18.7613 82.8164 21.0626 80.3169 21.0626 77.2336C21.0626 74.1504 18.7613 71.6509 15.9226 71.6509C13.0839 71.6509 10.7827 74.1504 10.7827 77.2336C10.7827 80.3169 13.0839 82.8164 15.9226 82.8164Z" fill="#8F3DC9"/>
<path id="Vector_13" d="M15.4194 15.1954L18.2741 23.3086" stroke="#8F3DC9" stroke-width="0.790757" stroke-miterlimit="10"/>
<path id="Vector_14" d="M14.2539 15.4194C15.9935 15.4194 17.4037 14.0092 17.4037 12.2696C17.4037 10.53 15.9935 9.11975 14.2539 9.11975C12.5142 9.11975 11.104 10.53 11.104 12.2696C11.104 14.0092 12.5142 15.4194 14.2539 15.4194Z" fill="#D9B3F4"/>
<path id="Vector_15" d="M33.4665 23.5404C25.124 19.866 14.9417 24.6501 10.7243 34.2261C6.50696 43.8022 9.85187 54.5433 18.1944 58.2177C20.6931 59.3195 26.1388 52.4478 30.3562 42.8717C34.5736 33.2957 35.9653 24.6421 33.4665 23.5404Z" fill="#8F3DC9"/>
<path id="Vector_16" d="M30.4357 22.6652C22.2777 19.0725 12.3221 23.7512 8.19957 33.1137C4.07709 42.4763 7.34556 52.9802 15.5035 56.5729C17.947 57.6483 23.2714 50.9321 27.3939 41.5696C31.5164 32.207 32.8791 23.7433 30.4357 22.6678V22.6652Z" fill="#F6E9FF"/>
<path id="Vector_17" d="M7.77742 38.8652L11.892 34.2235C11.9553 34.1523 12.0686 34.2209 12.037 34.3078L10.0548 39.8352C9.85711 40.3888 10.1444 41.0003 10.698 41.198L10.7164 41.2032C11.2699 41.4009 11.8815 41.1136 12.0791 40.5601L15.888 29.9376C16.0883 29.3814 15.7983 28.7725 15.2448 28.5749L15.2211 28.5669C14.7809 28.4088 14.3143 28.5669 14.0376 28.9149C14.0349 28.9149 14.0218 28.9149 14.0218 28.9149L13.6923 29.305L7.36359 36.3638C7.27661 36.4587 7.11846 36.4007 7.11319 36.2742V36.2215C6.83115 37.2705 6.63346 38.3196 6.52539 39.3634C6.99194 39.403 7.45848 39.229 7.77742 38.8679V38.8652Z" fill="#D9B3F4"/>
<path id="Vector_18" d="M109.126 15.1954L106.274 23.3086" stroke="#8F3DC9" stroke-width="0.790757" stroke-miterlimit="10"/>
<path id="Vector_19" d="M110.291 15.4194C112.031 15.4194 113.441 14.0092 113.441 12.2696C113.441 10.53 112.031 9.11975 110.291 9.11975C108.552 9.11975 107.142 10.53 107.142 12.2696C107.142 14.0092 108.552 15.4194 110.291 15.4194Z" fill="#D9B3F4"/>
<path id="Vector_20" d="M91.0813 23.5404C99.4238 19.866 109.606 24.6501 113.824 34.2261C118.041 43.8022 114.696 54.5433 106.354 58.2177C103.855 59.3195 98.409 52.4478 94.1917 42.8717C89.9743 33.2957 88.5826 24.6421 91.0813 23.5404Z" fill="#8F3DC9"/>
<path id="Vector_21" d="M94.1125 22.6652C102.27 19.0725 112.226 23.7512 116.349 33.1137C120.471 42.4763 117.203 52.9802 109.045 56.5729C106.601 57.6483 101.277 50.9321 97.1543 41.5696C93.0318 32.207 91.6691 23.7433 94.1125 22.6678V22.6652Z" fill="#F6E9FF"/>
<path id="Vector_22" d="M116.767 38.8652L112.653 34.2235C112.589 34.1523 112.476 34.2209 112.508 34.3078L114.49 39.8352C114.688 40.3888 114.4 41.0003 113.847 41.198L113.828 41.2032C113.275 41.4009 112.663 41.1136 112.466 40.5601L108.657 29.9376C108.456 29.3814 108.746 28.7725 109.3 28.5749L109.324 28.5669C109.764 28.4088 110.23 28.5669 110.507 28.9149C110.51 28.9149 110.523 28.9149 110.523 28.9149L110.852 29.305L117.181 36.3638C117.268 36.4587 117.426 36.4007 117.431 36.2742V36.2215C117.714 37.2705 117.911 38.3196 118.019 39.3634C117.553 39.403 117.086 39.229 116.767 38.8679V38.8652Z" fill="#D9B3F4"/>
<path id="Vector_23" d="M115.354 78.8464C116.322 75.9189 114.921 72.8235 112.226 71.9327C109.531 71.0418 106.561 72.6928 105.594 75.6203C104.626 78.5478 106.027 81.6432 108.722 82.5341C111.417 83.4249 114.387 81.7739 115.354 78.8464Z" fill="#8F3DC9"/>
<path id="Vector_24" d="M67.3506 64.7416L67.8593 66.2809C67.9911 66.6763 68.5209 66.7448 68.7476 66.3969L69.657 65.0025L67.3532 64.7416H67.3506Z" fill="white"/>
<path id="Vector_25" d="M72.4459 64.6387C72.0874 64.7151 71.6472 64.7942 71.1438 64.8495C70.411 64.9286 69.5412 64.9602 68.5764 64.8601C65.6823 64.5649 65.2183 63.4473 62.9199 63.4473C60.7637 63.4473 60.3815 64.4331 57.5612 64.7916C56.5147 64.9233 55.5632 64.9154 54.7566 64.8495C54.1715 64.7995 53.6601 64.7204 53.2437 64.6387" stroke="#391020" stroke-width="0.527171" stroke-linecap="round" stroke-linejoin="round"/>
</g>
</g>
</g>
</svg>
