<svg width="48" height="24" viewBox="0 0 48 24" fill="none" xmlns="http://www.w3.org/2000/svg">
<path d="M3.44604 11.4092H15.6179" stroke="#191919" stroke-width="1.06806" stroke-linecap="round" stroke-linejoin="round"/>
<path d="M3.44604 16.6258H13.0096" stroke="#191919" stroke-width="1.06806" stroke-linecap="round" stroke-linejoin="round"/>
<path d="M3.44604 6.19281H19.0956" stroke="#191919" stroke-width="1.06806" stroke-linecap="round" stroke-linejoin="round"/>
<path d="M19.0956 17.9299C19.0956 18.6501 18.5117 19.234 17.7914 19.234C17.0712 19.234 16.4873 18.6501 16.4873 17.9299C16.4873 17.2097 17.0712 16.6258 17.7914 16.6258C18.5117 16.6258 19.0956 17.2097 19.0956 17.9299Z" fill="#191919"/>
<path d="M19.0956 17.93C19.0956 18.6502 18.5117 19.2341 17.7914 19.2341C17.0712 19.2341 16.4873 18.6502 16.4873 17.93C16.4873 17.2097 17.0712 16.6258 17.7914 16.6258C18.5117 16.6258 19.0956 17.2097 19.0956 17.93ZM19.0956 17.93V11.0616C19.0956 10.7734 19.3291 10.5399 19.6172 10.5399H20.8344" stroke="#191919" stroke-width="1.06806" stroke-linecap="round"/>
<path d="M27.446 11.4092H39.6179" stroke="#7D4FFF" stroke-width="1.06806" stroke-linecap="round" stroke-linejoin="round"/>
<path d="M27.446 16.6258H37.0096" stroke="#7D4FFF" stroke-width="1.06806" stroke-linecap="round" stroke-linejoin="round"/>
<path d="M27.446 6.19281H43.0956" stroke="#7D4FFF" stroke-width="1.06806" stroke-linecap="round" stroke-linejoin="round"/>
<path d="M43.0956 17.9299C43.0956 18.6501 42.5117 19.234 41.7914 19.234C41.0712 19.234 40.4873 18.6501 40.4873 17.9299C40.4873 17.2097 41.0712 16.6258 41.7914 16.6258C42.5117 16.6258 43.0956 17.2097 43.0956 17.9299Z" fill="#191919"/>
<path d="M43.0956 17.93C43.0956 18.6502 42.5117 19.2341 41.7914 19.2341C41.0712 19.2341 40.4873 18.6502 40.4873 17.93C40.4873 17.2097 41.0712 16.6258 41.7914 16.6258C42.5117 16.6258 43.0956 17.2097 43.0956 17.93ZM43.0956 17.93V11.0616C43.0956 10.7734 43.3291 10.5399 43.6172 10.5399H44.8344" stroke="#7D4FFF" stroke-width="1.06806" stroke-linecap="round"/>
</svg>
