<svg width="48" height="24" viewBox="0 0 48 24" fill="none" xmlns="http://www.w3.org/2000/svg">
<path fill-rule="evenodd" clip-rule="evenodd" d="M12 4.5C9.79083 4.5 7.99996 6.29086 7.99996 8.5C7.99996 10.7091 9.79083 12.5 12 12.5C14.2091 12.5 16 10.7091 16 8.5C16 6.29086 14.2091 4.5 12 4.5ZM6.99996 8.5C6.99996 5.73858 9.23854 3.5 12 3.5C14.7614 3.5 17 5.73858 17 8.5C17 11.2614 14.7614 13.5 12 13.5C9.23854 13.5 6.99996 11.2614 6.99996 8.5Z" fill="black"/>
<path fill-rule="evenodd" clip-rule="evenodd" d="M12 13.5C8.44504 13.5 5.54743 15.9506 5.0697 19.079C5.04042 19.2707 5.19944 19.5 5.5 19.5H18.5C18.8006 19.5 18.9596 19.2707 18.9303 19.079C18.4526 15.9506 15.555 13.5 12 13.5ZM4.08116 18.928C4.64001 15.2685 7.99565 12.5 12 12.5C16.0044 12.5 19.36 15.2685 19.9188 18.928C20.0563 19.8282 19.304 20.5 18.5 20.5H5.5C4.696 20.5 3.94369 19.8282 4.08116 18.928Z" fill="black"/>
<path fill-rule="evenodd" clip-rule="evenodd" d="M36 4.5C33.7908 4.5 32 6.29086 32 8.5C32 10.7091 33.7908 12.5 36 12.5C38.2091 12.5 40 10.7091 40 8.5C40 6.29086 38.2091 4.5 36 4.5ZM31 8.5C31 5.73858 33.2385 3.5 36 3.5C38.7614 3.5 41 5.73858 41 8.5C41 11.2614 38.7614 13.5 36 13.5C33.2385 13.5 31 11.2614 31 8.5Z" fill="#7D4FFF"/>
<path fill-rule="evenodd" clip-rule="evenodd" d="M36 13.5C32.445 13.5 29.5474 15.9506 29.0697 19.079C29.0404 19.2707 29.1994 19.5 29.5 19.5H42.5C42.8006 19.5 42.9596 19.2707 42.9303 19.079C42.4526 15.9506 39.555 13.5 36 13.5ZM28.0812 18.928C28.64 15.2685 31.9956 12.5 36 12.5C40.0044 12.5 43.36 15.2685 43.9188 18.928C44.0563 19.8282 43.304 20.5 42.5 20.5H29.5C28.696 20.5 27.9437 19.8282 28.0812 18.928Z" fill="#7D4FFF"/>
</svg>
