<svg width="24" height="24" viewBox="0 0 24 24" fill="none" xmlns="http://www.w3.org/2000/svg">
<path fill-rule="evenodd" clip-rule="evenodd" d="M11 3.5C6.85786 3.5 3.5 6.85786 3.5 11C3.5 15.1421 6.85786 18.5 11 18.5C13.0712 18.5 14.9455 17.6611 16.3033 16.3033C17.6611 14.9455 18.5 13.0712 18.5 11C18.5 6.85786 15.1421 3.5 11 3.5ZM2.5 11C2.5 6.30558 6.30558 2.5 11 2.5C15.6944 2.5 19.5 6.30558 19.5 11C19.5 13.1671 18.6884 15.1455 17.3536 16.6465L21.3536 20.6464C21.5488 20.8417 21.5488 21.1583 21.3536 21.3536C21.1583 21.5488 20.8417 21.5488 20.6464 21.3536L16.6465 17.3536C15.1455 18.6884 13.1671 19.5 11 19.5C6.30558 19.5 2.5 15.6944 2.5 11Z" fill="black"/>
</svg>
