<svg width="44" height="45" viewBox="0 0 44 45" fill="none" xmlns="http://www.w3.org/2000/svg">
<g id="Icon/search">
<path id="Icon (Stroke)" fill-rule="evenodd" clip-rule="evenodd" d="M21.0512 14.2556C17.1214 14.2556 13.9356 17.4414 13.9356 21.3713C13.9356 25.3012 17.1214 28.487 21.0512 28.487C23.0163 28.487 24.7946 27.6911 26.0828 26.4029C27.371 25.1146 28.1669 23.3364 28.1669 21.3713C28.1669 17.4414 24.9811 14.2556 21.0512 14.2556ZM12.9868 21.3713C12.9868 16.9175 16.5974 13.3069 21.0512 13.3069C25.5051 13.3069 29.1157 16.9175 29.1157 21.3713C29.1157 23.4274 28.3457 25.3044 27.0793 26.7285L30.8742 30.5234C31.0595 30.7087 31.0595 31.0091 30.8742 31.1943C30.689 31.3796 30.3886 31.3796 30.2034 31.1943L26.4084 27.3993C24.9843 28.6658 23.1073 29.4357 21.0512 29.4357C16.5974 29.4357 12.9868 25.8252 12.9868 21.3713Z" fill="black"/>
</g>
</svg>
