<svg width="24" height="24" viewBox="0 0 24 24" fill="none" xmlns="http://www.w3.org/2000/svg">
<path d="M4.87622 11.5955V16.994C4.87622 18.0986 5.77165 18.994 6.87622 18.994H17.1238C18.2283 18.994 19.1238 18.0986 19.1238 16.994V11.5955" stroke="black" stroke-linecap="round" stroke-linejoin="round"/>
<path d="M12.3536 4.65231C12.1583 4.45704 11.8417 4.45704 11.6464 4.65231L8.46447 7.83429C8.2692 8.02955 8.2692 8.34613 8.46447 8.54139C8.65973 8.73665 8.97631 8.73665 9.17157 8.54139L12 5.71297L14.8284 8.54139C15.0237 8.73666 15.3403 8.73666 15.5355 8.54139C15.7308 8.34613 15.7308 8.02955 15.5355 7.83429L12.3536 4.65231ZM11.5 13.1849C11.5 13.4611 11.7239 13.6849 12 13.6849C12.2761 13.6849 12.5 13.4611 12.5 13.1849L11.5 13.1849ZM11.5 5.00586L11.5 13.1849L12.5 13.1849L12.5 5.00586L11.5 5.00586Z" fill="black"/>
</svg>
