<svg width="18" height="14" viewBox="0 0 18 14" fill="none" xmlns="http://www.w3.org/2000/svg">
<path fill-rule="evenodd" clip-rule="evenodd" d="M14.3598 11.2318C15.3509 10.4059 16.1082 9.31713 16.6165 8.04384C16.8837 7.3744 16.8837 6.62561 16.6165 5.95616C16.1082 4.68287 15.3509 3.59412 14.3598 2.76822C13.0569 1.68242 11.2897 1 9 1C6.71034 1 4.94314 1.68242 3.64018 2.76822C2.64911 3.59412 1.89176 4.68287 1.38351 5.95616C1.11629 6.6256 1.11629 7.3744 1.38351 8.04384C1.89176 9.31713 2.64911 10.4059 3.64018 11.2318C4.94314 12.3176 6.71034 13 9 13C11.2897 13 13.0569 12.3176 14.3598 11.2318ZM17.7151 6.04142C17.9303 6.6617 17.9303 7.3383 17.7151 7.95858C16.4968 11.4698 13.5918 14 9 14C4.40819 14 1.50316 11.4698 0.284906 7.95858C0.0696923 7.3383 0.0696925 6.6617 0.284907 6.04142C1.50316 2.53016 4.4082 0 9 0C13.5918 0 16.4968 2.53016 17.7151 6.04142ZM11 7C11 8.10457 10.1046 9 9 9C7.89543 9 7 8.10457 7 7C7 5.89543 7.89543 5 9 5C10.1046 5 11 5.89543 11 7ZM12 7C12 8.65685 10.6569 10 9 10C7.34315 10 6 8.65685 6 7C6 5.34315 7.34315 4 9 4C10.6569 4 12 5.34315 12 7Z" fill="black"/>
</svg>
